<svg xmlns="http://www.w3.org/2000/svg"> <symbol viewBox="0 0 24 24" id="ri-arrow-left-s-line"> <path d="M10.8284 12.0007L15.7782 16.9504L14.364 18.3646L8 12.0007L14.364 5.63672L15.7782 7.05093L10.8284 12.0007Z"> </path> </symbol> <symbol viewBox="0 0 24 24" id="ri-arrow-right-s-line"> <path d="M13.1714 12.0007L8.22168 7.05093L9.63589 5.63672L15.9999 12.0007L9.63589 18.3646L8.22168 16.9504L13.1714 12.0007Z"> </path> </symbol> <symbol viewBox="0 0 24 24" id="ri-user-3-line"> <path d="M20 22H18V20C18 18.3431 16.6569 17 15 17H9C7.34315 17 6 18.3431 6 20V22H4V20C4 17.2386 6.23858 15 9 15H15C17.7614 15 20 17.2386 20 20V22ZM12 13C8.68629 13 6 10.3137 6 7C6 3.68629 8.68629 1 12 1C15.3137 1 18 3.68629 18 7C18 10.3137 15.3137 13 12 13ZM12 11C14.2091 11 16 9.20914 16 7C16 4.79086 14.2091 3 12 3C9.79086 3 8 4.79086 8 7C8 9.20914 9.79086 11 12 11Z"> </path> </symbol> <symbol viewBox="0 0 24 24" id="ri-radio-button-line"> <path d="M12 22C6.47715 22 2 17.5228 2 12C2 6.47715 6.47715 2 12 2C17.5228 2 22 6.47715 22 12C22 17.5228 17.5228 22 12 22ZM12 20C16.4183 20 20 16.4183 20 12C20 7.58172 16.4183 4 12 4C7.58172 4 4 7.58172 4 12C4 16.4183 7.58172 20 12 20ZM12 17C9.23858 17 7 14.7614 7 12C7 9.23858 9.23858 7 12 7C14.7614 7 17 9.23858 17 12C17 14.7614 14.7614 17 12 17Z"> </path> </symbol> <symbol viewBox="0 0 24 24" id="ri-checkbox-blank-circle-line"> <path d="M12 22C6.47715 22 2 17.5228 2 12C2 6.47715 6.47715 2 12 2C17.5228 2 22 6.47715 22 12C22 17.5228 17.5228 22 12 22ZM12 20C16.4183 20 20 16.4183 20 12C20 7.58172 16.4183 4 12 4C7.58172 4 4 7.58172 4 12C4 16.4183 7.58172 20 12 20Z"> </path> </symbol> <symbol viewBox="0 0 24 24" id="ri-survey-line"> <path d="M17 2V4H20.0066C20.5552 4 21 4.44495 21 4.9934V21.0066C21 21.5552 20.5551 22 20.0066 22H3.9934C3.44476 22 3 21.5551 3 21.0066V4.9934C3 4.44476 3.44495 4 3.9934 4H7V2H17ZM7 6H5V20H19V6H17V8H7V6ZM9 16V18H7V16H9ZM9 13V15H7V13H9ZM9 10V12H7V10H9ZM15 4H9V6H15V4Z"> </path> </symbol> <symbol viewBox="0 0 24 24" id="ri-survey-fill"> <path d="M6 4V8H18V4H20.0066C20.5552 4 21 4.44495 21 4.9934V21.0066C21 21.5552 20.5551 22 20.0066 22H3.9934C3.44476 22 3 21.5551 3 21.0066V4.9934C3 4.44476 3.44495 4 3.9934 4H6ZM9 17H7V19H9V17ZM9 14H7V16H9V14ZM9 11H7V13H9V11ZM16 2V6H8V2H16Z"> </path> </symbol> <symbol viewBox="0 0 24 24" id="ri-close-circle-fill"> <path d="M12 22C6.47715 22 2 17.5228 2 12C2 6.47715 6.47715 2 12 2C17.5228 2 22 6.47715 22 12C22 17.5228 17.5228 22 12 22ZM12 10.5858L9.17157 7.75736L7.75736 9.17157L10.5858 12L7.75736 14.8284L9.17157 16.2426L12 13.4142L14.8284 16.2426L16.2426 14.8284L13.4142 12L16.2426 9.17157L14.8284 7.75736L12 10.5858Z"> </path> </symbol> <symbol viewBox="0 0 24 24" id="ri-image-2-fill"> <path d="M5 11.1005L7 9.1005L12.5 14.6005L16 11.1005L19 14.1005V5H5V11.1005ZM4 3H20C20.5523 3 21 3.44772 21 4V20C21 20.5523 20.5523 21 20 21H4C3.44772 21 3 20.5523 3 20V4C3 3.44772 3.44772 3 4 3ZM15.5 10C14.6716 10 14 9.32843 14 8.5C14 7.67157 14.6716 7 15.5 7C16.3284 7 17 7.67157 17 8.5C17 9.32843 16.3284 10 15.5 10Z"> </path> </symbol> <symbol viewBox="0 0 24 24" id="ri-movie-2-fill"> <path d="M18.001 20H20V22H12C6.47715 22 2 17.5228 2 12C2 6.47715 6.47715 2 12 2C17.5228 2 22 6.47715 22 12C22 15.2712 20.4293 18.1755 18.001 20ZM12 10C13.1046 10 14 9.10457 14 8C14 6.89543 13.1046 6 12 6C10.8954 6 10 6.89543 10 8C10 9.10457 10.8954 10 12 10ZM8 14C9.10457 14 10 13.1046 10 12C10 10.8954 9.10457 10 8 10C6.89543 10 6 10.8954 6 12C6 13.1046 6.89543 14 8 14ZM16 14C17.1046 14 18 13.1046 18 12C18 10.8954 17.1046 10 16 10C14.8954 10 14 10.8954 14 12C14 13.1046 14.8954 14 16 14ZM12 18C13.1046 18 14 17.1046 14 16C14 14.8954 13.1046 14 12 14C10.8954 14 10 14.8954 10 16C10 17.1046 10.8954 18 12 18Z"> </path> </symbol> <symbol viewBox="0 0 24 24" id="ri-code-box-fill"> <path d="M3 3H21C21.5523 3 22 3.44772 22 4V20C22 20.5523 21.5523 21 21 21H3C2.44772 21 2 20.5523 2 20V4C2 3.44772 2.44772 3 3 3ZM16.4645 15.5355L20 12L16.4645 8.46447L15.0503 9.87868L17.1716 12L15.0503 14.1213L16.4645 15.5355ZM6.82843 12L8.94975 9.87868L7.53553 8.46447L4 12L7.53553 15.5355L8.94975 14.1213L6.82843 12ZM11.2443 17L14.884 7H12.7557L9.11597 17H11.2443Z"> </path> </symbol> <symbol viewBox="0 0 24 24" id="ri-qr-code-fill"> <path d="M16 17V16H13V13H16V15H18V17H17V19H15V21H13V18H15V17H16ZM21 21H17V19H19V17H21V21ZM3 3H11V11H3V3ZM13 3H21V11H13V3ZM3 13H11V21H3V13ZM18 13H21V15H18V13ZM6 6V8H8V6H6ZM6 16V18H8V16H6ZM16 6V8H18V6H16Z"> </path> </symbol> <symbol viewBox="0 0 24 24" id="ri-barcode-fill"> <path d="M2 4H4V20H2V4ZM6 4H8V20H6V4ZM9 4H12V20H9V4ZM13 4H15V20H13V4ZM16 4H18V20H16V4ZM19 4H22V20H19V4Z"></path> </symbol> <symbol viewBox="0 0 24 24" id="ri-star-fill"> <path d="M12.0006 18.26L4.94715 22.2082L6.52248 14.2799L0.587891 8.7918L8.61493 7.84006L12.0006 0.5L15.3862 7.84006L23.4132 8.7918L17.4787 14.2799L19.054 22.2082L12.0006 18.26Z"> </path> </symbol> <symbol viewBox="0 0 24 24" id="ri-close-line"> <path d="M12.0007 10.5865L16.9504 5.63672L18.3646 7.05093L13.4149 12.0007L18.3646 16.9504L16.9504 18.3646L12.0007 13.4149L7.05093 18.3646L5.63672 16.9504L10.5865 12.0007L5.63672 7.05093L7.05093 5.63672L12.0007 10.5865Z"> </path> </symbol> <symbol viewBox="0 0 24 24" id="ri-volume-down-line"> <path d="M13 7.22056L9.60282 10.0001H6V14.0001H9.60282L13 16.7796V7.22056ZM8.88889 16.0001H5C4.44772 16.0001 4 15.5524 4 15.0001V9.00007C4 8.44778 4.44772 8.00007 5 8.00007H8.88889L14.1834 3.66821C14.3971 3.49335 14.7121 3.52485 14.887 3.73857C14.9601 3.8279 15 3.93977 15 4.05519V19.9449C15 20.2211 14.7761 20.4449 14.5 20.4449C14.3846 20.4449 14.2727 20.405 14.1834 20.3319L8.88889 16.0001ZM18.8631 16.5911L17.4411 15.1691C18.3892 14.4376 19 13.2902 19 12.0001C19 10.5697 18.2493 9.31476 17.1203 8.60766L18.5589 7.16906C20.0396 8.26166 21 10.0187 21 12.0001C21 13.8422 20.1698 15.4905 18.8631 16.5911Z"> </path> </symbol> <symbol viewBox="0 0 24 24" id="ri-arrow-down-s-line"> <path d="M11.9997 13.1714L16.9495 8.22168L18.3637 9.63589L11.9997 15.9999L5.63574 9.63589L7.04996 8.22168L11.9997 13.1714Z"> </path> </symbol> <symbol viewBox="0 0 24 24" id="ri-plane-line"> <path d="M14 8.94737L22 14V16L14 13.4737V18.8333L17 20.5V22L12.5 21L8 22V20.5L11 18.8333V13.4737L3 16V14L11 8.94737V3.5C11 2.67157 11.6716 2 12.5 2C13.3284 2 14 2.67157 14 3.5V8.94737Z"> </path> </symbol> <symbol viewBox="0 0 24 24" id="ri-plane-fill"> <path d="M14 8.94737L22 14V16L14 13.4737V18.8333L17 20.5V22L12.5 21L8 22V20.5L11 18.8333V13.4737L3 16V14L11 8.94737V3.5C11 2.67157 11.6716 2 12.5 2C13.3284 2 14 2.67157 14 3.5V8.94737Z"> </path> </symbol> <symbol viewBox="0 0 24 24" id="ri-share-forward-2-fill"> <path d="M4 19H20V14H22V20C22 20.5523 21.5523 21 21 21H3C2.44772 21 2 20.5523 2 20V14H4V19ZM12 10H9C7.00442 10 5.23638 10.9742 4.14556 12.473C4.85831 8.78512 8.10391 6 12 6V2L20 8L12 14V10Z"> </path> </symbol> <symbol viewBox="0 0 24 24" id="ri-mic-off-fill"> <path d="M16.4259 17.839C15.3939 18.4228 14.2351 18.8087 13.0011 18.9451V23H11.0011V18.9451C6.82952 18.4839 3.51721 15.1716 3.05606 11H5.07202C5.55725 14.3923 8.47466 17 12.0011 17C13.0513 17 14.0474 16.7688 14.9413 16.3544L13.3912 14.8042C12.9499 14.9317 12.4835 15 12.0011 15C9.23971 15 7.00113 12.7614 7.00113 10V8.41421L1.39453 2.80761L2.80874 1.3934L22.6077 21.1924L21.1935 22.6066L16.4259 17.839ZM19.3757 15.1604L17.9333 13.7179C18.4417 12.9084 18.789 11.9874 18.9302 11H20.9462C20.7763 12.5366 20.2197 13.9565 19.3757 15.1604ZM16.4668 12.2514L7.68672 3.47139C8.55524 1.99268 10.1623 1 12.0011 1C14.7626 1 17.0011 3.23858 17.0011 6V10C17.0011 10.8099 16.8086 11.5748 16.4668 12.2514Z"> </path> </symbol> <symbol viewBox="0 0 24 24" id="ri-hand-heart-line"> <path d="M5.00488 9.00256C5.55717 9.00256 6.00488 9.45027 6.00488 10.0026C7.63965 10.0026 9.14352 10.5629 10.3349 11.5021L12.5049 11.5026C13.837 11.5026 15.0339 12.0814 15.8579 13.0013L19.0049 13.0026C20.9972 13.0026 22.7173 14.1678 23.521 15.854C21.1562 18.9746 17.3268 21.0026 13.0049 21.0026C10.2142 21.0026 7.85466 20.3993 5.944 19.3446C5.80557 19.7281 5.43727 20.0026 5.00488 20.0026H2.00488C1.4526 20.0026 1.00488 19.5548 1.00488 19.0026V10.0026C1.00488 9.45027 1.4526 9.00256 2.00488 9.00256H5.00488ZM6.00589 12.0026L6.00488 17.0237L6.05024 17.057C7.84406 18.3175 10.183 19.0026 13.0049 19.0026C16.0089 19.0026 18.8035 17.8469 20.84 15.8731L20.9729 15.7396L20.8537 15.6392C20.3897 15.2762 19.8205 15.0509 19.2099 15.0095L19.0049 15.0026L16.8932 15.0016C16.9663 15.3235 17.0049 15.6585 17.0049 16.0026V17.0026H8.00488V15.0026L14.7949 15.0016L14.7605 14.9231C14.38 14.1295 13.593 13.5678 12.6693 13.5079L12.5049 13.5026L9.57547 13.5024C8.66823 12.577 7.40412 12.0028 6.00589 12.0026ZM4.00488 11.0026H3.00488V18.0026H4.00488V11.0026ZM13.6513 3.57794L14.0046 3.9317L14.3584 3.57794C15.3347 2.60163 16.9177 2.60163 17.894 3.57794C18.8703 4.55425 18.8703 6.13716 17.894 7.11347L14.0049 11.0026L10.1158 7.11347C9.13948 6.13716 9.13948 4.55425 10.1158 3.57794C11.0921 2.60163 12.675 2.60163 13.6513 3.57794ZM11.53 4.99215C11.3564 5.16572 11.3372 5.43514 11.4714 5.62926L11.5289 5.69819L14.0039 8.17356L16.4798 5.69926C16.6533 5.52569 16.6726 5.25627 16.5376 5.0614L16.4798 4.99215C16.3062 4.81858 16.0368 4.7993 15.8417 4.93444L15.7724 4.99236L14.0033 6.76098L12.236 4.99108L12.1679 4.93429C11.973 4.7993 11.7036 4.81858 11.53 4.99215Z"> </path> </symbol> <symbol viewBox="0 0 24 24" id="ri-apps-2-line"> <path d="M7.5 11.5C5.01472 11.5 3 9.48528 3 7C3 4.51472 5.01472 2.5 7.5 2.5C9.98528 2.5 12 4.51472 12 7C12 9.48528 9.98528 11.5 7.5 11.5ZM7.5 21.5C5.01472 21.5 3 19.4853 3 17C3 14.5147 5.01472 12.5 7.5 12.5C9.98528 12.5 12 14.5147 12 17C12 19.4853 9.98528 21.5 7.5 21.5ZM17.5 11.5C15.0147 11.5 13 9.48528 13 7C13 4.51472 15.0147 2.5 17.5 2.5C19.9853 2.5 22 4.51472 22 7C22 9.48528 19.9853 11.5 17.5 11.5ZM17.5 21.5C15.0147 21.5 13 19.4853 13 17C13 14.5147 15.0147 12.5 17.5 12.5C19.9853 12.5 22 14.5147 22 17C22 19.4853 19.9853 21.5 17.5 21.5ZM7.5 9.5C8.88071 9.5 10 8.38071 10 7C10 5.61929 8.88071 4.5 7.5 4.5C6.11929 4.5 5 5.61929 5 7C5 8.38071 6.11929 9.5 7.5 9.5ZM7.5 19.5C8.88071 19.5 10 18.3807 10 17C10 15.6193 8.88071 14.5 7.5 14.5C6.11929 14.5 5 15.6193 5 17C5 18.3807 6.11929 19.5 7.5 19.5ZM17.5 9.5C18.8807 9.5 20 8.38071 20 7C20 5.61929 18.8807 4.5 17.5 4.5C16.1193 4.5 15 5.61929 15 7C15 8.38071 16.1193 9.5 17.5 9.5ZM17.5 19.5C18.8807 19.5 20 18.3807 20 17C20 15.6193 18.8807 14.5 17.5 14.5C16.1193 14.5 15 15.6193 15 17C15 18.3807 16.1193 19.5 17.5 19.5Z"> </path> </symbol> <symbol viewBox="0 0 24 24" id="ri-star-line"> <path d="M12.0006 18.26L4.94715 22.2082L6.52248 14.2799L0.587891 8.7918L8.61493 7.84006L12.0006 0.5L15.3862 7.84006L23.4132 8.7918L17.4787 14.2799L19.054 22.2082L12.0006 18.26ZM12.0006 15.968L16.2473 18.3451L15.2988 13.5717L18.8719 10.2674L14.039 9.69434L12.0006 5.27502L9.96214 9.69434L5.12921 10.2674L8.70231 13.5717L7.75383 18.3451L12.0006 15.968Z"> </path> </symbol> <symbol viewBox="0 0 24 24" id="ri-share-forward-line"> <path d="M13 14H11C7.54202 14 4.53953 15.9502 3.03239 18.8107C3.01093 18.5433 3 18.2729 3 18C3 12.4772 7.47715 8 13 8V2.5L23.5 11L13 19.5V14ZM11 12H15V15.3078L20.3214 11L15 6.69224V10H13C10.5795 10 8.41011 11.0749 6.94312 12.7735C8.20873 12.2714 9.58041 12 11 12Z"> </path> </symbol> <symbol viewBox="0 0 24 24" id="ri-spy-fill"> <path d="M17 13C19.2091 13 21 14.7909 21 17C21 19.2091 19.2091 21 17 21C14.8578 21 13 19.21 13 17H11C11 19.2091 9.20914 21 7 21C4.79086 21 3 19.2091 3 17C3 14.7909 4.79086 13 7 13C8.48052 13 9.77317 13.8043 10.4648 14.9999H13.5352C14.2268 13.8043 15.5195 13 17 13ZM2 12V10H4V7C4 4.79086 5.79086 3 8 3H16C18.2091 3 20 4.79086 20 7V10H22V12H2Z"> </path> </symbol> <symbol viewBox="0 0 24 24" id="ri-chrome-fill"> <path d="M9.82726 21.7633C5.34912 20.7712 2 16.7767 2 12C2 10.1779 2.48734 8.46958 3.33878 6.99834L7.62189 14.4169C8.47396 15.9571 10.1152 17 12 17C12.2023 17 12.4018 16.988 12.5978 16.9646L9.82726 21.7633ZM12 22L16.2868 14.5751C16.7396 13.8229 17 12.9419 17 12C17 10.8744 16.6281 9.83566 16.0004 9H21.5422C21.8396 9.94704 22 10.9548 22 12C22 17.5228 17.5228 22 12 22ZM14.5721 13.545C14.0473 14.4168 13.0917 15 12 15C10.8897 15 9.92024 14.3968 9.40149 13.5002L9.37313 13.4501C9.13535 13.0203 9 12.526 9 12C9 10.3431 10.3431 9 12 9C13.6569 9 15 10.3431 15 12C15 12.5465 14.8539 13.0589 14.5985 13.5002L14.5721 13.545ZM4.6322 5.23859C6.46008 3.24783 9.08432 2 12 2C15.7014 2 18.9331 4.01099 20.6622 7H12C9.93635 7 8.1647 8.25019 7.40112 10.0345L4.6322 5.23859Z"> </path> </symbol> <symbol viewBox="0 0 24 24" id="ri-riding-line"> <path d="M5.5 21C3.01472 21 1 18.9853 1 16.5C1 14.0147 3.01472 12 5.5 12C7.98528 12 10 14.0147 10 16.5C10 18.9853 7.98528 21 5.5 21ZM5.5 19C6.88071 19 8 17.8807 8 16.5C8 15.1193 6.88071 14 5.5 14C4.11929 14 3 15.1193 3 16.5C3 17.8807 4.11929 19 5.5 19ZM18.5 21C16.0147 21 14 18.9853 14 16.5C14 14.0147 16.0147 12 18.5 12C20.9853 12 23 14.0147 23 16.5C23 18.9853 20.9853 21 18.5 21ZM18.5 19C19.8807 19 21 17.8807 21 16.5C21 15.1193 19.8807 14 18.5 14C17.1193 14 16 15.1193 16 16.5C16 17.8807 17.1193 19 18.5 19ZM11.023 10.3054L13 12V18H11V13L8.28117 10.7343C8.18221 10.6661 8.08802 10.588 8 10.5C7.21895 9.71895 7.21895 8.45262 8 7.67157L10.8284 4.84315C11.6095 4.0621 12.8758 4.0621 13.6569 4.84315L15.0711 6.25736C16.1746 7.36086 17.5548 8.01891 18.9884 8.23151L18.978 10.2474C17.0335 10.0218 15.1485 9.16323 13.6569 7.67157L11.023 10.3054ZM16 5C14.8954 5 14 4.10457 14 3C14 1.89543 14.8954 1 16 1C17.1046 1 18 1.89543 18 3C18 4.10457 17.1046 5 16 5Z"> </path> </symbol> <symbol viewBox="0 0 24 24" id="ri-switch-fill"> <path d="M13.62 21C13.5351 21 13.4786 20.9434 13.4927 20.8727V3.12726C13.4927 3.0707 13.5351 3.01414 13.6058 3.01414H16.3914C18.9366 3.01414 21.001 5.07855 21.001 7.62372V16.3904C21.001 18.9356 18.9366 21 16.3914 21H13.62ZM17.0418 11.0738C16.0379 11.0738 15.2178 11.894 15.2178 12.8979C15.2178 13.9018 16.0379 14.7219 17.0418 14.7219C18.0458 14.7219 18.8659 13.9018 18.8659 12.8979C18.8659 11.894 18.0458 11.0738 17.0418 11.0738ZM5.80066 8.40141C5.80066 7.46819 6.56421 6.70463 7.49744 6.70463C8.43067 6.70463 9.19422 7.46819 9.19422 8.40141C9.19422 9.33464 8.43067 10.0982 7.49744 10.0982C6.56421 10.0982 5.80066 9.33464 5.80066 8.40141ZM11.5414 3C11.6263 3 11.6828 3.05656 11.6687 3.12726V20.8586C11.6687 20.9293 11.6121 20.9859 11.5414 20.9859H7.61056C5.06539 20.9859 3.00098 18.9214 3.00098 16.3763V7.60958C3.00098 5.06441 5.06539 3 7.61056 3H11.5414ZM10.2264 19.5436V4.44226H7.61056C6.76217 4.44226 5.97034 4.78162 5.37647 5.37549C4.76846 5.96936 4.44324 6.76119 4.44324 7.60958V16.3763C4.44324 17.2247 4.78259 18.0165 5.37647 18.6104C5.97034 19.2184 6.76217 19.5436 7.61056 19.5436H10.2264Z"> </path> </symbol> <symbol viewBox="0 0 24 24" id="ri-home-7-line"> <path d="M19 21.0001H5C4.44772 21.0001 4 20.5524 4 20.0001V11.0001L1 11.0001L11.3273 1.61162C11.7087 1.26488 12.2913 1.26488 12.6727 1.61162L23 11.0001L20 11.0001V20.0001C20 20.5524 19.5523 21.0001 19 21.0001ZM6 19.0001H18V9.15757L12 3.70302L6 9.15757V19.0001ZM12 15.0001C10.6193 15.0001 9.5 13.8808 9.5 12.5001C9.5 11.1194 10.6193 10.0001 12 10.0001C13.3807 10.0001 14.5 11.1194 14.5 12.5001C14.5 13.8808 13.3807 15.0001 12 15.0001Z"> </path> </symbol> <symbol viewBox="0 0 24 24" id="ri-customer-service-2-line"> <path d="M19.9381 8H21C22.1046 8 23 8.89543 23 10V14C23 15.1046 22.1046 16 21 16H19.9381C19.446 19.9463 16.0796 23 12 23V21C15.3137 21 18 18.3137 18 15V9C18 5.68629 15.3137 3 12 3C8.68629 3 6 5.68629 6 9V16H3C1.89543 16 1 15.1046 1 14V10C1 8.89543 1.89543 8 3 8H4.06189C4.55399 4.05369 7.92038 1 12 1C16.0796 1 19.446 4.05369 19.9381 8ZM3 10V14H4V10H3ZM20 10V14H21V10H20ZM7.75944 15.7849L8.81958 14.0887C9.74161 14.6662 10.8318 15 12 15C13.1682 15 14.2584 14.6662 15.1804 14.0887L16.2406 15.7849C15.0112 16.5549 13.5576 17 12 17C10.4424 17 8.98882 16.5549 7.75944 15.7849Z"> </path> </symbol> <symbol viewBox="0 0 24 24" id="ri-paint-brush-line"> <path d="M5 4.99658V7.99658H19V4.99658H5ZM4 2.99658H20C20.5523 2.99658 21 3.4443 21 3.99658V8.99658C21 9.54887 20.5523 9.99658 20 9.99658H4C3.44772 9.99658 3 9.54887 3 8.99658V3.99658C3 3.4443 3.44772 2.99658 4 2.99658ZM6 11.9966H12C12.5523 11.9966 13 12.4443 13 12.9966V15.9966H14V21.9966H10V15.9966H11V13.9966H5C4.44772 13.9966 4 13.5489 4 12.9966V10.9966H6V11.9966ZM17.7322 13.7288L19.5 11.961L21.2678 13.7288C22.2441 14.7051 22.2441 16.288 21.2678 17.2643C20.2915 18.2407 18.7085 18.2407 17.7322 17.2643C16.7559 16.288 16.7559 14.7051 17.7322 13.7288Z"> </path> </symbol> <symbol viewBox="0 0 24 24" id="ri-share-line"> <path d="M13.1202 17.0228L8.92129 14.7324C8.19135 15.5125 7.15261 16 6 16C3.79086 16 2 14.2091 2 12C2 9.79086 3.79086 8 6 8C7.15255 8 8.19125 8.48746 8.92118 9.26746L13.1202 6.97713C13.0417 6.66441 13 6.33707 13 6C13 3.79086 14.7909 2 17 2C19.2091 2 21 3.79086 21 6C21 8.20914 19.2091 10 17 10C15.8474 10 14.8087 9.51251 14.0787 8.73246L9.87977 11.0228C9.9583 11.3355 10 11.6629 10 12C10 12.3371 9.95831 12.6644 9.87981 12.9771L14.0788 15.2675C14.8087 14.4875 15.8474 14 17 14C19.2091 14 21 15.7909 21 18C21 20.2091 19.2091 22 17 22C14.7909 22 13 20.2091 13 18C13 17.6629 13.0417 17.3355 13.1202 17.0228ZM6 14C7.10457 14 8 13.1046 8 12C8 10.8954 7.10457 10 6 10C4.89543 10 4 10.8954 4 12C4 13.1046 4.89543 14 6 14ZM17 8C18.1046 8 19 7.10457 19 6C19 4.89543 18.1046 4 17 4C15.8954 4 15 4.89543 15 6C15 7.10457 15.8954 8 17 8ZM17 20C18.1046 20 19 19.1046 19 18C19 16.8954 18.1046 16 17 16C15.8954 16 15 16.8954 15 18C15 19.1046 15.8954 20 17 20Z"> </path> </symbol> <symbol viewBox="0 0 24 24" id="ri-command-line"> <path d="M10 8H14V6.5C14 4.567 15.567 3 17.5 3C19.433 3 21 4.567 21 6.5C21 8.433 19.433 10 17.5 10H16V14H17.5C19.433 14 21 15.567 21 17.5C21 19.433 19.433 21 17.5 21C15.567 21 14 19.433 14 17.5V16H10V17.5C10 19.433 8.433 21 6.5 21C4.567 21 3 19.433 3 17.5C3 15.567 4.567 14 6.5 14H8V10H6.5C4.567 10 3 8.433 3 6.5C3 4.567 4.567 3 6.5 3C8.433 3 10 4.567 10 6.5V8ZM8 8V6.5C8 5.67157 7.32843 5 6.5 5C5.67157 5 5 5.67157 5 6.5C5 7.32843 5.67157 8 6.5 8H8ZM8 16H6.5C5.67157 16 5 16.6716 5 17.5C5 18.3284 5.67157 19 6.5 19C7.32843 19 8 18.3284 8 17.5V16ZM16 8H17.5C18.3284 8 19 7.32843 19 6.5C19 5.67157 18.3284 5 17.5 5C16.6716 5 16 5.67157 16 6.5V8ZM16 16V17.5C16 18.3284 16.6716 19 17.5 19C18.3284 19 19 18.3284 19 17.5C19 16.6716 18.3284 16 17.5 16H16ZM10 10V14H14V10H10Z"> </path> </symbol> <symbol viewBox="0 0 24 24" id="ri-drag-move-line"> <path d="M12 2L16.2426 6.24264L14.8284 7.65685L12 4.82843L9.17157 7.65685L7.75736 6.24264L12 2ZM2 12L6.24264 7.75736L7.65685 9.17157L4.82843 12L7.65685 14.8284L6.24264 16.2426L2 12ZM22 12L17.7574 16.2426L16.3431 14.8284L19.1716 12L16.3431 9.17157L17.7574 7.75736L22 12ZM12 14C10.8954 14 10 13.1046 10 12C10 10.8954 10.8954 10 12 10C13.1046 10 14 10.8954 14 12C14 13.1046 13.1046 14 12 14ZM12 22L7.75736 17.7574L9.17157 16.3431L12 19.1716L14.8284 16.3431L16.2426 17.7574L12 22Z"> </path> </symbol> <symbol viewBox="0 0 24 24" id="ri-indent-decrease"> <path d="M3 4H21V6H3V4ZM3 19H21V21H3V19ZM11 14H21V16H11V14ZM11 9H21V11H11V9ZM3 12.5L7 9V16L3 12.5Z"></path> </symbol> <symbol viewBox="0 0 24 24" id="ri-service-line"> <path d="M3.16113 4.46875C5.58508 2.0448 9.44716 1.9355 12.0008 4.14085C14.5528 1.9355 18.4149 2.0448 20.8388 4.46875C23.2584 6.88836 23.3716 10.741 21.1785 13.2947L13.4142 21.0858C12.6686 21.8313 11.4809 21.8652 10.6952 21.1874L10.5858 21.0858L2.82141 13.2947C0.628282 10.741 0.741522 6.88836 3.16113 4.46875ZM4.57534 5.88296C2.86819 7.59011 2.81942 10.3276 4.42902 12.0937L4.57534 12.2469L12 19.6715L17.3026 14.3675L13.7677 10.8327L12.7071 11.8934C11.5355 13.0649 9.636 13.0649 8.46443 11.8934C7.29286 10.7218 7.29286 8.8223 8.46443 7.65073L10.5656 5.54823C8.85292 4.17713 6.37076 4.23993 4.7286 5.73663L4.57534 5.88296ZM13.0606 8.71139C13.4511 8.32086 14.0843 8.32086 14.4748 8.71139L18.7168 12.9533L19.4246 12.2469C21.1819 10.4896 21.1819 7.64032 19.4246 5.88296C17.7174 4.17581 14.9799 4.12704 13.2139 5.73663L13.0606 5.88296L9.87864 9.06494C9.51601 9.42757 9.49011 9.99942 9.80094 10.3919L9.87864 10.4792C10.2413 10.8418 10.8131 10.8677 11.2056 10.5569L11.2929 10.4792L13.0606 8.71139Z"> </path> </symbol> <symbol viewBox="0 0 24 24" id="ri-parent-line"> <path d="M7 9C8.38071 9 9.5 7.88071 9.5 6.5C9.5 5.11929 8.38071 4 7 4C5.61929 4 4.5 5.11929 4.5 6.5C4.5 7.88071 5.61929 9 7 9ZM7 11C4.51472 11 2.5 8.98528 2.5 6.5C2.5 4.01472 4.51472 2 7 2C9.48528 2 11.5 4.01472 11.5 6.5C11.5 8.98528 9.48528 11 7 11ZM17.5 13C18.6046 13 19.5 12.1046 19.5 11C19.5 9.89543 18.6046 9 17.5 9C16.3954 9 15.5 9.89543 15.5 11C15.5 12.1046 16.3954 13 17.5 13ZM17.5 15C15.2909 15 13.5 13.2091 13.5 11C13.5 8.79086 15.2909 7 17.5 7C19.7091 7 21.5 8.79086 21.5 11C21.5 13.2091 19.7091 15 17.5 15ZM20 21V20.5C20 19.1193 18.8807 18 17.5 18C16.1193 18 15 19.1193 15 20.5V21H13V20.5C13 18.0147 15.0147 16 17.5 16C19.9853 16 22 18.0147 22 20.5V21H20ZM10 21V17C10 15.3431 8.65685 14 7 14C5.34315 14 4 15.3431 4 17V21H2V17C2 14.2386 4.23858 12 7 12C9.76142 12 12 14.2386 12 17V21H10Z"> </path> </symbol> <symbol viewBox="0 0 24 24" id="ri-bank-line"> <path d="M2 20H22V22H2V20ZM4 12H6V19H4V12ZM9 12H11V19H9V12ZM13 12H15V19H13V12ZM18 12H20V19H18V12ZM2 7L12 2L22 7V11H2V7ZM4 8.23607V9H20V8.23607L12 4.23607L4 8.23607ZM12 8C11.4477 8 11 7.55228 11 7C11 6.44772 11.4477 6 12 6C12.5523 6 13 6.44772 13 7C13 7.55228 12.5523 8 12 8Z"> </path> </symbol> <symbol viewBox="0 0 24 24" id="ri-battery-charge-line"> <path d="M8 19H3C2.44772 19 2 18.5523 2 18V6C2 5.44772 2.44772 5 3 5H9.625L8.45833 7H4V17H8V19ZM12.375 19L13.5417 17H18V7H14V5H19C19.5523 5 20 5.44772 20 6V18C20 18.5523 19.5523 19 19 19H12.375ZM21 9H23V15H21V9ZM12 11H15L10 19V13H7L12 5V11Z"> </path> </symbol> <symbol viewBox="0 0 24 24" id="ri-shopping-basket-line"> <path d="M12.0049 2C15.3186 2 18.0049 4.68629 18.0049 8V9H22.0049V11H20.8379L20.0813 20.083C20.0381 20.6013 19.6048 21 19.0847 21H4.92502C4.40493 21 3.97166 20.6013 3.92847 20.083L3.17088 11H2.00488V9H6.00488V8C6.00488 4.68629 8.69117 2 12.0049 2ZM18.8309 11H5.17788L5.84488 19H18.1639L18.8309 11ZM13.0049 13V17H11.0049V13H13.0049ZM9.00488 13V17H7.00488V13H9.00488ZM17.0049 13V17H15.0049V13H17.0049ZM12.0049 4C9.86269 4 8.1138 5.68397 8.00978 7.80036L8.00488 8V9H16.0049V8C16.0049 5.8578 14.3209 4.10892 12.2045 4.0049L12.0049 4Z"> </path> </symbol> <symbol viewBox="0 0 24 24" id="ri-moon-line"> <path d="M10 7C10 10.866 13.134 14 17 14C18.9584 14 20.729 13.1957 21.9995 11.8995C22 11.933 22 11.9665 22 12C22 17.5228 17.5228 22 12 22C6.47715 22 2 17.5228 2 12C2 6.47715 6.47715 2 12 2C12.0335 2 12.067 2 12.1005 2.00049C10.8043 3.27098 10 5.04157 10 7ZM4 12C4 16.4183 7.58172 20 12 20C15.0583 20 17.7158 18.2839 19.062 15.7621C18.3945 15.9187 17.7035 16 17 16C12.0294 16 8 11.9706 8 7C8 6.29648 8.08133 5.60547 8.2379 4.938C5.71611 6.28423 4 8.9417 4 12Z"> </path> </symbol> <symbol viewBox="0 0 24 24" id="ri-sun-line"> <path d="M12 18C8.68629 18 6 15.3137 6 12C6 8.68629 8.68629 6 12 6C15.3137 6 18 8.68629 18 12C18 15.3137 15.3137 18 12 18ZM12 16C14.2091 16 16 14.2091 16 12C16 9.79086 14.2091 8 12 8C9.79086 8 8 9.79086 8 12C8 14.2091 9.79086 16 12 16ZM11 1H13V4H11V1ZM11 20H13V23H11V20ZM3.51472 4.92893L4.92893 3.51472L7.05025 5.63604L5.63604 7.05025L3.51472 4.92893ZM16.9497 18.364L18.364 16.9497L20.4853 19.0711L19.0711 20.4853L16.9497 18.364ZM19.0711 3.51472L20.4853 4.92893L18.364 7.05025L16.9497 5.63604L19.0711 3.51472ZM5.63604 16.9497L7.05025 18.364L4.92893 20.4853L3.51472 19.0711L5.63604 16.9497ZM23 11V13H20V11H23ZM4 11V13H1V11H4Z"> </path> </symbol> <symbol viewBox="0 0 24 24" id="ri-bear-smile-line"> <path d="M12 17C14.2091 17 16 15.2091 16 13H14C14 14.1046 13.1046 15 12 15C10.8954 15 10 14.1046 10 13H8C8 15.2091 9.79086 17 12 17Z M6.5 2C4.01472 2 2 4.01472 2 6.5C2 7.85729 2.60121 9.07332 3.54934 9.89751C3.19384 10.8656 3 11.911 3 13C3 17.9706 7.02944 22 12 22C16.9706 22 21 17.9706 21 13C21 11.911 20.8062 10.8656 20.4507 9.89751C21.3988 9.07332 22 7.85729 22 6.5C22 4.01472 19.9853 2 17.5 2C15.8737 2 14.4505 2.8624 13.6601 4.15297C13.1215 4.05246 12.5665 4 12 4C11.4335 4 10.8785 4.05246 10.3399 4.15297C9.5495 2.8624 8.12635 2 6.5 2ZM4 6.5C4 5.11929 5.11929 4 6.5 4C7.58033 4 8.50304 4.68577 8.8517 5.64896L9.1696 6.52718L10.0675 6.26991C10.6801 6.09435 11.3282 6 12 6C12.6718 6 13.3199 6.09435 13.9325 6.26991L14.8304 6.52718L15.1483 5.64896C15.497 4.68577 16.4197 4 17.5 4C18.8807 4 20 5.11929 20 6.5C20 7.43301 19.4894 8.24804 18.7275 8.67859L17.9141 9.13832L18.3176 9.98107C18.7547 10.8939 19 11.9169 19 13C19 16.866 15.866 20 12 20C8.13401 20 5 16.866 5 13C5 11.9169 5.24529 10.8939 5.6824 9.98107L6.08595 9.13832L5.27248 8.6786C4.51064 8.24805 4 7.43301 4 6.5Z"> </path> </symbol> <symbol viewBox="0 0 24 24" id="ri-aliens-fill"> <path d="M12 2C16.6944 2 20.5 5.80558 20.5 10.5C20.5 17 15 22.5 12 22.5C9 22.5 3.5 17 3.5 10.5C3.5 5.80558 7.30558 2 12 2ZM17.5 12C15.0147 12 13 14.0147 13 16.5C13 16.6603 13.0084 16.8186 13.0252 16.9752C13.1812 16.9916 13.3396 17 13.5 17C15.9853 17 18 14.9853 18 12.5C18 12.3396 17.9916 12.1812 17.9746 12.0247C17.8186 12.0084 17.6603 12 17.5 12ZM6.5 12C6.33963 12 6.18121 12.0084 6.02475 12.0252C6.00839 12.1812 6 12.3396 6 12.5C6 14.9853 8.01472 17 10.5 17C10.6603 17 10.8186 16.9916 10.9753 16.9746C10.9916 16.8186 11 16.6603 11 16.5C11 14.0147 8.98528 12 6.5 12Z"> </path> </symbol> <symbol viewBox="0 0 24 24" id="ri-user-smile-line"> <path d="M12 22C6.47715 22 2 17.5228 2 12C2 6.47715 6.47715 2 12 2C17.5228 2 22 6.47715 22 12C22 17.5228 17.5228 22 12 22ZM12 20C16.4183 20 20 16.4183 20 12C20 7.58172 16.4183 4 12 4C7.58172 4 4 7.58172 4 12C4 16.4183 7.58172 20 12 20ZM7 12H9C9 13.6569 10.3431 15 12 15C13.6569 15 15 13.6569 15 12H17C17 14.7614 14.7614 17 12 17C9.23858 17 7 14.7614 7 12Z"> </path> </symbol> <symbol viewBox="0 0 24 24" id="ri-shield-user-line"> <path d="M3.78307 2.82598L12 1L20.2169 2.82598C20.6745 2.92766 21 3.33347 21 3.80217V13.7889C21 15.795 19.9974 17.6684 18.3282 18.7812L12 23L5.6718 18.7812C4.00261 17.6684 3 15.795 3 13.7889V3.80217C3 3.33347 3.32553 2.92766 3.78307 2.82598ZM5 4.60434V13.7889C5 15.1263 5.6684 16.3752 6.7812 17.1171L12 20.5963L17.2188 17.1171C18.3316 16.3752 19 15.1263 19 13.7889V4.60434L12 3.04879L5 4.60434ZM12 11C10.6193 11 9.5 9.88071 9.5 8.5C9.5 7.11929 10.6193 6 12 6C13.3807 6 14.5 7.11929 14.5 8.5C14.5 9.88071 13.3807 11 12 11ZM7.52746 16C7.77619 13.75 9.68372 12 12 12C14.3163 12 16.2238 13.75 16.4725 16H7.52746Z"> </path> </symbol> <symbol viewBox="0 0 24 24" id="ri-emotion-line"> <path d="M12 22C6.47715 22 2 17.5228 2 12C2 6.47715 6.47715 2 12 2C17.5228 2 22 6.47715 22 12C22 17.5228 17.5228 22 12 22ZM12 20C16.4183 20 20 16.4183 20 12C20 7.58172 16.4183 4 12 4C7.58172 4 4 7.58172 4 12C4 16.4183 7.58172 20 12 20ZM8 13H16C16 15.2091 14.2091 17 12 17C9.79086 17 8 15.2091 8 13ZM8 11C7.17157 11 6.5 10.3284 6.5 9.5C6.5 8.67157 7.17157 8 8 8C8.82843 8 9.5 8.67157 9.5 9.5C9.5 10.3284 8.82843 11 8 11ZM16 11C15.1716 11 14.5 10.3284 14.5 9.5C14.5 8.67157 15.1716 8 16 8C16.8284 8 17.5 8.67157 17.5 9.5C17.5 10.3284 16.8284 11 16 11Z"> </path> </symbol> <symbol viewBox="0 0 24 24" id="ri-send-plane-line"> <path d="M21.7264 2.95706L16.2732 22.0433C16.1222 22.5718 15.7976 22.5958 15.5561 22.1127L10.9998 13.0002L1.92266 9.36931C1.41298 9.16544 1.41929 8.86034 1.9567 8.6812L21.0429 2.31913C21.5714 2.14297 21.8745 2.43878 21.7264 2.95706ZM19.0351 5.0966L6.81197 9.17097L12.4486 11.4256L15.4893 17.507L19.0351 5.0966Z"> </path> </symbol> <symbol viewBox="0 0 24 24" id="ri-ship-2-line"> <path d="M9 4H14.4458C14.7905 4 15.111 4.17762 15.2938 4.47L18.75 10H23.1577C23.4339 10 23.6577 10.2239 23.6577 10.5C23.6577 10.5837 23.6367 10.666 23.5967 10.7394L19.6364 18H19C18.4694 18 17.9548 17.9311 17.4648 17.8018L20.63 12H3.4L4.44833 17.824C3.9845 17.939 3.49937 18 3 18H2.45455L1.21434 11.1789C1.11555 10.6355 1.47595 10.1149 2.01933 10.0161C2.07835 10.0054 2.13822 10 2.19821 10H3V5C3 4.44772 3.44772 4 4 4H5V1H9V4ZM5 10H16.3915L13.8915 6H5V10ZM3 20C4.53671 20 5.93849 19.4223 7 18.4722C8.06151 19.4223 9.46329 20 11 20C12.5367 20 13.9385 19.4223 15 18.4722C16.0615 19.4223 17.4633 20 19 20H21V22H19C17.5429 22 16.1767 21.6104 15 20.9297C13.8233 21.6104 12.4571 22 11 22C9.54285 22 8.17669 21.6104 7 20.9297C5.82331 21.6104 4.45715 22 3 22H1V20H3Z"> </path> </symbol> <symbol viewBox="0 0 24 24" id="ri-train-line"> <path d="M17.2 20L19 21.5V22H5V21.5L6.8 20H5C3.89543 20 3 19.1046 3 18V7C3 4.79086 4.79086 3 7 3H17C19.2091 3 21 4.79086 21 7V18C21 19.1046 20.1046 20 19 20H17.2ZM7 5C5.89543 5 5 5.89543 5 7V18H19V7C19 5.89543 18.1046 5 17 5H7ZM12 17C10.8954 17 10 16.1046 10 15C10 13.8954 10.8954 13 12 13C13.1046 13 14 13.8954 14 15C14 16.1046 13.1046 17 12 17ZM6 7H18V11H6V7Z"> </path> </symbol> <symbol viewBox="0 0 24 24" id="ri-car-line"> <path d="M19 20H5V21C5 21.5523 4.55228 22 4 22H3C2.44772 22 2 21.5523 2 21V11L4.4805 5.21216C4.79566 4.47679 5.51874 4 6.31879 4H17.6812C18.4813 4 19.2043 4.47679 19.5195 5.21216L22 11V21C22 21.5523 21.5523 22 21 22H20C19.4477 22 19 21.5523 19 21V20ZM20 13H4V18H20V13ZM4.17594 11H19.8241L17.6812 6H6.31879L4.17594 11ZM6.5 17C5.67157 17 5 16.3284 5 15.5C5 14.6716 5.67157 14 6.5 14C7.32843 14 8 14.6716 8 15.5C8 16.3284 7.32843 17 6.5 17ZM17.5 17C16.6716 17 16 16.3284 16 15.5C16 14.6716 16.6716 14 17.5 14C18.3284 14 19 14.6716 19 15.5C19 16.3284 18.3284 17 17.5 17Z"> </path> </symbol> <symbol viewBox="0 0 24 24" id="ri-home-3-line"> <path d="M19 21.0001H5C4.44772 21.0001 4 20.5524 4 20.0001V11.0001L1 11.0001L11.3273 1.61162C11.7087 1.26488 12.2913 1.26488 12.6727 1.61162L23 11.0001L20 11.0001V20.0001C20 20.5524 19.5523 21.0001 19 21.0001ZM6 19.0001H18V9.15757L12 3.70302L6 9.15757V19.0001ZM8 15.0001H16V17.0001H8V15.0001Z"> </path> </symbol> <symbol viewBox="0 0 24 24" id="ri-home-3-fill"> <path d="M20 20.0001C20 20.5524 19.5523 21.0001 19 21.0001H5C4.44772 21.0001 4 20.5524 4 20.0001V11.0001L1 11.0001L11.3273 1.61162C11.7087 1.26488 12.2913 1.26488 12.6727 1.61162L23 11.0001L20 11.0001V20.0001ZM8 15.0001V17.0001H16V15.0001H8Z"> </path> </symbol> <symbol viewBox="0 0 24 24" id="ri-compass-3-line"> <path d="M12 22C6.47715 22 2 17.5228 2 12C2 6.47715 6.47715 2 12 2C17.5228 2 22 6.47715 22 12C22 17.5228 17.5228 22 12 22ZM12 20C16.4183 20 20 16.4183 20 12C20 7.58172 16.4183 4 12 4C7.58172 4 4 7.58172 4 12C4 16.4183 7.58172 20 12 20ZM16.5 7.5L14 14L7.5 16.5L10 10L16.5 7.5ZM12 13C12.5523 13 13 12.5523 13 12C13 11.4477 12.5523 11 12 11C11.4477 11 11 11.4477 11 12C11 12.5523 11.4477 13 12 13Z"> </path> </symbol> <symbol viewBox="0 0 24 24" id="ri-compass-3-fill"> <path d="M12 22C6.47715 22 2 17.5228 2 12C2 6.47715 6.47715 2 12 2C17.5228 2 22 6.47715 22 12C22 17.5228 17.5228 22 12 22ZM16.5 7.5L10 10L7.5 16.5L14 14L16.5 7.5ZM12 13C11.4477 13 11 12.5523 11 12C11 11.4477 11.4477 11 12 11C12.5523 11 13 11.4477 13 12C13 12.5523 12.5523 13 12 13Z"> </path> </symbol> <symbol viewBox="0 0 24 24" id="ri-discuss-line"> <path d="M14 22.5L11.2 19H6C5.44772 19 5 18.5523 5 18V7.10256C5 6.55028 5.44772 6.10256 6 6.10256H22C22.5523 6.10256 23 6.55028 23 7.10256V18C23 18.5523 22.5523 19 22 19H16.8L14 22.5ZM15.8387 17H21V8.10256H7V17H11.2H12.1613L14 19.2984L15.8387 17ZM2 2H19V4H3V15H1V3C1 2.44772 1.44772 2 2 2Z"> </path> </symbol> <symbol viewBox="0 0 24 24" id="ri-discuss-fill"> <path d="M16.8 19L14 22.5L11.2 19H6C5.44772 19 5 18.5523 5 18V7.10256C5 6.55028 5.44772 6.10256 6 6.10256H22C22.5523 6.10256 23 6.55028 23 7.10256V18C23 18.5523 22.5523 19 22 19H16.8ZM2 2H19V4H3V15H1V3C1 2.44772 1.44772 2 2 2Z"> </path> </symbol> <symbol viewBox="0 0 24 24" id="ri-account-circle-line"> <path d="M12 2C17.5228 2 22 6.47715 22 12C22 17.5228 17.5228 22 12 22C6.47715 22 2 17.5228 2 12C2 6.47715 6.47715 2 12 2ZM12.1597 16C10.1243 16 8.29182 16.8687 7.01276 18.2556C8.38039 19.3474 10.114 20 12 20C13.9695 20 15.7727 19.2883 17.1666 18.1081C15.8956 16.8074 14.1219 16 12.1597 16ZM12 4C7.58172 4 4 7.58172 4 12C4 13.8106 4.6015 15.4807 5.61557 16.8214C7.25639 15.0841 9.58144 14 12.1597 14C14.6441 14 16.8933 15.0066 18.5218 16.6342C19.4526 15.3267 20 13.7273 20 12C20 7.58172 16.4183 4 12 4ZM12 5C14.2091 5 16 6.79086 16 9C16 11.2091 14.2091 13 12 13C9.79086 13 8 11.2091 8 9C8 6.79086 9.79086 5 12 5ZM12 7C10.8954 7 10 7.89543 10 9C10 10.1046 10.8954 11 12 11C13.1046 11 14 10.1046 14 9C14 7.89543 13.1046 7 12 7Z"> </path> </symbol> <symbol viewBox="0 0 24 24" id="ri-account-circle-fill"> <path d="M12 2C17.52 2 22 6.48 22 12C22 17.52 17.52 22 12 22C6.48 22 2 17.52 2 12C2 6.48 6.48 2 12 2ZM6.02332 15.4163C7.49083 17.6069 9.69511 19 12.1597 19C14.6243 19 16.8286 17.6069 18.2961 15.4163C16.6885 13.9172 14.5312 13 12.1597 13C9.78821 13 7.63095 13.9172 6.02332 15.4163ZM12 11C13.6569 11 15 9.65685 15 8C15 6.34315 13.6569 5 12 5C10.3431 5 9 6.34315 9 8C9 9.65685 10.3431 11 12 11Z"> </path> </symbol> <symbol viewBox="0 0 24 24" id="ri-money-cny-circle-line"> <path d="M12.0049 22.0029C6.48204 22.0029 2.00488 17.5258 2.00488 12.0029C2.00488 6.48008 6.48204 2.00293 12.0049 2.00293C17.5277 2.00293 22.0049 6.48008 22.0049 12.0029C22.0049 17.5258 17.5277 22.0029 12.0049 22.0029ZM12.0049 20.0029C16.4232 20.0029 20.0049 16.4212 20.0049 12.0029C20.0049 7.58465 16.4232 4.00293 12.0049 4.00293C7.5866 4.00293 4.00488 7.58465 4.00488 12.0029C4.00488 16.4212 7.5866 20.0029 12.0049 20.0029ZM13.0049 13.0029H16.0049V15.0029H13.0049V17.0029H11.0049V15.0029H8.00488V13.0029H11.0049V12.0029H8.00488V10.0029H10.5907L8.46935 7.88161L9.88356 6.4674L12.0049 8.58872L14.1262 6.4674L15.5404 7.88161L13.4191 10.0029H16.0049V12.0029H13.0049V13.0029Z"> </path> </symbol> <symbol viewBox="0 0 24 24" id="ri-fingerprint-line"> <path d="M17.0003 13V14C17.0003 16.7696 16.3364 19.445 15.0853 21.8455L14.8585 22.2663L13.1116 21.2924C14.2716 19.2115 14.9211 16.8817 14.9935 14.4559L15.0003 14V13H17.0003ZM11.0003 10H13.0003V14L12.9948 14.3787C12.9153 17.1495 11.9645 19.7731 10.3038 21.928L10.073 22.2189L8.52406 20.9536C10.0408 19.0969 10.9145 16.8017 10.9943 14.3663L11.0003 14V10ZM12.0003 6C14.7617 6 17.0003 8.23858 17.0003 11H15.0003C15.0003 9.34315 13.6571 8 12.0003 8C10.3434 8 9.00025 9.34315 9.00025 11V14C9.00025 16.2354 8.1806 18.3444 6.72928 19.9768L6.51767 20.2067L5.06955 18.8273C6.23328 17.6056 6.92099 16.0118 6.99381 14.3027L7.00025 14V11C7.00025 8.23858 9.23883 6 12.0003 6ZM12.0003 2C16.9708 2 21.0003 6.02944 21.0003 11V14C21.0003 15.6979 20.7985 17.3699 20.4035 18.9903L20.2647 19.5285L18.3349 19.0032C18.726 17.5662 18.9475 16.0808 18.9919 14.5684L19.0003 14V11C19.0003 7.13401 15.8662 4 12.0003 4C10.4279 4 8.97663 4.51841 7.80805 5.39364L6.38308 3.96769C7.92267 2.73631 9.87547 2 12.0003 2ZM4.96794 5.38282L6.39389 6.8078C5.5635 7.91652 5.0543 9.27971 5.00431 10.7593L4.99961 10.999L5.00378 13C5.00378 14.1195 4.73991 15.2026 4.24263 16.1772L4.08648 16.4663L2.34961 15.4747C2.72889 14.8103 2.95077 14.0681 2.99539 13.2924L3.00378 13L3.00361 11C3.00025 8.87522 3.73656 6.92242 4.96794 5.38282Z"> </path> </symbol> <symbol viewBox="0 0 24 24" id="ri-hotel-bed-line"> <path d="M22 11V20H20V17H4V20H2V4H4V14H12V7H18C20.2091 7 22 8.79086 22 11ZM20 14V11C20 9.89543 19.1046 9 18 9H14V14H20ZM8 11C8.55228 11 9 10.5523 9 10C9 9.44772 8.55228 9 8 9C7.44772 9 7 9.44772 7 10C7 10.5523 7.44772 11 8 11ZM8 13C6.34315 13 5 11.6569 5 10C5 8.34315 6.34315 7 8 7C9.65685 7 11 8.34315 11 10C11 11.6569 9.65685 13 8 13Z"> </path> </symbol> <symbol viewBox="0 0 24 24" id="ri-restaurant-2-line"> <path d="M14.2683 12.1466L13.4147 13.0002L20.4858 20.0712L19.0716 21.4854L12.0005 14.4144L4.92946 21.4854L3.51525 20.0712L12.854 10.7324C12.2664 9.27549 12.8738 7.17715 14.4754 5.57554C16.428 3.62292 19.119 3.14805 20.4858 4.51488C21.8526 5.88172 21.3778 8.57267 19.4251 10.5253C17.8235 12.1269 15.7252 12.7343 14.2683 12.1466ZM4.22235 3.80777L10.9399 10.5253L8.11144 13.3537L4.22235 9.46463C2.66026 7.90253 2.66026 5.36987 4.22235 3.80777ZM18.0109 9.11107C19.2682 7.85386 19.5274 6.38488 19.0716 5.92909C18.6158 5.47331 17.1468 5.73254 15.8896 6.98975C14.6324 8.24697 14.3732 9.71595 14.829 10.1717C15.2847 10.6275 16.7537 10.3683 18.0109 9.11107Z"> </path> </symbol> <symbol viewBox="0 0 24 24" id="ri-cup-line"> <path d="M16 13V5H6V13C6 14.1046 6.89543 15 8 15H14C15.1046 15 16 14.1046 16 13ZM5 3H20C21.1046 3 22 3.89543 22 5V8C22 9.10457 21.1046 10 20 10H18V13C18 15.2091 16.2091 17 14 17H8C5.79086 17 4 15.2091 4 13V4C4 3.44772 4.44772 3 5 3ZM18 5V8H20V5H18ZM2 19H20V21H2V19Z"> </path> </symbol> <symbol viewBox="0 0 24 24" id="ri-emotion-sad-line"> <path d="M12 2C17.5228 2 22 6.47715 22 12C22 12.7266 21.9225 13.4351 21.7753 14.1177L19.9931 12.3355C19.9977 12.2242 20 12.1124 20 12C20 7.58172 16.4183 4 12 4C7.58172 4 4 7.58172 4 12C4 16.4183 7.58172 20 12 20C13.3023 20 14.5319 19.6888 15.6186 19.1368C15.7735 19.3828 15.958 19.6149 16.1716 19.8284C16.4739 20.1307 16.8125 20.3745 17.1734 20.5598C15.6642 21.4737 13.8936 22 12 22C6.47715 22 2 17.5228 2 12C2 6.47715 6.47715 2 12 2ZM19 14.1716L20.4142 15.5858C21.1953 16.3668 21.1953 17.6332 20.4142 18.4142C19.6332 19.1953 18.3668 19.1953 17.5858 18.4142C16.8402 17.6687 16.8064 16.481 17.4841 15.6952L17.5858 15.5858L19 14.1716ZM12 15C13.4664 15 14.7853 15.6312 15.6999 16.6368L14.7549 17.4961C13.965 17.1825 13.018 17 12 17C10.982 17 10.035 17.1825 9.24506 17.4961L8.30009 16.6368C9.21468 15.6312 10.5336 15 12 15ZM8.5 10C9.32843 10 10 10.6716 10 11.5C10 12.3284 9.32843 13 8.5 13C7.67157 13 7 12.3284 7 11.5C7 10.6716 7.67157 10 8.5 10ZM15.5 10C16.3284 10 17 10.6716 17 11.5C17 12.3284 16.3284 13 15.5 13C14.6716 13 14 12.3284 14 11.5C14 10.6716 14.6716 10 15.5 10Z"> </path> </symbol> <symbol viewBox="0 0 24 24" id="ri-zzz-line"> <path d="M11 11V13L5.67257 19H11V21H3V19L8.32557 13H3V11H11ZM21 3V5L15.6726 11H21V13H13V11L18.3256 5H13V3H21Z"> </path> </symbol> <symbol viewBox="0 0 24 24" id="ri-hotel-bed-fill"> <path d="M22 11V20H20V17H4V20H2V4H4V14H12V7H18C20.2091 7 22 8.79086 22 11ZM8 13C6.34315 13 5 11.6569 5 10C5 8.34315 6.34315 7 8 7C9.65685 7 11 8.34315 11 10C11 11.6569 9.65685 13 8 13Z"> </path> </symbol> <symbol viewBox="0 0 24 24" id="ri-restaurant-2-fill"> <path d="M4.22235 3.80777L10.9399 10.5253L8.11144 13.3537L4.22235 9.46463C2.66026 7.90253 2.66026 5.36987 4.22235 3.80777ZM14.2683 12.1466L13.4147 13.0002L20.4858 20.0712L19.0716 21.4854L12.0005 14.4144L4.92946 21.4854L3.51525 20.0712L12.854 10.7324C12.2664 9.27549 12.8738 7.17715 14.4754 5.57554C16.428 3.62292 19.119 3.14805 20.4858 4.51488C21.8526 5.88172 21.3778 8.57267 19.4251 10.5253C17.8235 12.1269 15.7252 12.7343 14.2683 12.1466Z"> </path> </symbol> <symbol viewBox="0 0 24 24" id="ri-cup-fill"> <path d="M5 3H20C21.1046 3 22 3.89543 22 5V8C22 9.10457 21.1046 10 20 10H18V13C18 15.2091 16.2091 17 14 17H8C5.79086 17 4 15.2091 4 13V4C4 3.44772 4.44772 3 5 3ZM18 5V8H20V5H18ZM2 19H20V21H2V19Z"> </path> </symbol> <symbol viewBox="0 0 24 24" id="ri-emotion-sad-fill"> <path d="M12 2C17.5228 2 22 6.47715 22 12C22 13.6169 21.6162 15.1442 20.9348 16.4958C20.8633 16.2175 20.7307 15.9523 20.5374 15.7206L20.4142 15.5858L19 14.1716L17.5858 15.5858L17.469 15.713C16.8069 16.4988 16.8458 17.6743 17.5858 18.4142C18.014 18.8424 18.588 19.0358 19.148 18.9946C17.3323 20.8487 14.8006 22 12 22C6.47715 22 2 17.5228 2 12C2 6.47715 6.47715 2 12 2ZM12 15C10.6199 15 9.37036 15.5592 8.46564 16.4633L8.30009 16.6368L9.24506 17.4961C10.035 17.1825 10.982 17 12 17C12.9049 17 13.7537 17.1442 14.4859 17.3965L14.7549 17.4961L15.6999 16.6368C14.7853 15.6312 13.4664 15 12 15ZM8.5 10C7.67157 10 7 10.6716 7 11.5C7 12.3284 7.67157 13 8.5 13C9.32843 13 10 12.3284 10 11.5C10 10.6716 9.32843 10 8.5 10ZM15.5 10C14.6716 10 14 10.6716 14 11.5C14 12.3284 14.6716 13 15.5 13C16.3284 13 17 12.3284 17 11.5C17 10.6716 16.3284 10 15.5 10Z"> </path> </symbol> <symbol viewBox="0 0 24 24" id="ri-zzz-fill"> <path d="M11 11V13L5.67257 19H11V21H3V19L8.32557 13H3V11H11ZM21 3V5L15.6726 11H21V13H13V11L18.3256 5H13V3H21Z"> </path> </symbol> <symbol viewBox="0 0 24 24" id="ri-checkbox-circle-line"> <path d="M12 22C6.47715 22 2 17.5228 2 12C2 6.47715 6.47715 2 12 2C17.5228 2 22 6.47715 22 12C22 17.5228 17.5228 22 12 22ZM12 20C16.4183 20 20 16.4183 20 12C20 7.58172 16.4183 4 12 4C7.58172 4 4 7.58172 4 12C4 16.4183 7.58172 20 12 20ZM11.0026 16L6.75999 11.7574L8.17421 10.3431L11.0026 13.1716L16.6595 7.51472L18.0737 8.92893L11.0026 16Z"> </path> </symbol> <symbol viewBox="0 0 24 24" id="ri-checkbox-circle-fill"> <path d="M12 22C6.47715 22 2 17.5228 2 12C2 6.47715 6.47715 2 12 2C17.5228 2 22 6.47715 22 12C22 17.5228 17.5228 22 12 22ZM11.0026 16L18.0737 8.92893L16.6595 7.51472L11.0026 13.1716L8.17421 10.3431L6.75999 11.7574L11.0026 16Z"> </path> </symbol> <symbol viewBox="0 0 24 24" id="ri-checkbox-line"> <path d="M4 3H20C20.5523 3 21 3.44772 21 4V20C21 20.5523 20.5523 21 20 21H4C3.44772 21 3 20.5523 3 20V4C3 3.44772 3.44772 3 4 3ZM5 5V19H19V5H5ZM11.0026 16L6.75999 11.7574L8.17421 10.3431L11.0026 13.1716L16.6595 7.51472L18.0737 8.92893L11.0026 16Z"> </path> </symbol> <symbol viewBox="0 0 24 24" id="ri-checkbox-fill"> <path d="M4 3H20C20.5523 3 21 3.44772 21 4V20C21 20.5523 20.5523 21 20 21H4C3.44772 21 3 20.5523 3 20V4C3 3.44772 3.44772 3 4 3ZM11.0026 16L18.0737 8.92893L16.6595 7.51472L11.0026 13.1716L8.17421 10.3431L6.75999 11.7574L11.0026 16Z"> </path> </symbol> <symbol viewBox="0 0 24 24" id="ri-checkbox-multiple-line"> <path d="M6.99979 7V3C6.99979 2.44772 7.4475 2 7.99979 2H20.9998C21.5521 2 21.9998 2.44772 21.9998 3V16C21.9998 16.5523 21.5521 17 20.9998 17H17V20.9925C17 21.5489 16.551 22 15.9925 22H3.00728C2.45086 22 2 21.5511 2 20.9925L2.00276 8.00748C2.00288 7.45107 2.4518 7 3.01025 7H6.99979ZM8.99979 7H15.9927C16.549 7 17 7.44892 17 8.00748V15H19.9998V4H8.99979V7ZM15 9H4.00255L4.00021 20H15V9ZM8.50242 18L4.96689 14.4645L6.3811 13.0503L8.50242 15.1716L12.7451 10.9289L14.1593 12.3431L8.50242 18Z"> </path> </symbol> <symbol viewBox="0 0 24 24" id="ri-checkbox-multiple-fill"> <path d="M6.99979 7V3C6.99979 2.44772 7.4475 2 7.99979 2H20.9998C21.5521 2 21.9998 2.44772 21.9998 3V16C21.9998 16.5523 21.5521 17 20.9998 17H17V20.9925C17 21.5489 16.551 22 15.9925 22H3.00728C2.45086 22 2 21.5511 2 20.9925L2.00276 8.00748C2.00288 7.45107 2.4518 7 3.01025 7H6.99979ZM8.99979 7H15.9927C16.549 7 17 7.44892 17 8.00748V15H19.9998V4H8.99979V7ZM8.50242 18L14.1593 12.3431L12.7451 10.9289L8.50242 15.1716L6.3811 13.0503L4.96689 14.4645L8.50242 18Z"> </path> </symbol> <symbol viewBox="0 0 24 24" id="ri-check-line"> <path d="M10.0007 15.1709L19.1931 5.97852L20.6073 7.39273L10.0007 17.9993L3.63672 11.6354L5.05093 10.2212L10.0007 15.1709Z"> </path> </symbol> <symbol viewBox="0 0 24 24" id="ri-check-fill"> <path d="M10.0007 15.1709L19.1931 5.97852L20.6073 7.39273L10.0007 17.9993L3.63672 11.6354L5.05093 10.2212L10.0007 15.1709Z"> </path> </symbol> <symbol viewBox="0 0 24 24" id="ri-arrow-up-s-line"> <path d="M11.9997 10.8284L7.04996 15.7782L5.63574 14.364L11.9997 8L18.3637 14.364L16.9495 15.7782L11.9997 10.8284Z"> </path> </symbol> <symbol viewBox="0 0 24 24" id="ri-arrow-up-s-fill"> <path d="M12 8L18 14H6L12 8Z"></path> </symbol> <symbol viewBox="0 0 24 24" id="ri-radio-button-fill"> <path d="M12 22C6.47715 22 2 17.5228 2 12C2 6.47715 6.47715 2 12 2C17.5228 2 22 6.47715 22 12C22 17.5228 17.5228 22 12 22ZM12 16C14.2091 16 16 14.2091 16 12C16 9.79086 14.2091 8 12 8C9.79086 8 8 9.79086 8 12C8 14.2091 9.79086 16 12 16Z"> </path> </symbol> <symbol viewBox="0 0 24 24" id="ri-close-fill"> <path d="M12.0007 10.5865L16.9504 5.63672L18.3646 7.05093L13.4149 12.0007L18.3646 16.9504L16.9504 18.3646L12.0007 13.4149L7.05093 18.3646L5.63672 16.9504L10.5865 12.0007L5.63672 7.05093L7.05093 5.63672L12.0007 10.5865Z"> </path> </symbol> <symbol viewBox="0 0 24 24" id="ri-lock-line"> <path d="M19 10H20C20.5523 10 21 10.4477 21 11V21C21 21.5523 20.5523 22 20 22H4C3.44772 22 3 21.5523 3 21V11C3 10.4477 3.44772 10 4 10H5V9C5 5.13401 8.13401 2 12 2C15.866 2 19 5.13401 19 9V10ZM5 12V20H19V12H5ZM11 14H13V18H11V14ZM17 10V9C17 6.23858 14.7614 4 12 4C9.23858 4 7 6.23858 7 9V10H17Z"> </path> </symbol> <symbol viewBox="0 0 24 24" id="ri-qr-scan-line"> <path d="M21 16V21H3V16H5V19H19V16H21ZM3 11H21V13H3V11ZM21 8H19V5H5V8H3V3H21V8Z"></path> </symbol> <symbol viewBox="0 0 24 24" id="ri-paint-brush-fill"> <path d="M4 2.99658H20C20.5523 2.99658 21 3.4443 21 3.99658V8.99658C21 9.54887 20.5523 9.99658 20 9.99658H4C3.44772 9.99658 3 9.54887 3 8.99658V3.99658C3 3.4443 3.44772 2.99658 4 2.99658ZM6 11.9966H12C12.5523 11.9966 13 12.4443 13 12.9966V15.9966H14V21.9966H10V15.9966H11V13.9966H5C4.44772 13.9966 4 13.5489 4 12.9966V10.9966H6V11.9966ZM17.7322 13.7288L19.5 11.961L21.2678 13.7288C22.2441 14.7051 22.2441 16.288 21.2678 17.2643C20.2915 18.2407 18.7085 18.2407 17.7322 17.2643C16.7559 16.288 16.7559 14.7051 17.7322 13.7288Z"> </path> </symbol> <symbol viewBox="0 0 24 24" id="ri-ubuntu-fill"> <path d="M22.001 12C22.001 17.5224 17.524 22 12.001 22C6.47798 22 2.00098 17.5224 2.00098 12C2.00098 6.4771 6.47833 2 12.001 2C17.524 2 22.001 6.4771 22.001 12ZM5.20128 10.6642C4.46363 10.6642 3.86613 11.2623 3.86613 12C3.86613 12.7372 4.46363 13.3349 5.20128 13.3349C5.93848 13.3349 6.53628 12.7372 6.53628 12C6.53628 11.2622 5.93848 10.6642 5.20128 10.6642ZM14.7337 16.7325C14.0954 17.1015 13.8763 17.9175 14.2454 18.5558C14.6137 19.1942 15.4296 19.4137 16.0682 19.0448C16.7067 18.6759 16.9257 17.8595 16.5571 17.2208C16.1884 16.5832 15.3721 16.3644 14.7337 16.7325V16.7325ZM8.10133 12C8.10133 10.6808 8.75663 9.5152 9.75958 8.80915L8.78348 7.174C7.61518 7.955 6.74598 9.1485 6.38498 10.545C6.80648 10.8895 7.07613 11.4131 7.07613 12C7.07613 12.586 6.80643 13.1097 6.38493 13.4543C6.74583 14.8516 7.61503 16.0448 8.78343 16.826L9.75953 15.1903C8.75653 14.4848 8.10128 13.32 8.10128 12L8.10133 12ZM12.001 8.09975C14.0385 8.09975 15.7098 9.66175 15.8853 11.654L17.788 11.6261C17.6942 10.1551 17.0518 8.83495 16.0645 7.86435C15.5568 8.05565 14.9705 8.02685 14.4637 7.7342C13.9559 7.4412 13.6376 6.9472 13.5506 6.4104C13.0571 6.27455 12.538 6.2005 12.001 6.2005C11.0782 6.2005 10.2053 6.41685 9.43058 6.80035L10.3582 8.46275C10.8577 8.23045 11.4141 8.09975 12.001 8.09975ZM12.001 15.8995C11.4141 15.8995 10.8576 15.7691 10.3585 15.537L9.43063 17.1991C10.2055 17.5831 11.0782 17.8004 12.001 17.8004C12.538 17.8004 13.0575 17.7255 13.5506 17.5888C13.6376 17.0526 13.9561 16.5586 14.4638 16.2652C14.971 15.9726 15.5569 15.9435 16.0646 16.1349C17.0519 15.1642 17.6942 13.8441 17.7881 12.3732L15.8846 12.3456C15.7099 14.338 14.0386 15.8996 12.0011 15.8996L12.001 15.8995ZM14.7334 7.26675C15.372 7.6349 16.1883 7.4169 16.5566 6.77845C16.9257 6.1396 16.7071 5.32395 16.0683 4.95505C15.4296 4.58605 14.6138 4.8048 14.2447 5.44345C13.8763 6.08195 14.0954 6.89795 14.7334 7.2667V7.26675Z"> </path> </symbol> <symbol viewBox="0 0 24 24" id="ri-command-fill"> <path d="M10 8H14V6.5C14 4.567 15.567 3 17.5 3C19.433 3 21 4.567 21 6.5C21 8.433 19.433 10 17.5 10H16V14H17.5C19.433 14 21 15.567 21 17.5C21 19.433 19.433 21 17.5 21C15.567 21 14 19.433 14 17.5V16H10V17.5C10 19.433 8.433 21 6.5 21C4.567 21 3 19.433 3 17.5C3 15.567 4.567 14 6.5 14H8V10H6.5C4.567 10 3 8.433 3 6.5C3 4.567 4.567 3 6.5 3C8.433 3 10 4.567 10 6.5V8ZM8 8V6.5C8 5.67157 7.32843 5 6.5 5C5.67157 5 5 5.67157 5 6.5C5 7.32843 5.67157 8 6.5 8H8ZM8 16H6.5C5.67157 16 5 16.6716 5 17.5C5 18.3284 5.67157 19 6.5 19C7.32843 19 8 18.3284 8 17.5V16ZM16 8H17.5C18.3284 8 19 7.32843 19 6.5C19 5.67157 18.3284 5 17.5 5C16.6716 5 16 5.67157 16 6.5V8ZM16 16V17.5C16 18.3284 16.6716 19 17.5 19C18.3284 19 19 18.3284 19 17.5C19 16.6716 18.3284 16 17.5 16H16ZM10 10V14H14V10H10Z"> </path> </symbol> <symbol viewBox="0 0 24 24" id="ri-windows-fill"> <path d="M3.00098 5.47902L10.3778 4.4625V11.5902H3.00098V5.47902ZM3.00098 18.521L10.3778 19.5375V12.4982H3.00098V18.521ZM11.1894 19.646L21.001 21V12.4982H11.1894V19.646ZM11.1894 4.35402V11.5902H21.001V3L11.1894 4.35402Z"> </path> </symbol> <symbol viewBox="0 0 24 24" id="ri-android-fill"> <path d="M6.38231 3.9681C7.92199 2.73647 9.87499 2 12 2C14.125 2 16.078 2.73647 17.6177 3.9681L19.0711 2.51472L20.4853 3.92893L19.0319 5.38231C20.2635 6.92199 21 8.87499 21 11V12H3V11C3 8.87499 3.73647 6.92199 4.9681 5.38231L3.51472 3.92893L4.92893 2.51472L6.38231 3.9681ZM3 14H21V21C21 21.5523 20.5523 22 20 22H4C3.44772 22 3 21.5523 3 21V14ZM9 9C9.55228 9 10 8.55228 10 8C10 7.44772 9.55228 7 9 7C8.44772 7 8 7.44772 8 8C8 8.55228 8.44772 9 9 9ZM15 9C15.5523 9 16 8.55228 16 8C16 7.44772 15.5523 7 15 7C14.4477 7 14 7.44772 14 8C14 8.55228 14.4477 9 15 9Z"> </path> </symbol> <symbol viewBox="0 0 24 24" id="ri-apple-fill"> <path d="M11.6734 7.2221C10.7974 7.2221 9.44138 6.2261 8.01338 6.2621C6.12938 6.2861 4.40138 7.3541 3.42938 9.0461C1.47338 12.4421 2.92538 17.4581 4.83338 20.2181C5.76938 21.5621 6.87338 23.0741 8.33738 23.0261C9.74138 22.9661 10.2694 22.1141 11.9734 22.1141C13.6654 22.1141 14.1454 23.0261 15.6334 22.9901C17.1454 22.9661 18.1054 21.6221 19.0294 20.2661C20.0974 18.7061 20.5414 17.1941 20.5654 17.1101C20.5294 17.0981 17.6254 15.9821 17.5894 12.6221C17.5654 9.8141 19.8814 8.4701 19.9894 8.4101C18.6694 6.4781 16.6414 6.2621 15.9334 6.2141C14.0854 6.0701 12.5374 7.2221 11.6734 7.2221ZM14.7934 4.3901C15.5734 3.4541 16.0894 2.1461 15.9454 0.850098C14.8294 0.898098 13.4854 1.5941 12.6814 2.5301C11.9614 3.3581 11.3374 4.6901 11.5054 5.9621C12.7414 6.0581 14.0134 5.3261 14.7934 4.3901Z"> </path> </symbol> <symbol viewBox="0 0 24 24" id="ri-bluetooth-line"> <path d="M14.3116 12L18.6548 16.3431L12.9979 22H10.9979V15.3137L6.63394 19.6777L5.21973 18.2635L10.9979 12.4853V11.5147L5.21973 5.73654L6.63394 4.32233L10.9979 8.68629V2H12.9979L18.6548 7.65685L14.3116 12ZM12.9979 13.5147V19.1716L15.8263 16.3431L12.9979 13.5147ZM12.9979 10.4853L15.8263 7.65685L12.9979 4.82843V10.4853Z"> </path> </symbol> <symbol viewBox="0 0 24 24" id="ri-bluetooth-connect-line"> <path d="M14.3113 12L18.6544 16.3431L12.9976 22H10.9976V15.3137L6.63359 19.6777L5.21938 18.2635L10.9976 12.4853V11.5147L5.21938 5.73654L6.63359 4.32233L10.9976 8.68629V2H12.9976L18.6544 7.65685L14.3113 12ZM12.9976 13.5147V19.1716L15.826 16.3431L12.9976 13.5147ZM12.9976 10.4853L15.826 7.65685L12.9976 4.82843V10.4853ZM19.5 13.5C18.6716 13.5 18 12.8284 18 12C18 11.1716 18.6716 10.5 19.5 10.5C20.3284 10.5 21 11.1716 21 12C21 12.8284 20.3284 13.5 19.5 13.5ZM6.5 13.5C5.67157 13.5 5 12.8284 5 12C5 11.1716 5.67157 10.5 6.5 10.5C7.32843 10.5 8 11.1716 8 12C8 12.8284 7.32843 13.5 6.5 13.5Z"> </path> </symbol> <symbol viewBox="0 0 24 24" id="ri-battery-2-charge-line"> <path d="M13 12H16L11 19V14H8L13 7V12ZM11 6H7V20H17V6H13V4H11V6ZM9 4V3C9 2.44772 9.44772 2 10 2H14C14.5523 2 15 2.44772 15 3V4H18C18.5523 4 19 4.44772 19 5V21C19 21.5523 18.5523 22 18 22H6C5.44772 22 5 21.5523 5 21V5C5 4.44772 5.44772 4 6 4H9Z"> </path> </symbol> <symbol viewBox="0 0 24 24" id="ri-ubuntu-line"> <path d="M8.66784 19.2731L9.67371 17.5309C12.4214 18.6911 15.6673 17.6497 17.1971 15C17.6099 14.2851 17.8588 13.5206 17.9555 12.75H19.9677C19.8637 13.8618 19.5241 14.9695 18.9292 16C18.5267 16.6971 18.035 17.3108 17.477 17.8349C16.8385 17.6413 16.1244 17.7022 15.501 18.0621C14.8783 18.4216 14.4688 19.0086 14.3168 19.6575C12.4998 20.2066 10.4923 20.1118 8.66784 19.2731ZM7.3688 18.5231C5.73024 17.3624 4.64445 15.6713 4.21148 13.8232C4.69743 13.3671 5.00098 12.719 5.00098 12C5.00098 11.2801 4.69669 10.6312 4.20973 10.1751C4.38459 9.42975 4.67025 8.69715 5.07277 7.99995C5.66768 6.96954 6.4572 6.12154 7.3681 5.47557L8.3742 7.2182C7.75517 7.68729 7.21755 8.28509 6.80482 8.99995C5.27497 11.6497 5.996 14.9814 8.37467 16.7809L7.3688 18.5231ZM8.66779 4.72671C10.4122 3.92909 12.4225 3.76619 14.3163 4.34045C14.4679 4.99011 14.8776 5.57789 15.501 5.93778C16.1243 6.29766 16.8382 6.3586 17.4766 6.16508C18.9209 7.51805 19.785 9.34047 19.9664 11.25H17.9542C17.7265 9.45286 16.6908 7.77941 15.001 6.8038C13.3112 5.82819 11.3441 5.76797 9.67386 6.46927L8.66779 4.72671ZM16.001 5.07175C15.2835 4.65754 15.0377 3.74015 15.4519 3.02271C15.8662 2.30527 16.7835 2.05946 17.501 2.47367C18.2184 2.88789 18.4642 3.80527 18.05 4.52271C17.6358 5.24015 16.7184 5.48596 16.001 5.07175ZM4.00098 12C4.00098 12.8284 3.3294 13.5 2.50098 13.5C1.67255 13.5 1.00098 12.8284 1.00098 12C1.00098 11.1715 1.67255 10.5 2.50098 10.5C3.3294 10.5 4.00098 11.1715 4.00098 12ZM16.001 18.9282C16.7184 18.5139 17.6358 18.7598 18.05 19.4772C18.4642 20.1946 18.2184 21.112 17.501 21.5262C16.7835 21.9404 15.8662 21.6946 15.4519 20.9772C15.0377 20.2598 15.2835 19.3424 16.001 18.9282Z"> </path> </symbol> <symbol viewBox="0 0 24 24" id="ri-macbook-fill"> <path d="M2 4.00685C2 3.45078 2.45531 3 2.9918 3H21.0082C21.556 3 22 3.44995 22 4.00685V17H2V4.00685ZM1 19H23V21H1V19Z"> </path> </symbol> <symbol viewBox="0 0 24 24" id="ri-computer-line"> <path d="M4 16H20V5H4V16ZM13 18V20H17V22H7V20H11V18H2.9918C2.44405 18 2 17.5511 2 16.9925V4.00748C2 3.45107 2.45531 3 2.9918 3H21.0082C21.556 3 22 3.44892 22 4.00748V16.9925C22 17.5489 21.5447 18 21.0082 18H13Z"> </path> </symbol> <symbol viewBox="0 0 24 24" id="ri-tablet-line"> <path d="M6 4V20H18V4H6ZM5 2H19C19.5523 2 20 2.44772 20 3V21C20 21.5523 19.5523 22 19 22H5C4.44772 22 4 21.5523 4 21V3C4 2.44772 4.44772 2 5 2ZM12 17C12.5523 17 13 17.4477 13 18C13 18.5523 12.5523 19 12 19C11.4477 19 11 18.5523 11 18C11 17.4477 11.4477 17 12 17Z"> </path> </symbol> <symbol viewBox="0 0 24 24" id="ri-smartphone-line"> <path d="M7 4V20H17V4H7ZM6 2H18C18.5523 2 19 2.44772 19 3V21C19 21.5523 18.5523 22 18 22H6C5.44772 22 5 21.5523 5 21V3C5 2.44772 5.44772 2 6 2ZM12 17C12.5523 17 13 17.4477 13 18C13 18.5523 12.5523 19 12 19C11.4477 19 11 18.5523 11 18C11 17.4477 11.4477 17 12 17Z"> </path> </symbol> <symbol viewBox="0 0 24 24" id="ri-wifi-off-line"> <path d="M12.0001 18.0002C12.7144 18.0002 13.3704 18.2498 13.8856 18.6666L12.0001 21.0002L10.1145 18.6666C10.6297 18.2498 11.2857 18.0002 12.0001 18.0002ZM2.80766 1.39355L20.4853 19.0712L19.0711 20.4854L13.8913 15.3043C13.2967 15.107 12.6609 15.0002 12.0001 15.0002C10.5719 15.0002 9.26024 15.4991 8.22998 16.3323L6.97363 14.7761C8.24961 13.7443 9.84925 13.097 11.5964 13.0102L9.00025 10.4142C7.55273 10.8235 6.22651 11.5218 5.0878 12.4428L3.83099 10.8869C4.89946 10.0228 6.10763 9.3245 7.41633 8.8313L5.13168 6.54522C3.98878 7.08925 2.92058 7.76484 1.94666 8.5524L0.689453 6.99686C1.60358 6.25759 2.59156 5.60601 3.64058 5.05491L1.39345 2.80777L2.80766 1.39355ZM14.5004 10.2856L12.2165 8.00255L12 8.00012C15.0947 8.00012 17.9369 9.08154 20.1693 10.887L18.9123 12.4428C17.6438 11.4169 16.1427 10.6673 14.5004 10.2856ZM12.0001 3.00016C16.2849 3.00016 20.22 4.49731 23.3109 6.99703L22.0534 8.5524C19.3061 6.33074 15.8085 5.00016 12.0001 5.00016C11.122 5.00016 10.2604 5.07089 9.42075 5.20697L7.72455 3.511C9.09498 3.17714 10.5268 3.00016 12.0001 3.00016Z"> </path> </symbol> <symbol viewBox="0 0 24 24" id="ri-wifi-line"> <path d="M0.689453 6.99659C3.78027 4.49704 7.71526 3 11.9999 3C16.2845 3 20.2195 4.49704 23.3104 6.99659L22.0536 8.55252C19.3062 6.3307 15.8085 5 11.9999 5C8.19133 5 4.69356 6.3307 1.94617 8.55252L0.689453 6.99659ZM3.83124 10.8864C6.0635 9.08119 8.90544 8 11.9999 8C15.0944 8 17.9363 9.08119 20.1686 10.8864L18.9118 12.4424C17.023 10.9149 14.6183 10 11.9999 10C9.38151 10 6.97679 10.9149 5.08796 12.4424L3.83124 10.8864ZM6.97304 14.7763C8.34673 13.6653 10.0956 13 11.9999 13C13.9042 13 15.6531 13.6653 17.0268 14.7763L15.7701 16.3322C14.7398 15.499 13.4281 15 11.9999 15C10.5717 15 9.26002 15.499 8.22975 16.3322L6.97304 14.7763ZM10.1148 18.6661C10.63 18.2495 11.2858 18 11.9999 18C12.714 18 13.3698 18.2495 13.885 18.6661L11.9999 21L10.1148 18.6661Z"> </path> </symbol> <symbol viewBox="0 0 24 24" id="ri-heart-3-fill"> <path d="M16.5 3C19.5376 3 22 5.5 22 9C22 16 14.5 20 12 21.5C9.5 20 2 16 2 9C2 5.5 4.5 3 7.5 3C9.35997 3 11 4 12 5C13 4 14.64 3 16.5 3Z"> </path> </symbol> <symbol viewBox="0 0 24 24" id="ri-volume-mute-line"> <path d="M10 7.22056L6.60282 10.0001H3V14.0001H6.60282L10 16.7796V7.22056ZM5.88889 16.0001H2C1.44772 16.0001 1 15.5524 1 15.0001V9.00007C1 8.44778 1.44772 8.00007 2 8.00007H5.88889L11.1834 3.66821C11.3971 3.49335 11.7121 3.52485 11.887 3.73857C11.9601 3.8279 12 3.93977 12 4.05519V19.9449C12 20.2211 11.7761 20.4449 11.5 20.4449C11.3846 20.4449 11.2727 20.405 11.1834 20.3319L5.88889 16.0001ZM20.4142 12.0001L23.9497 15.5356L22.5355 16.9498L19 13.4143L15.4645 16.9498L14.0503 15.5356L17.5858 12.0001L14.0503 8.46454L15.4645 7.05032L19 10.5859L22.5355 7.05032L23.9497 8.46454L20.4142 12.0001Z"> </path> </symbol> <symbol viewBox="0 0 24 24" id="ri-volume-up-line"> <path d="M6.60282 10.0001L10 7.22056V16.7796L6.60282 14.0001H3V10.0001H6.60282ZM2 16.0001H5.88889L11.1834 20.3319C11.2727 20.405 11.3846 20.4449 11.5 20.4449C11.7761 20.4449 12 20.2211 12 19.9449V4.05519C12 3.93977 11.9601 3.8279 11.887 3.73857C11.7121 3.52485 11.3971 3.49335 11.1834 3.66821L5.88889 8.00007H2C1.44772 8.00007 1 8.44778 1 9.00007V15.0001C1 15.5524 1.44772 16.0001 2 16.0001ZM23 12C23 15.292 21.5539 18.2463 19.2622 20.2622L17.8445 18.8444C19.7758 17.1937 21 14.7398 21 12C21 9.26016 19.7758 6.80629 17.8445 5.15557L19.2622 3.73779C21.5539 5.75368 23 8.70795 23 12ZM18 12C18 10.0883 17.106 8.38548 15.7133 7.28673L14.2842 8.71584C15.3213 9.43855 16 10.64 16 12C16 13.36 15.3213 14.5614 14.2842 15.2841L15.7133 16.7132C17.106 15.6145 18 13.9116 18 12Z"> </path> </symbol> <symbol viewBox="0 0 24 24" id="ri-medal-fill"> <path d="M12 7.00002C16.4183 7.00002 20 10.5817 20 15C20 19.4183 16.4183 23 12 23C7.58172 23 4 19.4183 4 15C4 10.5817 7.58172 7.00002 12 7.00002ZM12 10.5L10.6775 13.1797L7.72025 13.6094L9.86012 15.6953L9.35497 18.6406L12 17.25L14.645 18.6406L14.1399 15.6953L16.2798 13.6094L13.3225 13.1797L12 10.5ZM13 1.99902L18 2.00002V5.00002L16.6366 6.13758C15.5305 5.55773 14.3025 5.17887 13.0011 5.04951L13 1.99902ZM11 1.99902L10.9997 5.04943C9.6984 5.17866 8.47046 5.55738 7.36441 6.13706L6 5.00002V2.00002L11 1.99902Z"> </path> </symbol> <symbol viewBox="0 0 24 24" id="ri-cake-2-fill"> <path d="M8 6V9.999H11V6H13V9.999H16V6H18V9.999L19 10C20.5977 10 21.9037 11.2489 21.9949 12.8237L22 13V14C22 15.0139 21.6227 15.9397 21.001 16.6447L21 21C21 21.5523 20.5523 22 20 22H4C3.44772 22 3 21.5523 3 21L2.99917 16.6401C2.47812 16.0464 2.12795 15.2943 2.02793 14.4584L2.00551 14.2052L2 14V13C2 11.4023 3.24892 10.0963 4.82373 10.0051L5 10L6 9.999V6H8ZM19 12H5C4.48716 12 4.06449 12.386 4.00673 12.8834L4 13L3.99958 13.9711L4.00342 14.1184C4.06444 15.1715 4.93934 16 6 16C7.00762 16 7.84761 15.2523 7.98033 14.2995L7.99532 14.1474L8.00042 13.9711C8.03649 12.7225 9.82713 12.6779 9.98853 13.8373L9.99958 13.9711L10.0034 14.1184C10.0644 15.1715 10.9393 16 12 16C13.0544 16 13.9182 15.1841 13.9945 14.1493L14.007 13.8668C14.131 12.7111 15.869 12.7111 15.993 13.8668L16.0055 14.1493C16.0818 15.1841 16.9456 16 18 16C19.0544 16 19.9182 15.1841 19.9945 14.1493L20 14V13C20 12.4872 19.614 12.0645 19.1166 12.0067L19 12ZM7 1C8.31948 1.87119 8.6633 3.08803 8.44889 3.88823C8.23448 4.68843 7.41197 5.1633 6.61177 4.94889C5.81157 4.73448 5.3367 3.91197 5.55111 3.11177C5.84871 2.00111 7 2.5 7 1ZM12 1C13.3195 1.87119 13.6633 3.08803 13.4489 3.88823C13.2345 4.68843 12.412 5.1633 11.6118 4.94889C10.8116 4.73448 10.3367 3.91197 10.5511 3.11177C10.8487 2.00111 12 2.5 12 1ZM17 1C18.3195 1.87119 18.6633 3.08803 18.4489 3.88823C18.2345 4.68843 17.412 5.1633 16.6118 4.94889C15.8116 4.73448 15.3367 3.91197 15.5511 3.11177C15.8487 2.00111 17 2.5 17 1Z"> </path> </symbol> <symbol viewBox="0 0 24 24" id="ri-notification-2-line"> <path d="M22 20H2V18H3V11.0314C3 6.04348 7.02944 2 12 2C16.9706 2 21 6.04348 21 11.0314V18H22V20ZM5 18H19V11.0314C19 7.14806 15.866 4 12 4C8.13401 4 5 7.14806 5 11.0314V18ZM9.5 21H14.5C14.5 22.3807 13.3807 23.5 12 23.5C10.6193 23.5 9.5 22.3807 9.5 21Z"> </path> </symbol> <symbol viewBox="0 0 24 24" id="ri-wireless-charging-line"> <path d="M3.92887 4.92871L5.34315 6.34298C3.89543 7.7907 3 9.7907 3 11.9998C3 14.209 3.89543 16.209 5.34315 17.6567L3.92887 19.071C2.11925 17.2613 1 14.7613 1 11.9998C1 9.23834 2.11925 6.73834 3.92887 4.92871ZM20.0711 4.92871C21.8808 6.73834 23 9.23834 23 11.9998C23 14.7613 21.8808 17.2613 20.0711 19.071L18.6569 17.6567C20.1046 16.209 21 14.209 21 11.9998C21 9.79121 20.105 7.79162 18.6579 6.34398L20.0711 4.92871ZM13 4.99984V10.9998H16L11 18.9998V12.9998H8L13 4.99984ZM6.75736 7.7572L8.17157 9.17141C7.44771 9.89527 7 10.8953 7 11.9998C7 13.1044 7.44771 14.1044 8.17157 14.8283L6.75736 16.2425C5.67157 15.1567 5 13.6567 5 11.9998C5 10.343 5.67157 8.84298 6.75736 7.7572ZM17.2436 7.75818C18.3288 8.84388 19 10.3435 19 11.9998C19 13.6567 18.3284 15.1567 17.2426 16.2425L15.8284 14.8283C16.5523 14.1044 17 13.1044 17 11.9998C17 10.8958 16.5527 9.89618 15.8294 9.17241L17.2436 7.75818Z"> </path> </symbol> <symbol viewBox="0 0 24 24" id="ri-thumb-up-fill"> <path d="M2 8.99997H5V21H2C1.44772 21 1 20.5523 1 20V9.99997C1 9.44769 1.44772 8.99997 2 8.99997ZM7.29289 7.70708L13.6934 1.30661C13.8693 1.13066 14.1479 1.11087 14.3469 1.26016L15.1995 1.8996C15.6842 2.26312 15.9026 2.88253 15.7531 3.46966L14.5998 7.99997H21C22.1046 7.99997 23 8.8954 23 9.99997V12.1043C23 12.3656 22.9488 12.6243 22.8494 12.8658L19.755 20.3807C19.6007 20.7554 19.2355 21 18.8303 21H8C7.44772 21 7 20.5523 7 20V8.41419C7 8.14897 7.10536 7.89462 7.29289 7.70708Z"> </path> </symbol> <symbol viewBox="0 0 24 24" id="ri-phone-fill"> <path d="M21 16.42V19.9561C21 20.4811 20.5941 20.9167 20.0705 20.9537C19.6331 20.9846 19.2763 21 19 21C10.1634 21 3 13.8366 3 5C3 4.72371 3.01545 4.36687 3.04635 3.9295C3.08337 3.40588 3.51894 3 4.04386 3H7.5801C7.83678 3 8.05176 3.19442 8.07753 3.4498C8.10067 3.67907 8.12218 3.86314 8.14207 4.00202C8.34435 5.41472 8.75753 6.75936 9.3487 8.00303C9.44359 8.20265 9.38171 8.44159 9.20185 8.57006L7.04355 10.1118C8.35752 13.1811 10.8189 15.6425 13.8882 16.9565L15.4271 14.8019C15.5572 14.6199 15.799 14.5573 16.001 14.6532C17.2446 15.2439 18.5891 15.6566 20.0016 15.8584C20.1396 15.8782 20.3225 15.8995 20.5502 15.9225C20.8056 15.9483 21 16.1633 21 16.42Z"> </path> </symbol> <symbol viewBox="0 0 24 24" id="ri-surgical-mask-fill"> <path d="M12.4851 3.12124L20.2425 5.0606C20.6877 5.1719 21 5.57188 21 6.03075V6.99952L22 6.99997C23.1 6.99997 24 7.89997 24 8.99997V12C24 13.6568 22.6569 15 21 15L20.5789 15.0003C20.0443 16.3501 19.0275 17.4862 17.6833 18.1583L12.8944 20.5528C12.3314 20.8343 11.6686 20.8343 11.1056 20.5528L6.31672 18.1583C4.97252 17.4862 3.95573 16.3501 3.42113 15.0003L3 15C1.34315 15 0 13.6568 0 12V8.99997C0 7.8954 0.89543 6.99997 2 6.99997L3 6.99952V6.03075C3 5.57188 3.3123 5.1719 3.75746 5.0606L11.5149 3.12124C11.8334 3.04162 12.1666 3.04162 12.4851 3.12124ZM3 8.99997H2V12C2 12.5523 2.44772 13 3 13V8.99997ZM22 8.99997H21V13C21.5523 13 22 12.5523 22 12V8.99997Z"> </path> </symbol> <symbol viewBox="0 0 24 24" id="ri-github-fill"> <path d="M12.001 2C6.47598 2 2.00098 6.475 2.00098 12C2.00098 16.425 4.86348 20.1625 8.83848 21.4875C9.33848 21.575 9.52598 21.275 9.52598 21.0125C9.52598 20.775 9.51348 19.9875 9.51348 19.15C7.00098 19.6125 6.35098 18.5375 6.15098 17.975C6.03848 17.6875 5.55098 16.8 5.12598 16.5625C4.77598 16.375 4.27598 15.9125 5.11348 15.9C5.90098 15.8875 6.46348 16.625 6.65098 16.925C7.55098 18.4375 8.98848 18.0125 9.56348 17.75C9.65098 17.1 9.91348 16.6625 10.201 16.4125C7.97598 16.1625 5.65098 15.3 5.65098 11.475C5.65098 10.3875 6.03848 9.4875 6.67598 8.7875C6.57598 8.5375 6.22598 7.5125 6.77598 6.1375C6.77598 6.1375 7.61348 5.875 9.52598 7.1625C10.326 6.9375 11.176 6.825 12.026 6.825C12.876 6.825 13.726 6.9375 14.526 7.1625C16.4385 5.8625 17.276 6.1375 17.276 6.1375C17.826 7.5125 17.476 8.5375 17.376 8.7875C18.0135 9.4875 18.401 10.375 18.401 11.475C18.401 15.3125 16.0635 16.1625 13.8385 16.4125C14.201 16.725 14.5135 17.325 14.5135 18.2625C14.5135 19.6 14.501 20.675 14.501 21.0125C14.501 21.275 14.6885 21.5875 15.1885 21.4875C19.259 20.1133 21.9999 16.2963 22.001 12C22.001 6.475 17.526 2 12.001 2Z"> </path> </symbol> <symbol viewBox="0 0 24 24" id="ri-compass-line"> <path d="M12 22C6.47715 22 2 17.5228 2 12C2 6.47715 6.47715 2 12 2C17.5228 2 22 6.47715 22 12C22 17.5228 17.5228 22 12 22ZM12 20C16.4183 20 20 16.4183 20 12C20 7.58172 16.4183 4 12 4C7.58172 4 4 7.58172 4 12C4 16.4183 7.58172 20 12 20ZM15.5 8.5L13.5 13.5L8.5 15.5L10.5 10.5L15.5 8.5Z"> </path> </symbol> <symbol viewBox="0 0 24 24" id="ri-moon-fill"> <path d="M11.3807 2.01904C9.91573 3.38786 9 5.33708 9 7.50018C9 11.6423 12.3579 15.0002 16.5 15.0002C18.6631 15.0002 20.6123 14.0844 21.9811 12.6195C21.6613 17.8539 17.3149 22.0002 12 22.0002C6.47715 22.0002 2 17.523 2 12.0002C2 6.68532 6.14629 2.33888 11.3807 2.01904Z"> </path> </symbol> <symbol viewBox="0 0 24 24" id="ri-close-circle-line"> <path d="M12 22C6.47715 22 2 17.5228 2 12C2 6.47715 6.47715 2 12 2C17.5228 2 22 6.47715 22 12C22 17.5228 17.5228 22 12 22ZM12 20C16.4183 20 20 16.4183 20 12C20 7.58172 16.4183 4 12 4C7.58172 4 4 7.58172 4 12C4 16.4183 7.58172 20 12 20ZM12 10.5858L14.8284 7.75736L16.2426 9.17157L13.4142 12L16.2426 14.8284L14.8284 16.2426L12 13.4142L9.17157 16.2426L7.75736 14.8284L10.5858 12L7.75736 9.17157L9.17157 7.75736L12 10.5858Z"> </path> </symbol> <symbol viewBox="0 0 24 24" id="ri-error-warning-line"> <path d="M12 22C6.47715 22 2 17.5228 2 12C2 6.47715 6.47715 2 12 2C17.5228 2 22 6.47715 22 12C22 17.5228 17.5228 22 12 22ZM12 20C16.4183 20 20 16.4183 20 12C20 7.58172 16.4183 4 12 4C7.58172 4 4 7.58172 4 12C4 16.4183 7.58172 20 12 20ZM11 15H13V17H11V15ZM11 7H13V13H11V7Z"> </path> </symbol> <symbol viewBox="0 0 24 24" id="ri-information-line"> <path d="M12 22C6.47715 22 2 17.5228 2 12C2 6.47715 6.47715 2 12 2C17.5228 2 22 6.47715 22 12C22 17.5228 17.5228 22 12 22ZM12 20C16.4183 20 20 16.4183 20 12C20 7.58172 16.4183 4 12 4C7.58172 4 4 7.58172 4 12C4 16.4183 7.58172 20 12 20ZM11 7H13V9H11V7ZM11 11H13V17H11V11Z"> </path> </symbol> <symbol viewBox="0 0 24 24" id="ri-more-line"> <path d="M4.5 10.5C3.675 10.5 3 11.175 3 12C3 12.825 3.675 13.5 4.5 13.5C5.325 13.5 6 12.825 6 12C6 11.175 5.325 10.5 4.5 10.5ZM19.5 10.5C18.675 10.5 18 11.175 18 12C18 12.825 18.675 13.5 19.5 13.5C20.325 13.5 21 12.825 21 12C21 11.175 20.325 10.5 19.5 10.5ZM12 10.5C11.175 10.5 10.5 11.175 10.5 12C10.5 12.825 11.175 13.5 12 13.5C12.825 13.5 13.5 12.825 13.5 12C13.5 11.175 12.825 10.5 12 10.5Z"> </path> </symbol> <symbol viewBox="0 0 24 24" id="ri-more-fill"> <path d="M5 10C3.9 10 3 10.9 3 12C3 13.1 3.9 14 5 14C6.1 14 7 13.1 7 12C7 10.9 6.1 10 5 10ZM19 10C17.9 10 17 10.9 17 12C17 13.1 17.9 14 19 14C20.1 14 21 13.1 21 12C21 10.9 20.1 10 19 10ZM12 10C10.9 10 10 10.9 10 12C10 13.1 10.9 14 12 14C13.1 14 14 13.1 14 12C14 10.9 13.1 10 12 10Z"> </path> </symbol> </svg>