<svg xmlns="http://www.w3.org/2000/svg" xmlns:xlink="http://www.w3.org/1999/xlink" width="0" height="0" style="display: none"> <symbol viewBox="0 0 24 24" id="planet-line"> <path d="M3.91762 8.0366C3.32984 9.23328 3 10.5792 3 11.9999C3 16.9704 7.02944 20.9999 12 20.9999C13.4216 20.9999 14.7684 20.6696 15.9657 20.081C16.8385 20.4544 17.6848 20.6991 18.4564 20.762C19.3582 20.8356 20.3 20.6665 20.9818 19.9847C21.7339 19.2325 21.8625 18.1689 21.7279 17.1727C21.6052 16.2638 21.2481 15.2537 20.726 14.2114C20.9051 13.503 21 12.7619 21 11.9999C21 7.02929 16.9706 2.99986 12 2.99986C11.2389 2.99986 10.4987 3.09454 9.79103 3.27318C8.7474 2.7498 7.73605 2.39172 6.8261 2.26834C5.82897 2.13315 4.76406 2.26128 4.01121 3.01413C3.3287 3.69664 3.16001 4.63956 3.2341 5.54233C3.29752 6.315 3.54313 7.16247 3.91762 8.0366ZM5.3224 5.96574C5.2734 5.75321 5.24204 5.55715 5.2274 5.37873C5.17928 4.79243 5.31727 4.53649 5.42543 4.42834C5.54452 4.30925 5.84797 4.15403 6.55739 4.25021C6.75482 4.27698 6.96951 4.32189 7.2 4.38547C6.50364 4.82527 5.87203 5.35784 5.3224 5.96574ZM19.6124 16.803C19.6751 17.0316 19.7195 17.2445 19.7459 17.4404C19.8416 18.1485 19.6865 18.4515 19.5676 18.5705C19.4595 18.6785 19.204 18.8163 18.6189 18.7686C18.4419 18.7542 18.2475 18.7233 18.0368 18.675C18.6427 18.1268 19.1736 17.4971 19.6124 16.803ZM15.8812 17.8264C14.2046 16.9482 12.2571 15.5026 10.3752 13.6207C8.4954 11.741 7.05092 9.79561 6.17241 8.12028C7.06357 6.78465 8.40124 5.77312 9.96933 5.29866C10.6108 5.10457 11.2923 4.99986 12 4.99986C15.866 4.99986 19 8.13386 19 11.9999C19 12.7083 18.8951 13.3904 18.7006 14.0325C18.2261 15.5991 17.2155 16.9356 15.8812 17.8264ZM13.6052 18.8152C13.0901 18.9359 12.5528 18.9999 12 18.9999C8.13401 18.9999 5 15.8658 5 11.9999C5 11.4476 5.06377 10.9109 5.18429 10.3963C6.14883 11.913 7.43475 13.5087 8.96096 15.0349C10.489 16.563 12.0868 17.8502 13.6052 18.8152Z" ></path> </symbol> <symbol viewBox="0 0 24 24" id="article-line"> <path d="M20 22H4C3.44772 22 3 21.5523 3 21V3C3 2.44772 3.44772 2 4 2H20C20.5523 2 21 2.44772 21 3V21C21 21.5523 20.5523 22 20 22ZM19 20V4H5V20H19ZM7 6H11V10H7V6ZM7 12H17V14H7V12ZM7 16H17V18H7V16ZM13 7H17V9H13V7Z" ></path> </symbol> <symbol viewBox="0 0 24 24" id="contrast-2-line"> <path d="M12 21.9966C6.47715 21.9966 2 17.5194 2 11.9966C2 6.47373 6.47715 1.99658 12 1.99658C17.5228 1.99658 22 6.47373 22 11.9966C22 17.5194 17.5228 21.9966 12 21.9966ZM12 19.9966C16.4183 19.9966 20 16.4149 20 11.9966C20 7.5783 16.4183 3.99658 12 3.99658C7.58172 3.99658 4 7.5783 4 11.9966C4 16.4149 7.58172 19.9966 12 19.9966ZM7.00035 15.3158C9.07995 15.1645 11.117 14.2938 12.7071 12.7037C14.2972 11.1136 15.1679 9.07654 15.3193 6.99694C15.6454 7.21396 15.955 7.46629 16.2426 7.75394C18.5858 10.0971 18.5858 13.8961 16.2426 16.2392C13.8995 18.5824 10.1005 18.5824 7.75736 16.2392C7.46971 15.9516 7.21738 15.642 7.00035 15.3158Z" ></path> </symbol> <symbol viewBox="0 0 24 24" id="css3-line"> <path d="M2.8 14H4.83961L4.2947 16.7245L10.0393 18.8787L17.2665 16.4697L18.3604 11H3.4L3.8 9H18.7604L19.5604 5H4.6L5 3H22L19 18L10 21L2 18L2.8 14Z" ></path> </symbol> <symbol viewBox="0 0 24 24" id="file-copy-2-line"> <path d="M6.9998 6V3C6.9998 2.44772 7.44752 2 7.9998 2H19.9998C20.5521 2 20.9998 2.44772 20.9998 3V17C20.9998 17.5523 20.5521 18 19.9998 18H16.9998V20.9991C16.9998 21.5519 16.5499 22 15.993 22H4.00666C3.45059 22 3 21.5554 3 20.9991L3.0026 7.00087C3.0027 6.44811 3.45264 6 4.00942 6H6.9998ZM5.00242 8L5.00019 20H14.9998V8H5.00242ZM8.9998 6H16.9998V16H18.9998V4H8.9998V6ZM7 11H13V13H7V11ZM7 15H13V17H7V15Z" ></path> </symbol> <symbol viewBox="0 0 24 24" id="paint-brush-line"> <path d="M5 4.99658V7.99658H19V4.99658H5ZM4 2.99658H20C20.5523 2.99658 21 3.4443 21 3.99658V8.99658C21 9.54887 20.5523 9.99658 20 9.99658H4C3.44772 9.99658 3 9.54887 3 8.99658V3.99658C3 3.4443 3.44772 2.99658 4 2.99658ZM6 11.9966H12C12.5523 11.9966 13 12.4443 13 12.9966V15.9966H14V21.9966H10V15.9966H11V13.9966H5C4.44772 13.9966 4 13.5489 4 12.9966V10.9966H6V11.9966ZM17.7322 13.7288L19.5 11.961L21.2678 13.7288C22.2441 14.7051 22.2441 16.288 21.2678 17.2643C20.2915 18.2407 18.7085 18.2407 17.7322 17.2643C16.7559 16.288 16.7559 14.7051 17.7322 13.7288Z" ></path> </symbol> <symbol viewBox="0 0 24 24" id="clockwise-line"> <path d="M20 10.5858L21.8284 8.75736L23.2426 10.1716L19 14.4142L14.7574 10.1716L16.1716 8.75736L18 10.5858V8C18 6.34315 16.6569 5 15 5H11V3H15C17.7614 3 20 5.23858 20 8V10.5858ZM13 9C13.5523 9 14 9.44772 14 10V20C14 20.5523 13.5523 21 13 21H3C2.44772 21 2 20.5523 2 20V10C2 9.44772 2.44772 9 3 9H13ZM12 11H4V19H12V11Z" ></path> </symbol> <symbol viewBox="0 0 24 24" id="medal-line"> <path d="M12 7.00002C16.4183 7.00002 20 10.5817 20 15C20 19.4183 16.4183 23 12 23C7.58172 23 4 19.4183 4 15C4 10.5817 7.58172 7.00002 12 7.00002ZM12 9.00002C8.68629 9.00002 6 11.6863 6 15C6 18.3137 8.68629 21 12 21C15.3137 21 18 18.3137 18 15C18 11.6863 15.3137 9.00002 12 9.00002ZM12 10.5L13.3225 13.1797L16.2798 13.6094L14.1399 15.6953L14.645 18.6406L12 17.25L9.35497 18.6406L9.86012 15.6953L7.72025 13.6094L10.6775 13.1797L12 10.5ZM18 2.00002V5.00002L16.6366 6.13758C15.5305 5.55773 14.3025 5.17887 13.0011 5.04951L13 1.99902L18 2.00002ZM11 1.99902L10.9997 5.04943C9.6984 5.17866 8.47046 5.55738 7.36441 6.13706L6 5.00002V2.00002L11 1.99902Z" ></path> </symbol> <symbol viewBox="0 0 24 24" id="compasses-line"> <path d="M10.9998 4.1226V1.99658H12.9998V4.1226C14.725 4.56664 15.9998 6.13274 15.9998 7.99658C15.9998 9.11427 15.5414 10.1249 14.8023 10.8507L20.8658 21.353L19.1338 22.353L13.0708 11.8516C12.7299 11.9461 12.3708 11.9966 11.9998 11.9966C11.6289 11.9966 11.2697 11.9461 10.9288 11.8516L4.86584 22.353L3.13379 21.353L9.1973 10.8507C8.45823 10.1249 7.99981 9.11427 7.99981 7.99658C7.99981 6.13274 9.27459 4.56664 10.9998 4.1226ZM11.9998 9.99658C13.1044 9.99658 13.9998 9.10115 13.9998 7.99658C13.9998 6.89201 13.1044 5.99658 11.9998 5.99658C10.8952 5.99658 9.99981 6.89201 9.99981 7.99658C9.99981 9.10115 10.8952 9.99658 11.9998 9.99658Z" ></path> </symbol> <symbol viewBox="0 0 24 24" id="service-line"> <path d="M3.16113 4.46875C5.58508 2.0448 9.44716 1.9355 12.0008 4.14085C14.5528 1.9355 18.4149 2.0448 20.8388 4.46875C23.2584 6.88836 23.3716 10.741 21.1785 13.2947L13.4142 21.0858C12.6686 21.8313 11.4809 21.8652 10.6952 21.1874L10.5858 21.0858L2.82141 13.2947C0.628282 10.741 0.741522 6.88836 3.16113 4.46875ZM4.57534 5.88296C2.86819 7.59011 2.81942 10.3276 4.42902 12.0937L4.57534 12.2469L12 19.6715L17.3026 14.3675L13.7677 10.8327L12.7071 11.8934C11.5355 13.0649 9.636 13.0649 8.46443 11.8934C7.29286 10.7218 7.29286 8.8223 8.46443 7.65073L10.5656 5.54823C8.85292 4.17713 6.37076 4.23993 4.7286 5.73663L4.57534 5.88296ZM13.0606 8.71139C13.4511 8.32086 14.0843 8.32086 14.4748 8.71139L18.7168 12.9533L19.4246 12.2469C21.1819 10.4896 21.1819 7.64032 19.4246 5.88296C17.7174 4.17581 14.9799 4.12704 13.2139 5.73663L13.0606 5.88296L9.87864 9.06494C9.51601 9.42757 9.49011 9.99942 9.80094 10.3919L9.87864 10.4792C10.2413 10.8418 10.8131 10.8677 11.2056 10.5569L11.2929 10.4792L13.0606 8.71139Z" ></path> </symbol> <symbol viewBox="0 0 24 24" id="bard-line"> <path d="M10.6144 17.7956C10.277 18.5682 9.20776 18.5682 8.8704 17.7956L7.99275 15.7854C7.21171 13.9966 5.80589 12.5726 4.0523 11.7942L1.63658 10.7219C0.868536 10.381 0.868537 9.26368 1.63658 8.92276L3.97685 7.88394C5.77553 7.08552 7.20657 5.60881 7.97427 3.75892L8.8633 1.61673C9.19319 0.821767 10.2916 0.821765 10.6215 1.61673L11.5105 3.75894C12.2782 5.60881 13.7092 7.08552 15.5079 7.88394L17.8482 8.92276C18.6162 9.26368 18.6162 10.381 17.8482 10.7219L15.4325 11.7942C13.6789 12.5726 12.2731 13.9966 11.492 15.7854L10.6144 17.7956ZM4.53956 9.82234C6.8254 10.837 8.68402 12.5048 9.74238 14.7996C10.8008 12.5048 12.6594 10.837 14.9452 9.82234C12.6321 8.79557 10.7676 7.04647 9.74239 4.71088C8.71719 7.04648 6.85267 8.79557 4.53956 9.82234Z M19.4014 22.6899L19.6482 22.1242C20.0882 21.1156 20.8807 20.3125 21.8695 19.8732L22.6299 19.5353C23.0412 19.3526 23.0412 18.7549 22.6299 18.5722L21.9121 18.2532C20.8978 17.8026 20.0911 16.9698 19.6586 15.9269L19.4052 15.3156C19.2285 14.8896 18.6395 14.8896 18.4628 15.3156L18.2094 15.9269C17.777 16.9698 16.9703 17.8026 15.956 18.2532L15.2381 18.5722C14.8269 18.7549 14.8269 19.3526 15.2381 19.5353L15.9985 19.8732C16.9874 20.3125 17.7798 21.1156 18.2198 22.1242L18.4667 22.6899C18.6473 23.104 19.2207 23.104 19.4014 22.6899ZM18.3745 19.0469L18.937 18.4883L19.4878 19.0469L18.937 19.5898L18.3745 19.0469Z" ></path> </symbol> <symbol viewBox="0 0 24 24" id="git-close-pull-request-line"> <path d="M6 5C5.44772 5 5 5.44772 5 6C5 6.55228 5.44772 7 6 7C6.55228 7 7 6.55228 7 6C7 5.44772 6.55228 5 6 5ZM3 6C3 4.34315 4.34315 3 6 3C7.65685 3 9 4.34315 9 6C9 7.30622 8.16519 8.41746 7 8.82929V15.1707C8.16519 15.5825 9 16.6938 9 18C9 19.6569 7.65685 21 6 21C4.34315 21 3 19.6569 3 18C3 16.6938 3.83481 15.5825 5 15.1707V8.82929C3.83481 8.41746 3 7.30622 3 6ZM15.2929 3.29289C15.6834 2.90237 16.3166 2.90237 16.7071 3.29289L18 4.58579L19.2929 3.29289C19.6834 2.90237 20.3166 2.90237 20.7071 3.29289C21.0976 3.68342 21.0976 4.31658 20.7071 4.70711L19.4142 6L20.7071 7.29289C21.0976 7.68342 21.0976 8.31658 20.7071 8.70711C20.3166 9.09763 19.6834 9.09763 19.2929 8.70711L18 7.41421L16.7071 8.70711C16.3166 9.09763 15.6834 9.09763 15.2929 8.70711C14.9024 8.31658 14.9024 7.68342 15.2929 7.29289L16.5858 6L15.2929 4.70711C14.9024 4.31658 14.9024 3.68342 15.2929 3.29289ZM18 10C18.5523 10 19 10.4477 19 11V15.1707C20.1652 15.5825 21 16.6938 21 18C21 19.6569 19.6569 21 18 21C16.3431 21 15 19.6569 15 18C15 16.6938 15.8348 15.5825 17 15.1707V11C17 10.4477 17.4477 10 18 10ZM6 17C5.44772 17 5 17.4477 5 18C5 18.5523 5.44772 19 6 19C6.55228 19 7 18.5523 7 18C7 17.4477 6.55228 17 6 17ZM18 17C17.4477 17 17 17.4477 17 18C17 18.5523 17.4477 19 18 19C18.5523 19 19 18.5523 19 18C19 17.4477 18.5523 17 18 17Z" ></path> </symbol> <symbol viewBox="0 0 24 24" id="svelte"> <path fill-rule="evenodd" clip-rule="evenodd" d="M16.3241 0.161317C18.1921 0.55004 19.849 1.61927 20.9728 3.16128C21.516 3.89464 21.903 4.73162 22.1098 5.62048C22.3166 6.50933 22.339 7.43117 22.1754 8.329C22.0164 9.18887 21.6801 10.0062 21.188 10.729C21.907 12.054 22.1491 13.5857 21.8737 15.0679C21.7065 15.9532 21.3543 16.7932 20.8401 17.5331C20.326 18.2729 19.6614 18.8959 18.89 19.3613L13.1317 22.921C11.4854 23.8858 9.53926 24.2045 7.67119 23.8152C5.80312 23.4259 4.14635 22.3563 3.02253 20.8141C2.48009 20.0806 2.09376 19.2437 1.88737 18.355C1.68098 17.4663 1.65891 16.5448 1.82253 15.6473C1.98148 14.7875 2.31744 13.9703 2.8091 13.2473C2.09167 11.923 1.84966 10.3929 2.12338 8.91185C2.2902 8.0264 2.64224 7.18619 3.15643 6.44629C3.67063 5.70639 4.33537 5.08349 5.1071 4.61842L10.8645 1.05785C12.5102 0.0921317 14.456 -0.227406 16.3241 0.161317ZM7.57957 20.9813C8.45404 21.2959 9.40287 21.3407 10.3031 21.1098H10.3091C10.7218 21.0041 11.1161 20.8362 11.4783 20.6119L17.2271 17.0513C17.6901 16.7706 18.0888 16.3956 18.3973 15.9506C18.7058 15.5057 18.9172 15.0007 19.0177 14.4687C19.1161 13.9289 19.1027 13.3747 18.9785 12.8402C18.8542 12.3058 18.6216 11.8025 18.2951 11.3616C17.7477 10.6094 16.987 10.039 16.1116 9.72434C15.2362 9.40966 14.2864 9.36519 13.3854 9.59671C12.9727 9.70245 12.5785 9.87037 12.2163 10.0947L10.0203 11.4533C9.91022 11.5203 9.79095 11.5708 9.66625 11.6033C9.39471 11.6728 9.10855 11.6592 8.8448 11.5643C8.58105 11.4694 8.35184 11.2976 8.18682 11.071C8.0892 10.9379 8.02022 10.786 7.98422 10.6249C7.94822 10.4638 7.946 10.297 7.97768 10.135C8.00795 9.97449 8.07177 9.8222 8.16498 9.68808C8.25818 9.55396 8.37866 9.44104 8.51854 9.35671L14.2803 5.80814C14.3894 5.74035 14.5082 5.68949 14.6325 5.65728C14.904 5.58745 15.1903 5.60096 15.454 5.69605C15.7177 5.79114 15.9467 5.9634 16.1111 6.19042C16.2861 6.42993 16.3689 6.72452 16.3443 7.02014L16.3228 7.22328L16.5328 7.28671C17.3398 7.52138 18.1013 7.89056 18.7854 8.37871L19.0803 8.58185L19.1891 8.26042C19.2474 8.08973 19.2929 7.91497 19.3254 7.73756C19.4233 7.19748 19.4093 6.64305 19.2843 6.10859C19.1593 5.57413 18.9259 5.07103 18.5985 4.63042C18.0515 3.8779 17.2908 3.30724 16.4152 2.99252C15.5397 2.67781 14.5898 2.63357 13.6888 2.86556C13.2762 2.97171 12.8821 3.1396 12.5197 3.36356L6.76997 6.92414C6.30749 7.20483 5.90913 7.57953 5.60068 8.02398C5.29223 8.46842 5.08057 8.97269 4.9794 9.50414C4.87901 10.0436 4.89043 10.598 5.01295 11.1329C5.13547 11.6678 5.36648 12.1718 5.69168 12.6139C6.23876 13.3662 6.99926 13.9368 7.87457 14.2516C8.74988 14.5665 9.69959 14.611 10.6005 14.3796C11.0132 14.2731 11.4073 14.1049 11.7697 13.8807L13.9743 12.523C14.0841 12.4553 14.2034 12.4045 14.3283 12.3721C14.5999 12.3027 14.8861 12.3164 15.1499 12.4115C15.4136 12.5065 15.6428 12.6785 15.8077 12.9053C15.9046 13.0386 15.9731 13.1903 16.0091 13.3512C16.0451 13.512 16.0477 13.6785 16.0168 13.8404C15.9858 14.001 15.9215 14.1533 15.8281 14.2875C15.7346 14.4217 15.6141 14.5348 15.4743 14.6196L9.73139 18.1801C9.62204 18.2473 9.50332 18.2979 9.37911 18.3301C9.10419 18.402 8.81391 18.3883 8.54698 18.2909C8.28004 18.1935 8.04916 18.017 7.88511 17.785C7.7106 17.5453 7.62815 17.2508 7.65282 16.9553L7.67425 16.7521L7.46425 16.6896C6.65758 16.4542 5.89614 16.085 5.21168 15.5976L4.91682 15.3936L4.80797 15.715C4.74983 15.8857 4.70428 16.0605 4.67168 16.2379C4.57371 16.7779 4.58768 17.3324 4.71271 17.8668C4.83773 18.4013 5.07116 18.9044 5.39854 19.345C5.94526 20.0965 6.70509 20.6666 7.57957 20.9813Z" /> </symbol> </svg>