<svg xmlns="http://www.w3.org/2000/svg" xmlns:xlink="http://www.w3.org/1999/xlink"><symbol id="ri-chrome-fill" viewBox="0 0 24 24"><path d="M9.827 21.763C5.35 20.771 2 16.777 2 12c0-1.822.487-3.53 1.339-5.002l4.283 7.419a5 5 0 0 0 4.976 2.548zM12 22l4.287-7.425A5 5 0 0 0 17 12a4.98 4.98 0 0 0-1-3h5.542c.298.947.458 1.955.458 3 0 5.523-4.477 10-10 10m2.572-8.455a3 3 0 0 1-5.17-.045l-.029-.05a3 3 0 1 1 5.225.05zm-9.94-8.306A9.97 9.97 0 0 1 12 2a10 10 0 0 1 8.662 5H12a5 5 0 0 0-4.599 3.034z"/></symbol><symbol id="ri-close-line" viewBox="0 0 24 24"><path d="m12 10.587 4.95-4.95 1.415 1.414-4.95 4.95 4.95 4.95-1.415 1.414-4.95-4.95-4.95 4.95-1.413-1.415 4.95-4.95-4.95-4.95L7.05 5.638z"/></symbol><symbol id="ri-riding-line" viewBox="0 0 24 24"><path d="M5.5 21a4.5 4.5 0 1 1 0-9 4.5 4.5 0 0 1 0 9m0-2a2.5 2.5 0 1 0 0-5 2.5 2.5 0 0 0 0 5m13 2a4.5 4.5 0 1 1 0-9 4.5 4.5 0 0 1 0 9m0-2a2.5 2.5 0 1 0 0-5 2.5 2.5 0 0 0 0 5m-7.477-8.695L13 12v6h-2v-5l-2.719-2.266A2 2 0 0 1 8 7.671l2.828-2.828a2 2 0 0 1 2.829 0l1.414 1.414a6.97 6.97 0 0 0 3.917 1.975l-.01 2.015a8.96 8.96 0 0 1-5.321-2.575zM16 5a2 2 0 1 1 0-4 2 2 0 0 1 0 4"/></symbol><symbol id="ri-spy-fill" viewBox="0 0 24 24"><path d="M17 13a4 4 0 0 1 0 8c-2.142 0-4-1.79-4-4h-2a4 4 0 1 1-.535-2h3.07A4 4 0 0 1 17 13M2 12v-2h2V7a4 4 0 0 1 4-4h8a4 4 0 0 1 4 4v3h2v2z"/></symbol><symbol id="ri-star-fill" viewBox="0 0 24 24"><path d="m12 18.26-7.053 3.948 1.575-7.928L.588 8.792l8.027-.952L12 .5l3.385 7.34 8.027.952-5.934 5.488 1.575 7.928z"/></symbol><symbol id="ri-switch-fill" viewBox="0 0 24 24"><path d="M13.62 21c-.085 0-.141-.057-.127-.127V3.127c0-.056.042-.113.113-.113h2.785a4.61 4.61 0 0 1 4.61 4.61v8.766a4.61 4.61 0 0 1-4.61 4.61zm3.422-9.926c-1.004 0-1.824.82-1.824 1.824s.82 1.824 1.824 1.824 1.824-.82 1.824-1.824-.82-1.824-1.824-1.824M5.8 8.4c0-.933.763-1.696 1.696-1.696.934 0 1.697.763 1.697 1.696 0 .934-.763 1.697-1.697 1.697a1.7 1.7 0 0 1-1.696-1.697M11.54 3c.085 0 .142.057.128.127V20.86c0 .07-.057.127-.128.127h-3.93A4.61 4.61 0 0 1 3 16.376V7.61A4.61 4.61 0 0 1 7.611 3zm-1.315 16.544V4.442H7.611c-.849 0-1.64.34-2.235.933a3.09 3.09 0 0 0-.933 2.235v8.766c0 .849.34 1.64.933 2.234a3.09 3.09 0 0 0 2.235.934z"/></symbol><symbol id="ri-volume-down-line" viewBox="0 0 24 24"><path d="M13 7.22 9.603 10H6v4h3.603L13 16.78zM8.889 16H5a1 1 0 0 1-1-1V9a1 1 0 0 1 1-1h3.889l5.294-4.332a.5.5 0 0 1 .817.387v15.89a.5.5 0 0 1-.817.387zm9.974.591-1.422-1.422A4 4 0 0 0 19 12c0-1.43-.75-2.685-1.88-3.392l1.439-1.439A5.99 5.99 0 0 1 21 12c0 1.842-.83 3.49-2.137 4.591"/></symbol></svg>