<?xml version="1.0" encoding="utf-8"?>
<svg version="1.1" id="Ebene_1" xmlns="http://www.w3.org/2000/svg" xmlns:xlink="http://www.w3.org/1999/xlink" x="0px" y="0px"
	 viewBox="0 0 220 128" style="enable-background:new 0 0 220 128;" xml:space="preserve">
<style type="text/css">
	.st2{fill:#00C800;}
</style>
<g>
	<path class="st2" d="M78.54,119.44c-0.5,0.29-1,0.57-1.5,0.86c-1.45,0.84-2.91,1.67-4.36,2.51c-0.64,0.37-1.28,0.75-1.92,1.12
		c-0.83,0.47-1.66,0.95-2.49,1.42c-1.51,0.85-2.98,1.77-4.52,2.57c-1.09,0.25-2.34-0.2-2.83-1.24c-0.46-0.85-0.19-1.83,0.06-2.69
		c0.4-1.46,0.79-2.93,1.19-4.39c0.39-1.47,0.79-2.94,1.18-4.41c0.22-0.8,0.44-1.59,0.62-2.39c0.2-0.73,0.43-1.46,0.55-2.21
		c0.12-1-0.12-2.01-0.57-2.9c-0.37-0.61-0.86-1.14-1.44-1.57c-1.04-0.76-2.06-1.54-3.06-2.35c-0.77-0.63-1.53-1.28-2.28-1.95
		c-0.69-0.62-1.38-1.24-2.05-1.89c-0.88-0.86-1.75-1.75-2.59-2.66c-0.65-0.72-1.31-1.44-1.93-2.19c-0.59-0.7-1.17-1.42-1.73-2.16
		c-0.91-1.18-1.76-2.41-2.6-3.65c-0.17-0.25-0.33-0.51-0.49-0.76c-0.9-1.42-1.72-2.87-2.49-4.36c-0.53-1.05-1.04-2.13-1.53-3.2
		c-0.16-0.41-0.33-0.83-0.5-1.23c-0.61-1.49-1.14-3.02-1.61-4.56c-0.42-1.42-0.79-2.86-1.11-4.31c-0.3-1.48-0.55-2.98-0.73-4.48
		c-0.54-4.43-0.46-8.92,0.19-13.33c0.22-1.44,0.48-2.88,0.82-4.3c0.35-1.48,0.76-2.95,1.24-4.39c0.49-1.51,1.08-2.98,1.68-4.44
		l0.05-0.13c0.67-1.47,1.36-2.93,2.14-4.34c1.7-3.12,3.7-6.08,5.95-8.84c0.26-0.32,0.53-0.63,0.78-0.95c1-1.18,2.04-2.32,3.13-3.42
		c0.39-0.4,0.8-0.8,1.2-1.19c1.12-1.1,2.29-2.15,3.48-3.16c0.35-0.29,0.7-0.58,1.06-0.86c2.76-2.23,5.69-4.24,8.75-6.03
		c1.2-0.7,2.42-1.37,3.65-2.02c0.28-0.14,0.56-0.28,0.85-0.42c1.45-0.71,2.91-1.39,4.39-2.02c2.88-1.22,5.82-2.27,8.82-3.14
		c1.58-0.46,3.18-0.88,4.79-1.23c1.33-0.32,2.67-0.58,4.01-0.82c1.62-0.31,3.26-0.53,4.9-0.72c2.67-0.33,5.37-0.51,8.06-0.6h4.25
		c3.14,0.09,6.28,0.33,9.4,0.74c1.48,0.19,2.95,0.43,4.41,0.7c1.48,0.28,2.94,0.59,4.4,0.94c1.49,0.36,2.97,0.75,4.43,1.2
		c3.04,0.91,6.01,2.01,8.92,3.27c1.48,0.64,2.92,1.35,4.36,2.06l0.12,0.05c1.45,0.78,2.9,1.56,4.31,2.42
		c3.12,1.86,6.08,3.99,8.88,6.31c0.06,0.05,0.17,0.14,0.23,0.19c1.39,1.2,2.78,2.42,4.07,3.73c0.22,0.22,0.44,0.45,0.67,0.67
		c1.05,1.06,2.04,2.19,3.01,3.32c-0.58,0.25-1.15,0.5-1.72,0.76c-0.66,0.29-1.32,0.58-1.97,0.87c-1.45,0.64-2.89,1.29-4.33,1.93
		c-1.28,0.57-2.57,1.14-3.85,1.72c-0.19,0.07-0.37,0.15-0.55,0.23c-1.48,0.65-2.96,1.32-4.44,1.97c-2.96,1.32-5.92,2.63-8.88,3.96
		c-2.94,1.3-5.87,2.6-8.8,3.92c-1.48,0.66-2.95,1.31-4.43,1.97c-0.92,0.4-1.84,0.82-2.75,1.24c-0.57,0.23-1.13,0.49-1.7,0.74
		c-1.49,0.67-2.99,1.33-4.49,2c-1.21,0.54-2.42,1.08-3.63,1.63c-0.25,0.11-0.5,0.22-0.74,0.33c-1.48,0.65-2.95,1.32-4.43,1.97
		c-2.96,1.32-5.92,2.63-8.88,3.95c-2.26,0.99-4.52,2.01-6.77,3.02c-0.67,0.31-1.36,0.57-2.08,0.72c-1.47,0.25-3.01,0.06-4.36-0.56
		c-0.33-0.16-0.65-0.35-0.96-0.54c-1.14-0.82-2.28-1.63-3.43-2.44c-0.93-0.67-1.86-1.33-2.8-1.99c-0.55-0.4-1.11-0.8-1.67-1.19
		c-1.43-1.03-2.86-2.05-4.3-3.07c-0.03-0.02-0.08-0.05-0.11-0.07c-1.04-0.75-2.07-1.49-3.11-2.23c-0.4-0.28-0.87-0.46-1.34-0.58
		c-1.56-0.09-2.93,1.41-2.57,2.97c1.25,2.93,2.64,5.8,3.94,8.71c0.69,1.51,1.38,3.03,2.07,4.54c0.27,0.6,0.54,1.2,0.81,1.79
		c0.39,0.86,0.79,1.71,1.18,2.58c0.67,1.46,1.32,2.92,2,4.38c0.43,0.93,0.86,1.87,1.29,2.81c0.25,0.55,0.49,1.1,0.74,1.65
		c0.79,1.54,1.27,3.25,2.33,4.63c0.42,0.4,0.89,0.75,1.39,1.04c1.48,0.73,3.28,0.64,4.69-0.21c0.51-0.3,1.02-0.6,1.53-0.91
		c0.93-0.53,1.86-1.07,2.79-1.6c2.95-1.71,5.9-3.41,8.86-5.12c1.27-0.73,2.54-1.46,3.81-2.21c0.21-0.12,0.42-0.25,0.63-0.36
		c1.48-0.84,2.94-1.69,4.41-2.54c0.84-0.48,1.68-0.96,2.51-1.45c0.65-0.37,1.3-0.75,1.95-1.12c1.47-0.85,2.93-1.7,4.41-2.54
		c0.45-0.25,0.9-0.52,1.34-0.78c1.04-0.6,2.08-1.19,3.11-1.81c2.95-1.7,5.91-3.39,8.85-5.11c1.12-0.65,2.25-1.29,3.37-1.95
		c0.33-0.19,0.67-0.39,1-0.58c1.47-0.85,2.95-1.7,4.42-2.56c0.77-0.44,1.54-0.89,2.3-1.33c0.7-0.4,1.4-0.79,2.1-1.2
		c2.98-1.72,5.96-3.45,8.94-5.17c1.39-0.81,2.8-1.61,4.19-2.43c0.11-0.06,0.22-0.12,0.33-0.19c1.46-0.83,2.9-1.68,4.36-2.52
		c1.04-0.59,2.06-1.2,3.1-1.8c0.42-0.24,0.83-0.48,1.25-0.72c1.4-0.78,2.75-1.65,4.19-2.35c0.5,1.04,1.15,2,1.69,3.02
		c0.8,1.48,1.55,2.98,2.21,4.52c0.19,0.44,0.37,0.88,0.55,1.32c0.41,1.02,0.8,2.06,1.14,3.11c0.47,1.41,0.86,2.84,1.21,4.28
		c0.35,1.46,0.62,2.95,0.84,4.43c0.21,1.46,0.36,2.94,0.44,4.41c0.08,1.48,0.1,2.97,0.06,4.45c-0.05,1.48-0.16,2.95-0.33,4.42
		c-0.17,1.47-0.42,2.93-0.71,4.38c-0.31,1.47-0.68,2.92-1.1,4.36c-0.93,3.09-2.14,6.08-3.61,8.96c-1.58,3.11-3.47,6.07-5.6,8.84
		c-0.38,0.49-0.76,0.97-1.15,1.45c-0.81,0.98-1.63,1.94-2.49,2.87c-0.61,0.65-1.22,1.29-1.84,1.92c-0.92,0.91-1.86,1.79-2.83,2.65
		c-0.5,0.45-1.02,0.89-1.53,1.32c-1.27,1.06-2.57,2.07-3.92,3.04c-0.2,0.14-0.4,0.28-0.6,0.42c-1.45,1.02-2.93,2-4.46,2.91
		c-0.59,0.35-1.19,0.7-1.79,1.04c-0.85,0.48-1.71,0.95-2.59,1.39c-1.46,0.74-2.94,1.45-4.44,2.1c-0.7,0.31-1.41,0.6-2.11,0.89
		c-0.8,0.32-1.6,0.61-2.41,0.91c-1.42,0.53-2.86,1-4.32,1.44c-1.52,0.45-3.05,0.86-4.59,1.23c-1.31,0.32-2.63,0.58-3.94,0.86
		c-0.07,0.01-0.22,0.04-0.3,0.04c-1.47,0.26-2.95,0.5-4.43,0.7c-1.47,0.19-2.94,0.35-4.42,0.47c-1.48,0.11-2.96,0.2-4.44,0.24
		c-1.48,0.04-2.95,0.05-4.43,0.02c-1.48-0.03-2.95-0.11-4.43-0.21c-1.48-0.11-2.95-0.25-4.42-0.44c-1.33-0.16-2.65-0.37-3.96-0.59
		c-0.48-0.08-0.95-0.18-1.42-0.25c-1.14-0.23-2.28-0.46-3.42-0.73c-1.5-0.35-2.99-0.76-4.48-1.16c-1.46-0.39-3.02-0.26-4.42,0.28"/>
</g>
</svg>
