<svg xmlns="http://www.w3.org/2000/svg" viewBox="0 0 253.835 255.997">
  <path fill="#1677ff" d="M213.186 0H40.664C18.196 0 0 18.355 0 41.011v173.982c0 22.642 18.195 41.004 40.664 41.004h172.522c22.463 0 40.649-18.362 40.649-41.004V41.011C253.835 18.355 235.65 0 213.186 0"/>
  <path fill="#fff" d="M68.59 196.863c-39.488 0-51.163-31.37-31.648-48.533 6.512-5.8 18.413-8.632 24.757-9.267 23.458-2.338 45.173 6.687 70.798 19.302-18.013 23.698-40.955 38.498-63.908 38.498m140.401-36.12c-10.157-3.431-23.786-8.678-38.967-14.217 9.117-15.983 16.399-34.185 21.185-53.967h-50.033V74.384h61.292V64.239h-61.292V33.94H116.16c-4.388 0-4.388 4.369-4.388 4.369v25.93H49.782v10.145h61.991v18.175H60.591V102.7h99.265c-3.633 12.623-8.51 24.472-14.298 35.239-32.21-10.719-66.58-19.406-88.172-14.059-13.81 3.432-22.703 9.556-27.927 15.972-23.98 29.426-6.781 74.12 43.86 74.12 29.944 0 58.79-16.837 81.147-44.583 33.346 16.166 99.366 43.922 99.366 43.922v-39.56s-8.291-.667-44.843-13.011"/>
</svg>
