<svg xmlns="http://www.w3.org/2000/svg" xmlns:xlink="http://www.w3.org/1999/xlink"><symbol id="javascript-fill" viewBox="0 0 24 24"><path d="M6 3a3 3 0 0 0-3 3v12a3 3 0 0 0 3 3h12a3 3 0 0 0 3-3V6a3 3 0 0 0-3-3zm7.334 13.055q1.08.87 2.156.858.66 0 1.012-.242a.75.75 0 0 0 .341-.66.97.97 0 0 0-.34-.748q-.352-.307-1.332-.616-1.177-.34-1.815-.88-.626-.54-.638-1.507 0-.913.792-1.529.77-.616 1.97-.616 1.672 0 2.683.814l-.77 1.199a2.6 2.6 0 0 0-.935-.462 3.2 3.2 0 0 0-.946-.165q-.57 0-.913.209-.34.21-.34.55 0 .374.417.638.42.254 1.43.561 1.221.363 1.738.968t.517 1.54q0 .957-.737 1.65-.726.682-2.112.715-1.815 0-3.036-1.089zm-5.53.638q.352.22.847.22.517 0 .858-.297.34-.308.341-1.067v-5.302h1.485v5.588q-.033 1.298-.748 1.87a2.5 2.5 0 0 1-.891.484 3.3 3.3 0 0 1-.935.143q-.825 0-1.463-.286-.682-.307-1.144-1.089l1.034-.847q.285.385.616.583"/></symbol><symbol id="riding-line" viewBox="0 0 24 24"><path d="M5.5 21a4.5 4.5 0 1 1 0-9 4.5 4.5 0 0 1 0 9m0-2a2.5 2.5 0 1 0 0-5 2.5 2.5 0 0 0 0 5m13 2a4.5 4.5 0 1 1 0-9 4.5 4.5 0 0 1 0 9m0-2a2.5 2.5 0 1 0 0-5 2.5 2.5 0 0 0 0 5m-7.477-8.695L13 12v6h-2v-5l-2.719-2.266A2 2 0 0 1 8 7.671l2.828-2.828a2 2 0 0 1 2.829 0l1.414 1.414a6.97 6.97 0 0 0 3.917 1.975l-.01 2.015a8.96 8.96 0 0 1-5.321-2.575zM16 5a2 2 0 1 1 0-4 2 2 0 0 1 0 4"/></symbol><symbol id="spy-line" viewBox="0 0 24 24"><path d="M17 13a4 4 0 1 1-4 4h-2a4 4 0 1 1-.535-2h3.07A4 4 0 0 1 17 13M7 15a2 2 0 1 0 0 4 2 2 0 0 0 0-4m10 0a2 2 0 1 0 0 4 2 2 0 0 0 0-4M16 3a4 4 0 0 1 4 4v3h2v2H2v-2h2V7a4 4 0 0 1 4-4zm0 2H8c-1.054 0-2 .95-2 2v3h12V7c0-1.054-.95-2-2-2"/></symbol></svg>