<svg width="90" height="80" viewBox="0 0 90 80" fill="none" xmlns="http://www.w3.org/2000/svg">
<path fill-rule="evenodd" clip-rule="evenodd" d="M0 0H20H40H50C64.8056 0 77.7325 8.04398 84.6487 20H50H40V22.6757V30H50C55.5229 30 60 34.4771 60 40C60 45.5229 55.5229 50 50 50H40V57.3243V78.7398V80H20V66.4583V20H15.3513H0V0ZM50 80C72.0914 80 90 62.0914 90 40C90 36.547 89.5625 33.1962 88.7398 30H67.3244C69.0261 32.9417 70 36.3571 70 40C70 51.0457 61.0457 60 50 60V80Z" fill="#0B24FB"/>
<path fill-rule="evenodd" clip-rule="evenodd" d="M20 30V0L0 50H20V80L40 30H20Z" fill="#FFC043"/>
</svg>
