<svg xmlns="http://www.w3.org/2000/svg" xmlns:xlink="http://www.w3.org/1999/xlink"><symbol id="ri-account-circle-fill" viewBox="0 0 24 24"><path d="M12 2c5.52 0 10 4.48 10 10s-4.48 10-10 10S2 17.52 2 12 6.48 2 12 2M6.023 15.416C7.491 17.606 9.695 19 12.16 19s4.669-1.393 6.136-3.584A8.97 8.97 0 0 0 12.16 13a8.97 8.97 0 0 0-6.137 2.416M12 11a3 3 0 1 0 0-6 3 3 0 0 0 0 6"/></symbol><symbol id="ri-account-circle-line" viewBox="0 0 24 24"><path d="M12 2c5.523 0 10 4.477 10 10s-4.477 10-10 10S2 17.523 2 12 6.477 2 12 2m.16 14a6.98 6.98 0 0 0-5.147 2.256A7.97 7.97 0 0 0 12 20c1.97 0 3.773-.712 5.167-1.892A6.98 6.98 0 0 0 12.16 16M12 4a8 8 0 0 0-6.384 12.821A8.98 8.98 0 0 1 12.16 14a8.97 8.97 0 0 1 6.362 2.634A8 8 0 0 0 12 4m0 1a4 4 0 1 1 0 8 4 4 0 0 1 0-8m0 2a2 2 0 1 0 0 4 2 2 0 0 0 0-4"/></symbol><symbol id="ri-add-line" viewBox="0 0 24 24" fill="currentColor"><path d="M11 11V5h2v6h6v2h-6v6h-2v-6H5v-2z"/></symbol><symbol id="ri-aliens-fill" viewBox="0 0 24 24"><path d="M12 2a8.5 8.5 0 0 1 8.5 8.5c0 6.5-5.5 12-8.5 12s-8.5-5.5-8.5-12A8.5 8.5 0 0 1 12 2m5.5 10a4.5 4.5 0 0 0-4.475 4.975q.235.025.475.025a4.5 4.5 0 0 0 4.475-4.975A5 5 0 0 0 17.5 12m-11 0q-.24 0-.475.025a4.5 4.5 0 0 0 4.95 4.95Q11 16.74 11 16.5A4.5 4.5 0 0 0 6.5 12"/></symbol><symbol id="ri-android-fill" viewBox="0 0 24 24"><path d="M6.382 3.968A8.96 8.96 0 0 1 12 2c2.125 0 4.078.736 5.618 1.968l1.453-1.453 1.414 1.414-1.453 1.453A8.96 8.96 0 0 1 21 11v1H3v-1c0-2.125.736-4.078 1.968-5.618L3.515 3.93l1.414-1.414zM3 14h18v7a1 1 0 0 1-1 1H4a1 1 0 0 1-1-1zm6-5a1 1 0 1 0 0-2 1 1 0 0 0 0 2m6 0a1 1 0 1 0 0-2 1 1 0 0 0 0 2"/></symbol><symbol id="ri-apple-fill" viewBox="0 0 24 24"><path d="M11.673 7.222c-.876 0-2.232-.996-3.66-.96-1.884.024-3.612 1.092-4.584 2.784-1.956 3.396-.504 8.412 1.404 11.172.936 1.344 2.04 2.856 3.504 2.808 1.404-.06 1.932-.912 3.636-.912 1.692 0 2.172.912 3.66.876 1.512-.024 2.472-1.368 3.396-2.724 1.068-1.56 1.512-3.072 1.536-3.156-.036-.012-2.94-1.128-2.976-4.488-.024-2.808 2.292-4.152 2.4-4.212-1.32-1.932-3.348-2.148-4.056-2.196-1.848-.144-3.396 1.008-4.26 1.008m3.12-2.832c.78-.936 1.296-2.244 1.152-3.54-1.116.048-2.46.744-3.264 1.68-.72.828-1.344 2.16-1.176 3.432 1.236.096 2.508-.636 3.288-1.572"/></symbol><symbol id="ri-apps-2-line" viewBox="0 0 24 24"><path d="M7.5 11.5a4.5 4.5 0 1 1 0-9 4.5 4.5 0 0 1 0 9m0 10a4.5 4.5 0 1 1 0-9 4.5 4.5 0 0 1 0 9m10-10a4.5 4.5 0 1 1 0-9 4.5 4.5 0 0 1 0 9m0 10a4.5 4.5 0 1 1 0-9 4.5 4.5 0 0 1 0 9m-10-12a2.5 2.5 0 1 0 0-5 2.5 2.5 0 0 0 0 5m0 10a2.5 2.5 0 1 0 0-5 2.5 2.5 0 0 0 0 5m10-10a2.5 2.5 0 1 0 0-5 2.5 2.5 0 0 0 0 5m0 10a2.5 2.5 0 1 0 0-5 2.5 2.5 0 0 0 0 5"/></symbol><symbol id="ri-arrow-down-s-line" viewBox="0 0 24 24"><path d="m12 13.171 4.95-4.95 1.414 1.415L12 16 5.636 9.636 7.05 8.222z"/></symbol><symbol id="ri-arrow-left-s-line" viewBox="0 0 24 24"><path d="m10.828 12 4.95 4.95-1.414 1.415L8 12l6.364-6.364 1.414 1.414z"/></symbol><symbol id="ri-arrow-right-s-line" viewBox="0 0 24 24"><path d="m13.171 12-4.95-4.95 1.415-1.413L16 12l-6.364 6.364-1.414-1.415z"/></symbol><symbol id="ri-arrow-up-s-fill" viewBox="0 0 24 24"><path d="m12 8 6 6H6z"/></symbol><symbol id="ri-arrow-up-s-line" viewBox="0 0 24 24"><path d="m12 10.828-4.95 4.95-1.414-1.414L12 8l6.364 6.364-1.415 1.414z"/></symbol><symbol id="ri-bank-line" viewBox="0 0 24 24"><path d="M2 20h20v2H2zm2-8h2v7H4zm5 0h2v7H9zm4 0h2v7h-2zm5 0h2v7h-2zM2 7l10-5 10 5v4H2zm2 1.236V9h16v-.764l-8-4zM12 8a1 1 0 1 1 0-2 1 1 0 0 1 0 2"/></symbol><symbol id="ri-barcode-fill" viewBox="0 0 24 24"><path d="M2 4h2v16H2zm4 0h2v16H6zm3 0h3v16H9zm4 0h2v16h-2zm3 0h2v16h-2zm3 0h3v16h-3z"/></symbol><symbol id="ri-battery-2-charge-line" viewBox="0 0 24 24"><path d="M13 12h3l-5 7v-5H8l5-7zm-2-6H7v14h10V6h-4V4h-2zM9 4V3a1 1 0 0 1 1-1h4a1 1 0 0 1 1 1v1h3a1 1 0 0 1 1 1v16a1 1 0 0 1-1 1H6a1 1 0 0 1-1-1V5a1 1 0 0 1 1-1z"/></symbol><symbol id="ri-battery-charge-line" viewBox="0 0 24 24"><path d="M8 19H3a1 1 0 0 1-1-1V6a1 1 0 0 1 1-1h6.625L8.458 7H4v10h4zm4.375 0 1.167-2H18V7h-4V5h5a1 1 0 0 1 1 1v12a1 1 0 0 1-1 1zM21 9h2v6h-2zm-9 2h3l-5 8v-6H7l5-8z"/></symbol><symbol id="ri-bear-smile-line" viewBox="0 0 24 24"><path d="M12 17a4 4 0 0 0 4-4h-2a2 2 0 1 1-4 0H8a4 4 0 0 0 4 4M6.5 2a4.5 4.5 0 0 0-2.95 7.898 9 9 0 1 0 16.901 0 4.5 4.5 0 1 0-6.79-5.745 9 9 0 0 0-3.321 0A4.5 4.5 0 0 0 6.5 2M4 6.5a2.5 2.5 0 0 1 4.852-.851l.318.878.898-.257A7 7 0 0 1 12 6c.672 0 1.32.094 1.932.27l.898.257.318-.878a2.501 2.501 0 1 1 3.58 3.03l-.814.46.404.842a7 7 0 1 1-12.635 0l.403-.843-.814-.46A2.5 2.5 0 0 1 4 6.5"/></symbol><symbol id="ri-bluetooth-connect-line" viewBox="0 0 24 24"><path d="m14.311 12 4.343 4.343L12.998 22h-2v-6.686l-4.364 4.364-1.415-1.415 5.779-5.778v-.97L5.219 5.737l1.415-1.415 4.364 4.364V2h2l5.656 5.657zm-1.313 1.515v5.657l2.828-2.829zm0-3.03 2.828-2.828-2.828-2.829zM19.5 13.5a1.5 1.5 0 1 1 0-3 1.5 1.5 0 0 1 0 3m-13 0a1.5 1.5 0 1 1 0-3 1.5 1.5 0 0 1 0 3"/></symbol><symbol id="ri-bluetooth-line" viewBox="0 0 24 24"><path d="m14.312 12 4.343 4.343L12.998 22h-2v-6.686l-4.364 4.364-1.414-1.415 5.778-5.778v-.97L5.22 5.737l1.414-1.415 4.364 4.364V2h2l5.657 5.657zm-1.314 1.515v5.657l2.828-2.829zm0-3.03 2.828-2.828-2.828-2.829z"/></symbol><symbol id="ri-cake-2-fill" viewBox="0 0 24 24"><path d="M8 6v3.999h3V6h2v3.999h3V6h2v3.999L19 10a3 3 0 0 1 2.995 2.824L22 13v1c0 1.014-.377 1.94-.999 2.645L21 21a1 1 0 0 1-1 1H4a1 1 0 0 1-1-1v-4.36a4.02 4.02 0 0 1-.972-2.182l-.022-.253L2 14v-1a3 3 0 0 1 2.824-2.995L5 10l1-.001V6zm11 6H5a1 1 0 0 0-.993.883L4 13v.971l.003.147A2 2 0 0 0 6 16a2 2 0 0 0 1.98-1.7l.015-.153.005-.176c.036-1.248 1.827-1.293 1.989-.134l.01.134.004.147a2 2 0 0 0 3.992.031l.012-.282c.124-1.156 1.862-1.156 1.986 0l.013.282a2 2 0 0 0 3.988 0L20 14v-1a1 1 0 0 0-.883-.993zM7 1c1.32.871 1.663 2.088 1.449 2.888a1.5 1.5 0 0 1-2.898-.776C5.85 2.002 7 2.5 7 1m5 0c1.32.871 1.663 2.088 1.449 2.888a1.5 1.5 0 1 1-2.898-.776C10.85 2.002 12 2.5 12 1m5 0c1.32.871 1.663 2.088 1.449 2.888a1.5 1.5 0 1 1-2.898-.776C15.85 2.002 17 2.5 17 1"/></symbol><symbol id="ri-car-line" viewBox="0 0 24 24"><path d="M19 20H5v1a1 1 0 0 1-1 1H3a1 1 0 0 1-1-1V11l2.48-5.788A2 2 0 0 1 6.32 4H17.68a2 2 0 0 1 1.838 1.212L22 11v10a1 1 0 0 1-1 1h-1a1 1 0 0 1-1-1zm1-7H4v5h16zM4.176 11h15.648l-2.143-5H6.32zM6.5 17a1.5 1.5 0 1 1 0-3 1.5 1.5 0 0 1 0 3m11 0a1.5 1.5 0 1 1 0-3 1.5 1.5 0 0 1 0 3"/></symbol><symbol id="ri-check-double-line" viewBox="0 0 24 24" fill="currentColor"><path d="m11.602 13.76 1.412 1.412 8.466-8.466 1.414 1.415-9.88 9.88-6.364-6.365 1.414-1.414 2.125 2.125zm.002-2.828 4.952-4.953 1.41 1.41-4.952 4.953zm-2.827 5.655L7.364 18 1 11.636l1.414-1.414 1.413 1.413-.001.001z"/></symbol><symbol id="ri-check-fill" viewBox="0 0 24 24"><path d="m10 15.17 9.193-9.191 1.414 1.414-10.606 10.606-6.364-6.364 1.414-1.414z"/></symbol><symbol id="ri-check-line" viewBox="0 0 24 24"><path d="m10 15.17 9.193-9.191 1.414 1.414-10.606 10.606-6.364-6.364 1.414-1.414z"/></symbol><symbol id="ri-checkbox-blank-circle-line" viewBox="0 0 24 24"><path d="M12 22C6.477 22 2 17.523 2 12S6.477 2 12 2s10 4.477 10 10-4.477 10-10 10m0-2a8 8 0 1 0 0-16 8 8 0 0 0 0 16"/></symbol><symbol id="ri-checkbox-circle-fill" viewBox="0 0 24 24"><path d="M12 22C6.477 22 2 17.523 2 12S6.477 2 12 2s10 4.477 10 10-4.477 10-10 10m-.997-6 7.07-7.071-1.413-1.414-5.657 5.657-2.829-2.829-1.414 1.414z"/></symbol><symbol id="ri-checkbox-circle-line" viewBox="0 0 24 24"><path d="M12 22C6.477 22 2 17.523 2 12S6.477 2 12 2s10 4.477 10 10-4.477 10-10 10m0-2a8 8 0 1 0 0-16 8 8 0 0 0 0 16m-.997-4L6.76 11.757l1.414-1.414 2.829 2.829 5.657-5.657 1.414 1.414z"/></symbol><symbol id="ri-checkbox-fill" viewBox="0 0 24 24"><path d="M4 3h16a1 1 0 0 1 1 1v16a1 1 0 0 1-1 1H4a1 1 0 0 1-1-1V4a1 1 0 0 1 1-1m7.003 13 7.07-7.071-1.413-1.414-5.657 5.657-2.829-2.829-1.414 1.414z"/></symbol><symbol id="ri-checkbox-line" viewBox="0 0 24 24"><path d="M4 3h16a1 1 0 0 1 1 1v16a1 1 0 0 1-1 1H4a1 1 0 0 1-1-1V4a1 1 0 0 1 1-1m1 2v14h14V5zm6.003 11L6.76 11.757l1.414-1.414 2.829 2.829 5.657-5.657 1.414 1.414z"/></symbol><symbol id="ri-checkbox-multiple-fill" viewBox="0 0 24 24"><path d="M7 7V3a1 1 0 0 1 1-1h13a1 1 0 0 1 1 1v13a1 1 0 0 1-1 1h-4v3.992C17 21.55 16.551 22 15.992 22H3.008A1.006 1.006 0 0 1 2 20.992l.003-12.985C2.003 7.451 2.452 7 3.01 7zm2 0h6.993C16.549 7 17 7.449 17 8.007V15h3V4H9zm-.498 11 5.657-5.657-1.414-1.414-4.243 4.243-2.12-2.122-1.415 1.414z"/></symbol><symbol id="ri-checkbox-multiple-line" viewBox="0 0 24 24"><path d="M7 7V3a1 1 0 0 1 1-1h13a1 1 0 0 1 1 1v13a1 1 0 0 1-1 1h-4v3.992C17 21.55 16.551 22 15.992 22H3.008A1.006 1.006 0 0 1 2 20.992l.003-12.985C2.003 7.451 2.452 7 3.01 7zm2 0h6.993C16.549 7 17 7.449 17 8.007V15h3V4H9zm6 2H4.003L4 20h11zm-6.498 9-3.535-3.536L6.38 13.05l2.121 2.122 4.243-4.243 1.414 1.414z"/></symbol><symbol id="ri-chrome-fill" viewBox="0 0 24 24"><path d="M9.827 21.763C5.35 20.771 2 16.777 2 12c0-1.822.487-3.53 1.339-5.002l4.283 7.419a5 5 0 0 0 4.976 2.548zM12 22l4.287-7.425A5 5 0 0 0 17 12a4.98 4.98 0 0 0-1-3h5.542c.298.947.458 1.955.458 3 0 5.523-4.477 10-10 10m2.572-8.455a3 3 0 0 1-5.17-.045l-.029-.05a3 3 0 1 1 5.225.05zm-9.94-8.306A9.97 9.97 0 0 1 12 2a10 10 0 0 1 8.662 5H12a5 5 0 0 0-4.599 3.034z"/></symbol><symbol id="ri-close-circle-fill" viewBox="0 0 24 24"><path d="M12 22C6.477 22 2 17.523 2 12S6.477 2 12 2s10 4.477 10 10-4.477 10-10 10m0-11.414L9.172 7.757 7.757 9.172 10.586 12l-2.829 2.828 1.415 1.415L12 13.414l2.828 2.829 1.415-1.415L13.414 12l2.829-2.828-1.415-1.415z"/></symbol><symbol id="ri-close-circle-line" viewBox="0 0 24 24"><path d="M12 22C6.477 22 2 17.523 2 12S6.477 2 12 2s10 4.477 10 10-4.477 10-10 10m0-2a8 8 0 1 0 0-16 8 8 0 0 0 0 16m0-9.414 2.828-2.829 1.415 1.415L13.414 12l2.829 2.828-1.415 1.415L12 13.414l-2.828 2.829-1.415-1.415L10.586 12 7.757 9.172l1.415-1.415z"/></symbol><symbol id="ri-close-fill" viewBox="0 0 24 24"><path d="m12 10.587 4.95-4.95 1.415 1.414-4.95 4.95 4.95 4.95-1.415 1.414-4.95-4.95-4.95 4.95-1.413-1.415 4.95-4.95-4.95-4.95L7.05 5.638z"/></symbol><symbol id="ri-close-line" viewBox="0 0 24 24"><path d="m12 10.587 4.95-4.95 1.415 1.414-4.95 4.95 4.95 4.95-1.415 1.414-4.95-4.95-4.95 4.95-1.413-1.415 4.95-4.95-4.95-4.95L7.05 5.638z"/></symbol><symbol id="ri-code-box-fill" viewBox="0 0 24 24"><path d="M3 3h18a1 1 0 0 1 1 1v16a1 1 0 0 1-1 1H3a1 1 0 0 1-1-1V4a1 1 0 0 1 1-1m13.465 12.536L20 12l-3.535-3.536L15.05 9.88 17.172 12l-2.122 2.121zM6.828 12 8.95 9.879 7.536 8.464 4 12l3.536 3.536L8.95 14.12zm4.416 5 3.64-10h-2.128l-3.64 10z"/></symbol><symbol id="ri-command-fill" viewBox="0 0 24 24"><path d="M10 8h4V6.5a3.5 3.5 0 1 1 3.5 3.5H16v4h1.5a3.5 3.5 0 1 1-3.5 3.5V16h-4v1.5A3.5 3.5 0 1 1 6.5 14H8v-4H6.5A3.5 3.5 0 1 1 10 6.5zM8 8V6.5A1.5 1.5 0 1 0 6.5 8zm0 8H6.5A1.5 1.5 0 1 0 8 17.5zm8-8h1.5A1.5 1.5 0 1 0 16 6.5zm0 8v1.5a1.5 1.5 0 1 0 1.5-1.5zm-6-6v4h4v-4z"/></symbol><symbol id="ri-command-line" viewBox="0 0 24 24"><path d="M10 8h4V6.5a3.5 3.5 0 1 1 3.5 3.5H16v4h1.5a3.5 3.5 0 1 1-3.5 3.5V16h-4v1.5A3.5 3.5 0 1 1 6.5 14H8v-4H6.5A3.5 3.5 0 1 1 10 6.5zM8 8V6.5A1.5 1.5 0 1 0 6.5 8zm0 8H6.5A1.5 1.5 0 1 0 8 17.5zm8-8h1.5A1.5 1.5 0 1 0 16 6.5zm0 8v1.5a1.5 1.5 0 1 0 1.5-1.5zm-6-6v4h4v-4z"/></symbol><symbol id="ri-compass-3-fill" viewBox="0 0 24 24"><path d="M12 22C6.477 22 2 17.523 2 12S6.477 2 12 2s10 4.477 10 10-4.477 10-10 10m4.5-14.5L10 10l-2.5 6.5L14 14zM12 13a1 1 0 1 1 0-2 1 1 0 0 1 0 2"/></symbol><symbol id="ri-compass-3-line" viewBox="0 0 24 24"><path d="M12 22C6.477 22 2 17.523 2 12S6.477 2 12 2s10 4.477 10 10-4.477 10-10 10m0-2a8 8 0 1 0 0-16 8 8 0 0 0 0 16m4.5-12.5L14 14l-6.5 2.5L10 10zM12 13a1 1 0 1 0 0-2 1 1 0 0 0 0 2"/></symbol><symbol id="ri-compass-line" viewBox="0 0 24 24"><path d="M12 22C6.477 22 2 17.523 2 12S6.477 2 12 2s10 4.477 10 10-4.477 10-10 10m0-2a8 8 0 1 0 0-16 8 8 0 0 0 0 16m3.5-11.5-2 5-5 2 2-5z"/></symbol><symbol id="ri-computer-line" viewBox="0 0 24 24"><path d="M4 16h16V5H4zm9 2v2h4v2H7v-2h4v-2H2.992A1 1 0 0 1 2 16.992V4.008C2 3.451 2.455 3 2.992 3h18.016c.548 0 .992.449.992 1.007v12.985c0 .557-.455 1.008-.992 1.008z"/></symbol><symbol id="ri-cup-fill" viewBox="0 0 24 24"><path d="M5 3h15a2 2 0 0 1 2 2v3a2 2 0 0 1-2 2h-2v3a4 4 0 0 1-4 4H8a4 4 0 0 1-4-4V4a1 1 0 0 1 1-1m13 2v3h2V5zM2 19h18v2H2z"/></symbol><symbol id="ri-cup-line" viewBox="0 0 24 24"><path d="M16 13V5H6v8a2 2 0 0 0 2 2h6a2 2 0 0 0 2-2M5 3h15a2 2 0 0 1 2 2v3a2 2 0 0 1-2 2h-2v3a4 4 0 0 1-4 4H8a4 4 0 0 1-4-4V4a1 1 0 0 1 1-1m13 2v3h2V5zM2 19h18v2H2z"/></symbol><symbol id="ri-customer-service-2-line" viewBox="0 0 24 24"><path d="M19.938 8H21a2 2 0 0 1 2 2v4a2 2 0 0 1-2 2h-1.062A8 8 0 0 1 12 23v-2a6 6 0 0 0 6-6V9A6 6 0 0 0 6 9v7H3a2 2 0 0 1-2-2v-4a2 2 0 0 1 2-2h1.062a8.001 8.001 0 0 1 15.876 0M3 10v4h1v-4zm17 0v4h1v-4zM7.76 15.785l1.06-1.696A5.97 5.97 0 0 0 12 15a5.97 5.97 0 0 0 3.18-.911l1.06 1.696A7.96 7.96 0 0 1 12 17a7.96 7.96 0 0 1-4.24-1.215"/></symbol><symbol id="ri-delete-back-2-line" viewBox="0 0 24 24"><path d="M6.535 3h14.464a1 1 0 0 1 1 1v16a1 1 0 0 1-1 1H6.535a1 1 0 0 1-.833-.445l-5.333-8a1 1 0 0 1 0-1.11l5.333-8A1 1 0 0 1 6.535 3m.535 2-4.667 7 4.667 7H20V5zM13 10.586l2.828-2.829 1.414 1.415L14.414 12l2.828 2.828-1.414 1.415-2.829-2.829-2.828 2.829-1.414-1.415L11.585 12 8.757 9.172l1.414-1.415z"/></symbol><symbol id="ri-discuss-fill" viewBox="0 0 24 24"><path d="M16.8 19 14 22.5 11.2 19H6a1 1 0 0 1-1-1V7.103a1 1 0 0 1 1-1h16a1 1 0 0 1 1 1V18a1 1 0 0 1-1 1zM2 2h17v2H3v11H1V3a1 1 0 0 1 1-1"/></symbol><symbol id="ri-discuss-line" viewBox="0 0 24 24"><path d="M14 22.5 11.2 19H6a1 1 0 0 1-1-1V7.103a1 1 0 0 1 1-1h16a1 1 0 0 1 1 1V18a1 1 0 0 1-1 1h-5.2zm1.839-5.5H21V8.103H7V17h5.161L14 19.298zM2 2h17v2H3v11H1V3a1 1 0 0 1 1-1"/></symbol><symbol id="ri-drag-move-line" viewBox="0 0 24 24"><path d="m12 2 4.243 4.243-1.415 1.414L12 4.828 9.172 7.657 7.757 6.243zM2 12l4.243-4.243 1.414 1.415L4.828 12l2.829 2.828-1.414 1.415zm20 0-4.243 4.243-1.414-1.415L19.172 12l-2.829-2.828 1.414-1.415zm-10 2a2 2 0 1 1 0-4 2 2 0 0 1 0 4m0 8-4.243-4.243 1.415-1.414L12 19.172l2.828-2.829 1.415 1.414z"/></symbol><symbol id="ri-emotion-line" viewBox="0 0 24 24"><path d="M12 22C6.477 22 2 17.523 2 12S6.477 2 12 2s10 4.477 10 10-4.477 10-10 10m0-2a8 8 0 1 0 0-16 8 8 0 0 0 0 16m-4-7h8a4 4 0 0 1-8 0m0-2a1.5 1.5 0 1 1 0-3 1.5 1.5 0 0 1 0 3m8 0a1.5 1.5 0 1 1 0-3 1.5 1.5 0 0 1 0 3"/></symbol><symbol id="ri-emotion-sad-fill" viewBox="0 0 24 24"><path d="M12 2c5.523 0 10 4.477 10 10a9.96 9.96 0 0 1-1.065 4.496 2 2 0 0 0-.398-.775l-.123-.135L19 14.172l-1.414 1.414-.117.127a2 2 0 0 0 1.679 3.282A9.97 9.97 0 0 1 12 22C6.477 22 2 17.523 2 12S6.477 2 12 2m0 13c-1.38 0-2.63.56-3.534 1.463l-.166.174.945.86C10.035 17.182 10.982 17 12 17c.905 0 1.754.144 2.486.396l.269.1.945-.86A4.99 4.99 0 0 0 12 15m-3.5-5a1.5 1.5 0 1 0 0 3 1.5 1.5 0 0 0 0-3m7 0a1.5 1.5 0 1 0 0 3 1.5 1.5 0 0 0 0-3"/></symbol><symbol id="ri-emotion-sad-line" viewBox="0 0 24 24"><path d="M12 2c5.523 0 10 4.477 10 10 0 .727-.078 1.435-.225 2.118l-1.782-1.783Q20 12.17 20 12a8 8 0 1 0-4.381 7.137q.232.37.553.691c.302.303.64.547 1.001.732A9.96 9.96 0 0 1 12 22C6.477 22 2 17.523 2 12S6.477 2 12 2m7 12.172 1.414 1.414a2 2 0 1 1-2.93.11l.102-.11zM12 15c1.466 0 2.785.631 3.7 1.637l-.945.86C13.965 17.182 13.018 17 12 17s-1.965.183-2.755.496l-.945-.86A4.99 4.99 0 0 1 12 15m-3.5-5a1.5 1.5 0 1 1 0 3 1.5 1.5 0 0 1 0-3m7 0a1.5 1.5 0 1 1 0 3 1.5 1.5 0 0 1 0-3"/></symbol><symbol id="ri-error-warning-line" viewBox="0 0 24 24"><path d="M12 22C6.477 22 2 17.523 2 12S6.477 2 12 2s10 4.477 10 10-4.477 10-10 10m0-2a8 8 0 1 0 0-16 8 8 0 0 0 0 16m-1-5h2v2h-2zm0-8h2v6h-2z"/></symbol><symbol id="ri-fingerprint-line" viewBox="0 0 24 24"><path d="M17 13v1c0 2.77-.664 5.445-1.915 7.846l-.227.42-1.746-.974c1.16-2.08 1.81-4.41 1.881-6.836L15 14v-1zm-6-3h2v4l-.005.379a12.94 12.94 0 0 1-2.691 7.549l-.231.29-1.549-1.264a10.94 10.94 0 0 0 2.47-6.588L11 14zm1-4a5 5 0 0 1 5 5h-2a3 3 0 0 0-6 0v3c0 2.235-.82 4.344-2.27 5.977l-.212.23-1.448-1.38a6.97 6.97 0 0 0 1.924-4.524L7 14v-3a5 5 0 0 1 5-5m0-4a9 9 0 0 1 9 9v3c0 1.698-.201 3.37-.596 4.99l-.14.539-1.93-.526c.392-1.437.614-2.922.658-4.435L19 14v-3A7 7 0 0 0 7.808 5.394L6.383 3.968A8.96 8.96 0 0 1 12 2M4.968 5.383l1.426 1.425a6.97 6.97 0 0 0-1.39 3.951L5 11 5.004 13c0 1.12-.264 2.203-.761 3.177l-.157.29-1.736-.992c.379-.665.6-1.407.645-2.183L3.004 13v-2a8.94 8.94 0 0 1 1.964-5.617"/></symbol><symbol id="ri-github-fill" viewBox="0 0 24 24"><path d="M12.001 2c-5.525 0-10 4.475-10 10a9.99 9.99 0 0 0 6.837 9.488c.5.087.688-.213.688-.476 0-.237-.013-1.024-.013-1.862-2.512.463-3.162-.612-3.362-1.175-.113-.288-.6-1.175-1.025-1.413-.35-.187-.85-.65-.013-.662.788-.013 1.35.725 1.538 1.025.9 1.512 2.337 1.087 2.912.825.088-.65.35-1.087.638-1.337-2.225-.25-4.55-1.113-4.55-4.938 0-1.088.387-1.987 1.025-2.687-.1-.25-.45-1.275.1-2.65 0 0 .837-.263 2.75 1.024a9.3 9.3 0 0 1 2.5-.337c.85 0 1.7.112 2.5.337 1.913-1.3 2.75-1.024 2.75-1.024.55 1.375.2 2.4.1 2.65.637.7 1.025 1.587 1.025 2.687 0 3.838-2.337 4.688-4.562 4.938.362.312.675.912.675 1.85 0 1.337-.013 2.412-.013 2.75 0 .262.188.574.688.474A10.02 10.02 0 0 0 22 12c0-5.525-4.475-10-10-10"/></symbol><symbol id="ri-hand-heart-line" viewBox="0 0 24 24"><path d="M5.005 9.003a1 1 0 0 1 1 1 6.97 6.97 0 0 1 4.33 1.5h2.17c1.332 0 2.529.578 3.353 1.498l3.147.002a5 5 0 0 1 4.516 2.851c-2.365 3.12-6.194 5.149-10.516 5.149-2.79 0-5.15-.604-7.061-1.658a1 1 0 0 1-.94.658h-3a1 1 0 0 1-1-1v-9a1 1 0 0 1 1-1zm1 3v5.02l.045.034c1.794 1.26 4.133 1.946 6.955 1.946 3.004 0 5.798-1.156 7.835-3.13l.133-.133-.12-.1a3 3 0 0 0-1.643-.63l-.205-.007-2.112-.001q.11.483.112 1v1h-9v-2h6.79l-.034-.079a2.5 2.5 0 0 0-2.092-1.415l-.164-.005h-2.93a4.98 4.98 0 0 0-3.57-1.5m-2-1h-1v7h1zm9.646-7.425.354.354.353-.354a2.5 2.5 0 0 1 3.536 3.535l-3.89 3.89-3.888-3.89a2.5 2.5 0 1 1 3.535-3.535M11.53 4.992a.5.5 0 0 0-.059.637l.058.07 2.475 2.475 2.476-2.475a.5.5 0 0 0 .058-.638l-.058-.069a.5.5 0 0 0-.638-.058l-.07.058-1.769 1.769-1.767-1.77-.068-.057a.5.5 0 0 0-.638.058"/></symbol><symbol id="ri-heart-3-fill" viewBox="0 0 24 24"><path d="M16.5 3C19.538 3 22 5.5 22 9c0 7-7.5 11-10 12.5C9.5 20 2 16 2 9c0-3.5 2.5-6 5.5-6C9.36 3 11 4 12 5c1-1 2.64-2 4.5-2"/></symbol><symbol id="ri-home-3-fill" viewBox="0 0 24 24"><path d="M20 20a1 1 0 0 1-1 1H5a1 1 0 0 1-1-1v-9H1l10.327-9.388a1 1 0 0 1 1.346 0L23 11h-3zM8 15v2h8v-2z"/></symbol><symbol id="ri-home-3-line" viewBox="0 0 24 24"><path d="M19 21H5a1 1 0 0 1-1-1v-9H1l10.327-9.388a1 1 0 0 1 1.346 0L23 11h-3v9a1 1 0 0 1-1 1M6 19h12V9.158l-6-5.455-6 5.455zm2-4h8v2H8z"/></symbol><symbol id="ri-home-7-line" viewBox="0 0 24 24"><path d="M19 21H5a1 1 0 0 1-1-1v-9H1l10.327-9.388a1 1 0 0 1 1.346 0L23 11h-3v9a1 1 0 0 1-1 1M6 19h12V9.158l-6-5.455-6 5.455zm6-4a2.5 2.5 0 1 1 0-5 2.5 2.5 0 0 1 0 5"/></symbol><symbol id="ri-hotel-bed-fill" viewBox="0 0 24 24"><path d="M22 11v9h-2v-3H4v3H2V4h2v10h8V7h6a4 4 0 0 1 4 4M8 13a3 3 0 1 1 0-6 3 3 0 0 1 0 6"/></symbol><symbol id="ri-hotel-bed-line" viewBox="0 0 24 24"><path d="M22 11v9h-2v-3H4v3H2V4h2v10h8V7h6a4 4 0 0 1 4 4m-2 3v-3a2 2 0 0 0-2-2h-4v5zM8 11a1 1 0 1 0 0-2 1 1 0 0 0 0 2m0 2a3 3 0 1 1 0-6 3 3 0 0 1 0 6"/></symbol><symbol id="ri-image-2-fill" viewBox="0 0 24 24"><path d="m5 11.1 2-2 5.5 5.5 3.5-3.5 3 3V5H5zM4 3h16a1 1 0 0 1 1 1v16a1 1 0 0 1-1 1H4a1 1 0 0 1-1-1V4a1 1 0 0 1 1-1m11.5 7a1.5 1.5 0 1 1 0-3 1.5 1.5 0 0 1 0 3"/></symbol><symbol id="ri-indent-decrease" viewBox="0 0 24 24"><path d="M3 4h18v2H3zm0 15h18v2H3zm8-5h10v2H11zm0-5h10v2H11zm-8 3.5L7 9v7z"/></symbol><symbol id="ri-information-line" viewBox="0 0 24 24"><path d="M12 22C6.477 22 2 17.523 2 12S6.477 2 12 2s10 4.477 10 10-4.477 10-10 10m0-2a8 8 0 1 0 0-16 8 8 0 0 0 0 16M11 7h2v2h-2zm0 4h2v6h-2z"/></symbol><symbol id="ri-lock-line" viewBox="0 0 24 24"><path d="M19 10h1a1 1 0 0 1 1 1v10a1 1 0 0 1-1 1H4a1 1 0 0 1-1-1V11a1 1 0 0 1 1-1h1V9a7 7 0 0 1 14 0zM5 12v8h14v-8zm6 2h2v4h-2zm6-4V9A5 5 0 0 0 7 9v1z"/></symbol><symbol id="ri-macbook-fill" viewBox="0 0 24 24"><path d="M2 4.007C2 3.45 2.455 3 2.992 3h18.016c.548 0 .992.45.992 1.007V17H2zM1 19h22v2H1z"/></symbol><symbol id="ri-medal-fill" viewBox="0 0 24 24"><path d="M12 7a8 8 0 1 1 0 16 8 8 0 0 1 0-16m0 3.5-1.322 2.68-2.958.43 2.14 2.085-.505 2.946L12 17.25l2.645 1.39-.505-2.945 2.14-2.086-2.958-.43zm1-8.501L18 2v3l-1.363 1.138A9.9 9.9 0 0 0 13 5.05zm-2 0v3.05a9.9 9.9 0 0 0-3.636 1.088L6 5V2z"/></symbol><symbol id="ri-mic-off-fill" viewBox="0 0 24 24"><path d="M16.426 17.839A8.9 8.9 0 0 1 13 18.945V23h-2v-4.055A9.004 9.004 0 0 1 3.056 11h2.016a7.002 7.002 0 0 0 9.87 5.354l-1.55-1.55A5 5 0 0 1 7.001 10V8.414L1.394 2.808l1.414-1.415 19.799 19.8-1.415 1.414zm2.95-2.679-1.443-1.442c.509-.81.856-1.73.997-2.718h2.016a8.95 8.95 0 0 1-1.57 4.16m-2.91-2.909-8.78-8.78A5 5 0 0 1 17 6v4c.001.81-.191 1.575-.533 2.251"/></symbol><symbol id="ri-money-cny-circle-line" viewBox="0 0 24 24"><path d="M12.005 22.003c-5.523 0-10-4.477-10-10s4.477-10 10-10 10 4.477 10 10-4.477 10-10 10m0-2a8 8 0 1 0 0-16 8 8 0 0 0 0 16m1-7h3v2h-3v2h-2v-2h-3v-2h3v-1h-3v-2h2.586L8.469 7.882l1.415-1.415 2.12 2.122 2.122-2.122 1.414 1.415-2.12 2.12h2.585v2h-3z"/></symbol><symbol id="ri-moon-fill" viewBox="0 0 24 24"><path d="M11.38 2.019a7.5 7.5 0 1 0 10.6 10.6C21.662 17.855 17.316 22 12.001 22 6.477 22 2 17.523 2 12 2 6.685 6.146 2.34 11.38 2.02"/></symbol><symbol id="ri-moon-line" viewBox="0 0 24 24"><path d="M10 7a7 7 0 0 0 12 4.9v.1c0 5.523-4.477 10-10 10S2 17.523 2 12 6.477 2 12 2h.1A6.98 6.98 0 0 0 10 7m-6 5a8 8 0 0 0 15.062 3.762A9 9 0 0 1 8.238 4.938 8 8 0 0 0 4 12"/></symbol><symbol id="ri-more-fill" viewBox="0 0 24 24"><path d="M5 10c-1.1 0-2 .9-2 2s.9 2 2 2 2-.9 2-2-.9-2-2-2m14 0c-1.1 0-2 .9-2 2s.9 2 2 2 2-.9 2-2-.9-2-2-2m-7 0c-1.1 0-2 .9-2 2s.9 2 2 2 2-.9 2-2-.9-2-2-2"/></symbol><symbol id="ri-more-line" viewBox="0 0 24 24"><path d="M4.5 10.5c-.825 0-1.5.675-1.5 1.5s.675 1.5 1.5 1.5S6 12.825 6 12s-.675-1.5-1.5-1.5m15 0c-.825 0-1.5.675-1.5 1.5s.675 1.5 1.5 1.5S21 12.825 21 12s-.675-1.5-1.5-1.5m-7.5 0c-.825 0-1.5.675-1.5 1.5s.675 1.5 1.5 1.5 1.5-.675 1.5-1.5-.675-1.5-1.5-1.5"/></symbol><symbol id="ri-movie-2-fill" viewBox="0 0 24 24"><path d="M18.001 20H20v2h-8C6.477 22 2 17.523 2 12S6.477 2 12 2s10 4.477 10 10a9.99 9.99 0 0 1-3.999 8M12 10a2 2 0 1 0 0-4 2 2 0 0 0 0 4m-4 4a2 2 0 1 0 0-4 2 2 0 0 0 0 4m8 0a2 2 0 1 0 0-4 2 2 0 0 0 0 4m-4 4a2 2 0 1 0 0-4 2 2 0 0 0 0 4"/></symbol><symbol id="ri-notification-2-line" viewBox="0 0 24 24"><path d="M22 20H2v-2h1v-6.969C3 6.043 7.03 2 12 2s9 4.043 9 9.031V18h1zM5 18h14v-6.969C19 7.148 15.866 4 12 4s-7 3.148-7 7.031zm4.5 3h5a2.5 2.5 0 0 1-5 0"/></symbol><symbol id="ri-paint-brush-fill" viewBox="0 0 24 24"><path d="M4 2.997h16a1 1 0 0 1 1 1v5a1 1 0 0 1-1 1H4a1 1 0 0 1-1-1v-5a1 1 0 0 1 1-1m2 9h6a1 1 0 0 1 1 1v3h1v6h-4v-6h1v-2H5a1 1 0 0 1-1-1v-2h2zm11.732 1.732L19.5 11.96l1.768 1.768a2.5 2.5 0 1 1-3.536 0"/></symbol><symbol id="ri-paint-brush-line" viewBox="0 0 24 24"><path d="M5 4.997v3h14v-3zm-1-2h16a1 1 0 0 1 1 1v5a1 1 0 0 1-1 1H4a1 1 0 0 1-1-1v-5a1 1 0 0 1 1-1m2 9h6a1 1 0 0 1 1 1v3h1v6h-4v-6h1v-2H5a1 1 0 0 1-1-1v-2h2zm11.732 1.732L19.5 11.96l1.768 1.768a2.5 2.5 0 1 1-3.536 0"/></symbol><symbol id="ri-palette-line" viewBox="0 0 24 24"><path d="M12 2c5.522 0 10 3.978 10 8.889a5.56 5.56 0 0 1-5.556 5.555h-1.966c-.922 0-1.667.745-1.667 1.667 0 .422.167.811.422 1.1.267.3.434.689.434 1.122C13.667 21.256 12.9 22 12 22 6.478 22 2 17.522 2 12S6.478 2 12 2m-1.189 16.111a3.664 3.664 0 0 1 3.667-3.667h1.966A3.56 3.56 0 0 0 20 10.89C20 7.139 16.468 4 12 4a8 8 0 0 0-.676 15.972 3.65 3.65 0 0 1-.513-1.86M7.5 12a1.5 1.5 0 1 1 0-3 1.5 1.5 0 0 1 0 3m9 0a1.5 1.5 0 1 1 0-3 1.5 1.5 0 0 1 0 3M12 9a1.5 1.5 0 1 1 0-3 1.5 1.5 0 0 1 0 3"/></symbol><symbol id="ri-parent-line" viewBox="0 0 24 24"><path d="M7 9a2.5 2.5 0 1 0 0-5 2.5 2.5 0 0 0 0 5m0 2a4.5 4.5 0 1 1 0-9 4.5 4.5 0 0 1 0 9m10.5 2a2 2 0 1 0 0-4 2 2 0 0 0 0 4m0 2a4 4 0 1 1 0-8 4 4 0 0 1 0 8m2.5 6v-.5a2.5 2.5 0 0 0-5 0v.5h-2v-.5a4.5 4.5 0 1 1 9 0v.5zm-10 0v-4a3 3 0 1 0-6 0v4H2v-4a5 5 0 0 1 10 0v4z"/></symbol><symbol id="ri-phone-fill" viewBox="0 0 24 24"><path d="M21 16.42v3.536a1 1 0 0 1-.93.998Q19.415 21 19 21C10.163 21 3 13.837 3 5q0-.414.046-1.07A1 1 0 0 1 4.044 3H7.58a.5.5 0 0 1 .498.45q.034.344.064.552A13.9 13.9 0 0 0 9.35 8.003c.095.2.033.439-.147.567l-2.158 1.542a13.05 13.05 0 0 0 6.844 6.844l1.54-2.154a.46.46 0 0 1 .573-.149 13.9 13.9 0 0 0 4 1.205q.208.03.55.064a.5.5 0 0 1 .449.498"/></symbol><symbol id="ri-plane-fill" viewBox="0 0 24 24"><path d="M14 8.947 22 14v2l-8-2.526v5.36l3 1.666V22l-4.5-1L8 22v-1.5l3-1.667v-5.36L3 16v-2l8-5.053V3.5a1.5 1.5 0 0 1 3 0z"/></symbol><symbol id="ri-plane-line" viewBox="0 0 24 24"><path d="M14 8.947 22 14v2l-8-2.526v5.36l3 1.666V22l-4.5-1L8 22v-1.5l3-1.667v-5.36L3 16v-2l8-5.053V3.5a1.5 1.5 0 0 1 3 0z"/></symbol><symbol id="ri-qr-code-fill" viewBox="0 0 24 24"><path d="M16 17v-1h-3v-3h3v2h2v2h-1v2h-2v2h-2v-3h2v-1zm5 4h-4v-2h2v-2h2zM3 3h8v8H3zm10 0h8v8h-8zM3 13h8v8H3zm15 0h3v2h-3zM6 6v2h2V6zm0 10v2h2v-2zM16 6v2h2V6z"/></symbol><symbol id="ri-qr-scan-line" viewBox="0 0 24 24"><path d="M21 16v5H3v-5h2v3h14v-3zM3 11h18v2H3zm18-3h-2V5H5v3H3V3h18z"/></symbol><symbol id="ri-radio-button-fill" viewBox="0 0 24 24"><path d="M12 22C6.477 22 2 17.523 2 12S6.477 2 12 2s10 4.477 10 10-4.477 10-10 10m0-6a4 4 0 1 0 0-8 4 4 0 0 0 0 8"/></symbol><symbol id="ri-radio-button-line" viewBox="0 0 24 24"><path d="M12 22C6.477 22 2 17.523 2 12S6.477 2 12 2s10 4.477 10 10-4.477 10-10 10m0-2a8 8 0 1 0 0-16 8 8 0 0 0 0 16m0-3a5 5 0 1 1 0-10 5 5 0 0 1 0 10"/></symbol><symbol id="ri-restaurant-2-fill" viewBox="0 0 24 24"><path d="m4.222 3.808 6.718 6.717-2.829 2.829-3.889-3.89a4 4 0 0 1 0-5.656m10.046 8.339-.853.853 7.07 7.071-1.413 1.414L12 14.415l-7.072 7.07-1.414-1.414 9.339-9.339c-.588-1.457.02-3.555 1.621-5.156 1.953-1.953 4.644-2.428 6.01-1.061 1.368 1.367.893 4.058-1.06 6.01-1.602 1.602-3.7 2.21-5.157 1.622"/></symbol><symbol id="ri-restaurant-2-line" viewBox="0 0 24 24"><path d="m14.268 12.147-.853.853 7.07 7.071-1.413 1.414L12 14.415l-7.072 7.07-1.414-1.414 9.339-9.339c-.588-1.457.02-3.555 1.621-5.156 1.953-1.953 4.644-2.428 6.01-1.061 1.368 1.367.893 4.058-1.06 6.01-1.602 1.602-3.7 2.21-5.157 1.622M4.222 3.807l6.718 6.718-2.829 2.829-3.889-3.89a4 4 0 0 1 0-5.656m13.789 5.304c1.257-1.257 1.516-2.726 1.06-3.182s-1.924-.196-3.181 1.06c-1.258 1.258-1.517 2.727-1.061 3.183s1.925.196 3.182-1.06"/></symbol><symbol id="ri-riding-line" viewBox="0 0 24 24"><path d="M5.5 21a4.5 4.5 0 1 1 0-9 4.5 4.5 0 0 1 0 9m0-2a2.5 2.5 0 1 0 0-5 2.5 2.5 0 0 0 0 5m13 2a4.5 4.5 0 1 1 0-9 4.5 4.5 0 0 1 0 9m0-2a2.5 2.5 0 1 0 0-5 2.5 2.5 0 0 0 0 5m-7.477-8.695L13 12v6h-2v-5l-2.719-2.266A2 2 0 0 1 8 7.671l2.828-2.828a2 2 0 0 1 2.829 0l1.414 1.414a6.97 6.97 0 0 0 3.917 1.975l-.01 2.015a8.96 8.96 0 0 1-5.321-2.575zM16 5a2 2 0 1 1 0-4 2 2 0 0 1 0 4"/></symbol><symbol id="ri-send-plane-line" viewBox="0 0 24 24"><path d="m21.726 2.957-5.453 19.086c-.15.529-.475.553-.717.07L11 13 1.923 9.37c-.51-.205-.504-.51.034-.689L21.043 2.32c.528-.176.832.12.683.638m-2.69 2.14L6.811 9.17l5.637 2.255 3.04 6.081z"/></symbol><symbol id="ri-service-line" viewBox="0 0 24 24"><path d="M3.161 4.47a6.5 6.5 0 0 1 8.84-.329 6.5 6.5 0 0 1 9.178 9.154l-7.765 7.791a2 2 0 0 1-2.719.102l-.11-.102-7.764-7.79a6.5 6.5 0 0 1 .34-8.827m1.414 1.413a4.5 4.5 0 0 0-.146 6.211l.146.153L12 19.672l5.303-5.304-3.535-3.535-1.06 1.06a3 3 0 0 1-4.244-4.242l2.102-2.102a4.5 4.5 0 0 0-5.837.188zm8.486 2.829a1 1 0 0 1 1.414 0l4.242 4.242.708-.707a4.5 4.5 0 0 0-6.211-6.51l-.153.146-3.182 3.182a1 1 0 0 0-.078 1.327l.078.088a1 1 0 0 0 1.327.077l.087-.077z"/></symbol><symbol id="ri-share-forward-2-fill" viewBox="0 0 24 24"><path d="M4 19h16v-5h2v6a1 1 0 0 1-1 1H3a1 1 0 0 1-1-1v-6h2zm8-9H9a6 6 0 0 0-4.854 2.473A8 8 0 0 1 12 6V2l8 6-8 6z"/></symbol><symbol id="ri-share-forward-line" viewBox="0 0 24 24"><path d="M13 14h-2a9 9 0 0 0-7.968 4.81A10 10 0 0 1 3 18C3 12.477 7.477 8 13 8V2.5L23.5 11 13 19.5zm-2-2h4v3.308L20.321 11 15 6.692V10h-2a7.98 7.98 0 0 0-6.057 2.774A11 11 0 0 1 11 12"/></symbol><symbol id="ri-share-line" viewBox="0 0 24 24"><path d="m13.12 17.023-4.199-2.29a4 4 0 1 1 0-5.465l4.2-2.29a4 4 0 1 1 .958 1.755l-4.2 2.29a4 4 0 0 1 0 1.954l4.2 2.29a4 4 0 1 1-.959 1.755M6 14a2 2 0 1 0 0-4 2 2 0 0 0 0 4m11-6a2 2 0 1 0 0-4 2 2 0 0 0 0 4m0 12a2 2 0 1 0 0-4 2 2 0 0 0 0 4"/></symbol><symbol id="ri-shield-user-line" viewBox="0 0 24 24"><path d="M3.783 2.826 12 1l8.217 1.826a1 1 0 0 1 .783.976v9.987a6 6 0 0 1-2.672 4.992L12 23l-6.328-4.219A6 6 0 0 1 3 13.79V3.802a1 1 0 0 1 .783-.976M5 4.604v9.185a4 4 0 0 0 1.781 3.328L12 20.597l5.219-3.48A4 4 0 0 0 19 13.79V4.604L12 3.05zM12 11a2.5 2.5 0 1 1 0-5 2.5 2.5 0 0 1 0 5m-4.473 5a4.5 4.5 0 0 1 8.946 0z"/></symbol><symbol id="ri-ship-2-line" viewBox="0 0 24 24"><path d="M9 4h5.446a1 1 0 0 1 .848.47L18.75 10h4.408a.5.5 0 0 1 .439.74L19.637 18H19a6 6 0 0 1-1.535-.198L20.63 12H3.4l1.048 5.824A6 6 0 0 1 3 18h-.545l-1.24-6.821A1 1 0 0 1 2.197 10H3V5a1 1 0 0 1 1-1h1V1h4zm-4 6h11.392l-2.5-4H5zM3 20a5.98 5.98 0 0 0 4-1.528A5.98 5.98 0 0 0 11 20a5.98 5.98 0 0 0 4-1.528A5.98 5.98 0 0 0 19 20h2v2h-2a7.96 7.96 0 0 1-4-1.07A7.96 7.96 0 0 1 11 22a7.96 7.96 0 0 1-4-1.07A7.96 7.96 0 0 1 3 22H1v-2z"/></symbol><symbol id="ri-shopping-basket-line" viewBox="0 0 24 24"><path d="M12.005 2a6 6 0 0 1 6 6v1h4v2h-1.167l-.757 9.083a1 1 0 0 1-.996.917H4.925a1 1 0 0 1-.997-.917L3.171 11H2.005V9h4V8a6 6 0 0 1 6-6m6.826 9H5.178l.667 8h12.319zm-5.826 2v4h-2v-4zm-4 0v4h-2v-4zm8 0v4h-2v-4zm-5-9A4 4 0 0 0 8.01 7.8l-.005.2v1h8V8a4 4 0 0 0-3.8-3.995z"/></symbol><symbol id="ri-skip-down-line" viewBox="0 0 24 24"><path d="M12 10.086 7.207 5.293 5.793 6.707 12 12.914l6.207-6.207-1.414-1.414zM18 17H6v-2h12z"/></symbol><symbol id="ri-smartphone-line" viewBox="0 0 24 24"><path d="M7 4v16h10V4zM6 2h12a1 1 0 0 1 1 1v18a1 1 0 0 1-1 1H6a1 1 0 0 1-1-1V3a1 1 0 0 1 1-1m6 15a1 1 0 1 1 0 2 1 1 0 0 1 0-2"/></symbol><symbol id="ri-spy-fill" viewBox="0 0 24 24"><path d="M17 13a4 4 0 0 1 0 8c-2.142 0-4-1.79-4-4h-2a4 4 0 1 1-.535-2h3.07A4 4 0 0 1 17 13M2 12v-2h2V7a4 4 0 0 1 4-4h8a4 4 0 0 1 4 4v3h2v2z"/></symbol><symbol id="ri-star-fill" viewBox="0 0 24 24"><path d="m12 18.26-7.053 3.948 1.575-7.928L.588 8.792l8.027-.952L12 .5l3.385 7.34 8.027.952-5.934 5.488 1.575 7.928z"/></symbol><symbol id="ri-star-line" viewBox="0 0 24 24"><path d="m12 18.26-7.053 3.948 1.575-7.928L.588 8.792l8.027-.952L12 .5l3.385 7.34 8.027.952-5.934 5.488 1.575 7.928zm0-2.292 4.247 2.377-.948-4.773 3.573-3.305-4.833-.573-2.038-4.419-2.039 4.42-4.833.572 3.573 3.305-.948 4.773z"/></symbol><symbol id="ri-subtract-line" viewBox="0 0 24 24" fill="currentColor"><path d="M5 11v2h14v-2z"/></symbol><symbol id="ri-sun-line" viewBox="0 0 24 24"><path d="M12 18a6 6 0 1 1 0-12 6 6 0 0 1 0 12m0-2a4 4 0 1 0 0-8 4 4 0 0 0 0 8M11 1h2v3h-2zm0 19h2v3h-2zM3.515 4.929l1.414-1.414L7.05 5.636 5.636 7.05zM16.95 18.364l1.414-1.414 2.121 2.121-1.414 1.414zm2.121-14.85 1.414 1.415-2.121 2.121-1.414-1.414zM5.636 16.95l1.414 1.414-2.121 2.121-1.414-1.414zM23 11v2h-3v-2zM4 11v2H1v-2z"/></symbol><symbol id="ri-surgical-mask-fill" viewBox="0 0 24 24"><path d="m12.485 3.121 7.758 1.94a1 1 0 0 1 .757.97V7h1c1.1 0 2 .9 2 2v3a3 3 0 0 1-3 3h-.421a6 6 0 0 1-2.896 3.158l-4.789 2.395a2 2 0 0 1-1.788 0l-4.79-2.395A6 6 0 0 1 3.422 15H3a3 3 0 0 1-3-3V9a2 2 0 0 1 2-2h1v-.97a1 1 0 0 1 .757-.97l7.758-1.939a2 2 0 0 1 .97 0M3 9H2v3a1 1 0 0 0 1 1zm19 0h-1v4a1 1 0 0 0 1-1z"/></symbol><symbol id="ri-survey-fill" viewBox="0 0 24 24"><path d="M6 4v4h12V4h2.007c.548 0 .993.445.993.993v16.014a.994.994 0 0 1-.993.993H3.993A.993.993 0 0 1 3 21.007V4.993C3 4.445 3.445 4 3.993 4zm3 13H7v2h2zm0-3H7v2h2zm0-3H7v2h2zm7-9v4H8V2z"/></symbol><symbol id="ri-survey-line" viewBox="0 0 24 24"><path d="M17 2v2h3.007c.548 0 .993.445.993.993v16.014a.994.994 0 0 1-.993.993H3.993A.993.993 0 0 1 3 21.007V4.993C3 4.445 3.445 4 3.993 4H7V2zM7 6H5v14h14V6h-2v2H7zm2 10v2H7v-2zm0-3v2H7v-2zm0-3v2H7v-2zm6-6H9v2h6z"/></symbol><symbol id="ri-svelte-line" viewBox="0 0 24 24" fill="currentColor"><path d="M19.8 3.77a6.25 6.25 0 0 0-8.63-1.913L6.11 5.081a6.25 6.25 0 0 0-1.973 8.532 6.25 6.25 0 0 0 8.693 8.53l5.06-3.224a6.25 6.25 0 0 0 1.974-8.532A6.25 6.25 0 0 0 19.8 3.77m-1.352 5.004A6.26 6.26 0 0 0 15.65 7.5a1 1 0 0 0-1.525-1.003L9.066 9.72a1 1 0 1 0 1.075 1.686l2.109-1.343a4.25 4.25 0 1 1 4.567 7.17l-5.06 3.223a4.25 4.25 0 0 1-6.203-5.23A6.25 6.25 0 0 0 8.35 16.5a1 1 0 0 0 1.525 1.003l5.06-3.224a1 1 0 0 0-1.074-1.687l-2.109 1.344a4.25 4.25 0 0 1-4.567-7.17l5.06-3.223a4.25 4.25 0 0 1 6.203 5.23"/></symbol><symbol id="ri-switch-fill" viewBox="0 0 24 24"><path d="M13.62 21c-.085 0-.141-.057-.127-.127V3.127c0-.056.042-.113.113-.113h2.785a4.61 4.61 0 0 1 4.61 4.61v8.766a4.61 4.61 0 0 1-4.61 4.61zm3.422-9.926c-1.004 0-1.824.82-1.824 1.824s.82 1.824 1.824 1.824 1.824-.82 1.824-1.824-.82-1.824-1.824-1.824M5.8 8.4c0-.933.763-1.696 1.696-1.696.934 0 1.697.763 1.697 1.696 0 .934-.763 1.697-1.697 1.697a1.7 1.7 0 0 1-1.696-1.697M11.54 3c.085 0 .142.057.128.127V20.86c0 .07-.057.127-.128.127h-3.93A4.61 4.61 0 0 1 3 16.376V7.61A4.61 4.61 0 0 1 7.611 3zm-1.315 16.544V4.442H7.611c-.849 0-1.64.34-2.235.933a3.09 3.09 0 0 0-.933 2.235v8.766c0 .849.34 1.64.933 2.234a3.09 3.09 0 0 0 2.235.934z"/></symbol><symbol id="ri-tablet-line" viewBox="0 0 24 24"><path d="M6 4v16h12V4zM5 2h14a1 1 0 0 1 1 1v18a1 1 0 0 1-1 1H5a1 1 0 0 1-1-1V3a1 1 0 0 1 1-1m7 15a1 1 0 1 1 0 2 1 1 0 0 1 0-2"/></symbol><symbol id="ri-thumb-up-fill" viewBox="0 0 24 24"><path d="M2 9h3v12H2a1 1 0 0 1-1-1V10a1 1 0 0 1 1-1m5.293-1.293 6.4-6.4a.5.5 0 0 1 .654-.047l.853.64a1.5 1.5 0 0 1 .553 1.57L14.6 8H21a2 2 0 0 1 2 2v2.104a2 2 0 0 1-.15.762l-3.095 7.515a1 1 0 0 1-.925.619H8a1 1 0 0 1-1-1V8.414a1 1 0 0 1 .293-.707"/></symbol><symbol id="ri-train-line" viewBox="0 0 24 24"><path d="m17.2 20 1.8 1.5v.5H5v-.5L6.8 20H5a2 2 0 0 1-2-2V7a4 4 0 0 1 4-4h10a4 4 0 0 1 4 4v11a2 2 0 0 1-2 2zM7 5a2 2 0 0 0-2 2v11h14V7a2 2 0 0 0-2-2zm5 12a2 2 0 1 1 0-4 2 2 0 0 1 0 4M6 7h12v4H6z"/></symbol><symbol id="ri-ubuntu-fill" viewBox="0 0 24 24"><path d="M22.001 12c0 5.522-4.477 10-10 10s-10-4.478-10-10 4.477-10 10-10 10 4.477 10 10m-16.8-1.336a1.335 1.335 0 1 0 0 2.67 1.335 1.335 0 0 0 0-2.67m9.533 6.069a1.334 1.334 0 1 0 1.334 2.31 1.334 1.334 0 0 0-1.334-2.31M8.1 12c0-1.32.656-2.485 1.659-3.19l-.977-1.636a5.8 5.8 0 0 0-2.398 3.371 1.875 1.875 0 0 1 0 2.91 5.8 5.8 0 0 0 2.398 3.371l.977-1.636A3.89 3.89 0 0 1 8.1 12m3.9-3.9a3.9 3.9 0 0 1 3.884 3.554l1.903-.028a5.78 5.78 0 0 0-1.724-3.762 1.872 1.872 0 0 1-2.513-1.454 5.83 5.83 0 0 0-4.12.39l.927 1.663a3.9 3.9 0 0 1 1.643-.363m0 7.8c-.587 0-1.143-.13-1.642-.363l-.928 1.662a5.77 5.77 0 0 0 4.12.39 1.872 1.872 0 0 1 2.514-1.454 5.78 5.78 0 0 0 1.723-3.762l-1.903-.027A3.9 3.9 0 0 1 12 15.9m2.732-8.633a1.335 1.335 0 1 0 1.335-2.312 1.335 1.335 0 0 0-1.335 2.312"/></symbol><symbol id="ri-ubuntu-line" viewBox="0 0 24 24"><path d="m8.668 19.273 1.006-1.742a6 6 0 0 0 8.282-4.781h2.012A8 8 0 0 1 18.929 16a8 8 0 0 1-1.452 1.835 2.5 2.5 0 0 0-1.976.227 2.5 2.5 0 0 0-1.184 1.595 7.98 7.98 0 0 1-5.65-.384m-1.3-.75a7.98 7.98 0 0 1-3.157-4.7c.486-.456.79-1.104.79-1.823 0-.72-.304-1.369-.791-1.825A8 8 0 0 1 5.073 8a8 8 0 0 1 2.295-2.524l1.006 1.742a6.001 6.001 0 0 0 0 9.563zm1.3-13.796a8 8 0 0 1 5.648-.387c.152.65.562 1.238 1.185 1.598s1.337.42 1.976.227a8 8 0 0 1 2.49 5.085h-2.013a5.99 5.99 0 0 0-2.953-4.446 5.99 5.99 0 0 0-5.327-.335zM16 5.072a1.5 1.5 0 1 1 1.5-2.598A1.5 1.5 0 0 1 16 5.072M4.001 12a1.5 1.5 0 1 1-3 0 1.5 1.5 0 0 1 3 0m12 6.928a1.5 1.5 0 1 1 1.5 2.598 1.5 1.5 0 0 1-1.5-2.598"/></symbol><symbol id="ri-user-3-line" viewBox="0 0 24 24"><path d="M20 22h-2v-2a3 3 0 0 0-3-3H9a3 3 0 0 0-3 3v2H4v-2a5 5 0 0 1 5-5h6a5 5 0 0 1 5 5zm-8-9a6 6 0 1 1 0-12 6 6 0 0 1 0 12m0-2a4 4 0 1 0 0-8 4 4 0 0 0 0 8"/></symbol><symbol id="ri-user-add-line" viewBox="0 0 24 24"><path d="M14 14.252v2.09A6 6 0 0 0 6 22H4a8 8 0 0 1 10-7.749M12 13c-3.315 0-6-2.685-6-6s2.685-6 6-6 6 2.685 6 6-2.685 6-6 6m0-2c2.21 0 4-1.79 4-4s-1.79-4-4-4-4 1.79-4 4 1.79 4 4 4m6 6v-3h2v3h3v2h-3v3h-2v-3h-3v-2z"/></symbol><symbol id="ri-user-smile-line" viewBox="0 0 24 24"><path d="M12 22C6.477 22 2 17.523 2 12S6.477 2 12 2s10 4.477 10 10-4.477 10-10 10m0-2a8 8 0 1 0 0-16 8 8 0 0 0 0 16m-5-8h2a3 3 0 1 0 6 0h2a5 5 0 0 1-10 0"/></symbol><symbol id="ri-volume-down-line" viewBox="0 0 24 24"><path d="M13 7.22 9.603 10H6v4h3.603L13 16.78zM8.889 16H5a1 1 0 0 1-1-1V9a1 1 0 0 1 1-1h3.889l5.294-4.332a.5.5 0 0 1 .817.387v15.89a.5.5 0 0 1-.817.387zm9.974.591-1.422-1.422A4 4 0 0 0 19 12c0-1.43-.75-2.685-1.88-3.392l1.439-1.439A5.99 5.99 0 0 1 21 12c0 1.842-.83 3.49-2.137 4.591"/></symbol><symbol id="ri-volume-mute-line" viewBox="0 0 24 24"><path d="M10 7.22 6.603 10H3v4h3.603L10 16.78zM5.889 16H2a1 1 0 0 1-1-1V9a1 1 0 0 1 1-1h3.889l5.294-4.332a.5.5 0 0 1 .817.387v15.89a.5.5 0 0 1-.817.387zm14.525-4 3.536 3.536-1.415 1.414L19 13.414l-3.536 3.536-1.414-1.414L17.586 12 14.05 8.465l1.414-1.415L19 10.586l3.535-3.536 1.415 1.415z"/></symbol><symbol id="ri-volume-up-line" viewBox="0 0 24 24"><path d="M6.603 10 10 7.22v9.56L6.603 14H3v-4zM2 16h3.889l5.294 4.332a.5.5 0 0 0 .817-.387V4.055a.5.5 0 0 0-.817-.387L5.89 8H2a1 1 0 0 0-1 1v6a1 1 0 0 0 1 1m21-4c0 3.292-1.446 6.246-3.738 8.262l-1.418-1.418A8.98 8.98 0 0 0 21 12a8.98 8.98 0 0 0-3.155-6.844l1.417-1.418A10.97 10.97 0 0 1 23 12m-5 0a5.99 5.99 0 0 0-2.287-4.713l-1.429 1.429A4 4 0 0 1 16 12c0 1.36-.679 2.561-1.716 3.284l1.43 1.43A5.99 5.99 0 0 0 18 12"/></symbol><symbol id="ri-wifi-line" viewBox="0 0 24 24"><path d="M.69 6.997A17.93 17.93 0 0 1 12 3c4.285 0 8.22 1.497 11.31 3.997l-1.256 1.556A15.93 15.93 0 0 0 12 5C8.19 5 4.694 6.33 1.946 8.553zm3.141 3.89A12.95 12.95 0 0 1 12 8c3.094 0 5.936 1.081 8.169 2.886l-1.257 1.556A10.95 10.95 0 0 0 12 10c-2.618 0-5.023.915-6.912 2.442zm3.142 3.89A7.97 7.97 0 0 1 12 13c1.904 0 3.653.665 5.027 1.776l-1.257 1.556A5.98 5.98 0 0 0 12 15c-1.428 0-2.74.499-3.77 1.332zm3.142 3.89A3 3 0 0 1 12 18c.714 0 1.37.25 1.885.666L12 21z"/></symbol><symbol id="ri-wifi-off-line" viewBox="0 0 24 24"><path d="M12 18c.714 0 1.37.25 1.886.667L12 21l-1.886-2.333A3 3 0 0 1 12 18M2.808 1.394 20.485 19.07l-1.414 1.414-5.18-5.18a6 6 0 0 0-1.89-.305c-1.43 0-2.74.5-3.771 1.332l-1.256-1.556a7.96 7.96 0 0 1 4.622-1.766L9 10.414a11 11 0 0 0-3.912 2.029L3.83 10.887A13 13 0 0 1 7.416 8.83L5.132 6.545a16 16 0 0 0-3.185 2.007L.689 6.997c.915-.74 1.903-1.391 2.952-1.942L1.393 2.808zM14.5 10.286l-2.283-2.283L12 8c3.095 0 5.937 1.082 8.17 2.887l-1.258 1.556a10.96 10.96 0 0 0-4.412-2.157M12 3c4.285 0 8.22 1.497 11.31 3.997l-1.257 1.555A15.93 15.93 0 0 0 12 5q-1.319 0-2.58.207L7.726 3.511c1.37-.334 2.802-.51 4.275-.51"/></symbol><symbol id="ri-windows-fill" viewBox="0 0 24 24"><path d="m3.001 5.479 7.377-1.016v7.127H3zm0 13.042 7.377 1.017v-7.04H3zm8.188 1.125L21.001 21v-8.502h-9.812zm0-15.292v7.236h9.812V3z"/></symbol><symbol id="ri-wireless-charging-line" viewBox="0 0 24 24"><path d="m3.929 4.929 1.414 1.414A7.98 7.98 0 0 0 3 12c0 2.209.895 4.209 2.343 5.657L3.93 19.07A9.97 9.97 0 0 1 1 12a9.97 9.97 0 0 1 2.929-7.071m16.142 0A9.97 9.97 0 0 1 23 11.999a9.97 9.97 0 0 1-2.929 7.072l-1.414-1.414A7.98 7.98 0 0 0 21 12a7.98 7.98 0 0 0-2.342-5.656zM13 4.999v6h3l-5 8v-6H8zM6.757 7.758l1.415 1.414A4 4 0 0 0 7 12c0 1.104.448 2.104 1.172 2.828l-1.415 1.415A5.98 5.98 0 0 1 5 12c0-1.657.672-3.157 1.757-4.243m10.487.001A5.98 5.98 0 0 1 19 12a5.98 5.98 0 0 1-1.757 4.243l-1.415-1.415A4 4 0 0 0 17 12a3.99 3.99 0 0 0-1.17-2.828z"/></symbol><symbol id="ri-zzz-fill" viewBox="0 0 24 24"><path d="M11 11v2l-5.327 6H11v2H3v-2l5.326-6H3v-2zm10-8v2l-5.327 6H21v2h-8v-2l5.326-6H13V3z"/></symbol><symbol id="ri-zzz-line" viewBox="0 0 24 24"><path d="M11 11v2l-5.327 6H11v2H3v-2l5.326-6H3v-2zm10-8v2l-5.327 6H21v2h-8v-2l5.326-6H13V3z"/></symbol></svg>